<svg xmlns="http://www.w3.org/2000/svg" xmlns:xlink="http://www.w3.org/1999/xlink" width="307.001" height="262.001" viewBox="0 0 230.251 196.501"><symbol id="a"><path d="M.252.314h.036l.15-.232C.448.066.472.027.483.012.49 0 .493 0 .516 0h.138c.018 0 .033 0 .033.018 0 .008-.006.015-.015.017C.635.043.586.109.562.141.555.151.505.217.438.325c.089.016.175.054.175.173 0 .139-.147.187-.265.187H.034C.016.685 0 .685 0 .667 0 .65.019.65.027.65.084.65.089.643.089.593V.092C.089.042.084.035.027.035.019.035 0 .035 0 .018 0 0 .016 0 .034 0h.274c.018 0 .033 0 .033.018 0 .017-.017.017-.028.017-.057 0-.061.008-.061.057v.222m.193.049C.473.4.476.453.476.497a.226.226 0 0 1-.038.142C.479.63.578.599.578.498.578.433.548.382.445.363M.252.596c0 .021 0 .054.062.054C.399.65.441.615.441.497.441.368.41.349.252.349v.247M.116.035A.154.154 0 0 1 .124.09v.505c0 .01 0 .037-.008.055H.23C.217.634.217.614.217.599V.09c0-.01 0-.037.008-.055H.116m.213.279.019.002C.363.316.385.318.4.32.415.296.523.118.606.035H.509l-.18.279z"/></symbol><use xlink:href="#a" transform="matrix(9.9626 0 0 -9.9626 53.823 10.184)"/><symbol id="b"><path d="M.075.073a.378.378 0 0 1-.01-.041C.065.01.083 0 .099 0a.05.05 0 0 1 .039.022.408.408 0 0 1 .018.062l.022.09.017.067c.011.041.013.049.042.09.028.04.075.092.15.092.058 0 .059-.051.059-.07C.446.293.403.182.387.14.376.112.372.103.372.086.372.033.416 0 .467 0c.1 0 .144.138.144.153 0 .013-.013.013-.016.013C.581.166.58.16.576.149.553.069.51.028.47.028.449.028.445.042.445.063c0 .023.005.036.023.081a.733.733 0 0 1 .053.193c0 .097-.077.114-.13.114A.213.213 0 0 1 .222.36C.215.429.156.451.115.451.072.451.049.42.036.397A.355.355 0 0 1 0 .298C0 .285.014.285.017.285c.014 0 .015.003.022.03.015.059.034.108.073.108.026 0 .033-.022.033-.049A.442.442 0 0 0 .129.291a3.78 3.78 0 0 1-.022-.09L.075.073z"/></symbol><use xlink:href="#b" transform="matrix(6.9738 0 0 -6.9738 61.188 6.638)"/><use xlink:href="#a" transform="matrix(9.9626 0 0 -9.9626 52.751 66.876)"/><symbol id="c"><path d="M.387.091C.382.071.373.037.373.032.373.01.391 0 .407 0a.05.05 0 0 1 .039.022.408.408 0 0 1 .018.062l.022.09.017.067c.011.043.011.045.031.076.032.049.082.106.16.106.056 0 .059-.046.059-.07C.753.293.71.182.694.14.683.112.679.103.679.086.679.033.723 0 .774 0c.1 0 .144.138.144.153 0 .013-.013.013-.016.013C.888.166.887.16.883.149.86.069.817.028.777.028.756.028.752.042.752.063c0 .023.005.036.023.081a.733.733 0 0 1 .053.193c0 .016 0 .058-.037.087a.148.148 0 0 1-.093.027C.608.451.553.392.521.35.513.435.442.451.391.451A.213.213 0 0 1 .222.36C.215.429.156.451.115.451.072.451.049.42.036.397A.355.355 0 0 1 0 .298C0 .285.014.285.017.285c.014 0 .015.003.022.03.015.059.034.108.073.108.026 0 .033-.022.033-.049A.442.442 0 0 0 .129.291a3.78 3.78 0 0 1-.022-.09L.075.073a.378.378 0 0 1-.01-.041C.065.01.083 0 .099 0a.05.05 0 0 1 .039.022.408.408 0 0 1 .018.062l.022.09.017.067c.011.041.013.049.042.09.028.04.075.092.15.092.058 0 .059-.051.059-.07A.345.345 0 0 0 .429.259L.387.091z"/></symbol><use xlink:href="#c" transform="matrix(6.9738 0 0 -6.9738 60.115 63.33)"/><use xlink:href="#a" transform="matrix(9.9626 0 0 -9.9626 109.444 66.876)"/><use xlink:href="#c" transform="matrix(6.9738 0 0 -6.9738 116.808 63.33)"/><use xlink:href="#a" transform="matrix(9.9626 0 0 -9.9626 52.751 123.569)"/><use xlink:href="#c" transform="matrix(6.9738 0 0 -6.9738 60.115 120.024)"/><use xlink:href="#a" transform="matrix(9.9626 0 0 -9.9626 109.444 123.569)"/><use xlink:href="#c" transform="matrix(6.9738 0 0 -6.9738 116.808 120.024)"/><use xlink:href="#a" transform="matrix(9.9626 0 0 -9.9626 166.137 123.569)"/><use xlink:href="#c" transform="matrix(6.9738 0 0 -6.9738 173.5 120.024)"/><use xlink:href="#a" transform="matrix(9.9626 0 0 -9.9626 52.751 180.262)"/><use xlink:href="#c" transform="matrix(6.9738 0 0 -6.9738 60.115 176.717)"/><use xlink:href="#a" transform="matrix(9.9626 0 0 -9.9626 166.137 180.262)"/><use xlink:href="#c" transform="matrix(6.9738 0 0 -6.9738 173.5 176.717)"/><path stroke-width=".399" stroke-miterlimit="10" fill="none" stroke="#000" d="M59.974 15.256v36.622"/><path d="m59.974 54.374 1.346-3.571-1.346 1.174-1.346-1.174z"/><path stroke-width=".399" stroke-miterlimit="10" fill="none" stroke="#000" d="m59.974 54.374 1.346-3.571-1.346 1.174-1.346-1.174z"/><symbol id="d"><path d="M.12.048C.116.035.115.033.115.028.115.006.134 0 .144 0c.005 0 .027.003.037.026.003.008.008.041.035.183C.225.208.232.207.249.207c.166 0 .32.157.32.315C.569.6.53.66.455.66.31.66.25.466.19.271.082.291.026.347.026.419c0 .028.023.138.083.207.008.009.008.011.008.013 0 .004-.002.01-.012.01C.077.649 0 .504 0 .408 0 .314.066.241.173.216L.12.048m.138.217L.24.266C.228.266.227.267.227.27l.02.108c.031.128.109.224.198.224C.514.602.541.548.541.5.541.387.412.265.258.265z"/></symbol><use xlink:href="#d" transform="matrix(9.9626 0 0 -9.9626 63.991 38.447)"/><path stroke-width=".399" stroke-miterlimit="10" fill="none" stroke="#000" d="M68.478 63.446H105.1"/><path d="m107.596 63.446-3.571-1.346 1.174 1.346-1.174 1.345z"/><path stroke-width=".399" stroke-miterlimit="10" fill="none" stroke="#000" d="m107.596 63.446-3.571-1.346 1.174 1.346-1.174 1.345z"/><symbol id="e"><path d="M.003.043 0 .027C0 .012.011 0 .028 0c.021 0 .033.018.035.021C.068.03.1.164.127.272.147.232.179.205.226.205c.117 0 .246.141.246.29 0 .106-.066.163-.139.163-.097 0-.202-.1-.232-.222L.003.043m.222.184c-.07 0-.086.08-.086.089l.008.037a.749.749 0 0 0 .06.188C.25.614.3.636.331.636.368.636.4.607.4.538A.606.606 0 0 0 .344.322C.311.259.263.227.225.227z"/></symbol><use xlink:href="#e" transform="matrix(9.9626 0 0 -9.9626 81.823 60.14)"/><symbol id="f"><path d="M.226.636c0 .027-.002.028-.03.028C.132.601.041.6 0 .6V.564c.024 0 .09 0 .145.028v-.51c0-.033 0-.046-.1-.046H.007V0l.178.004L.364 0v.036H.326c-.1 0-.1.013-.1.046v.554z"/></symbol><use xlink:href="#f" transform="matrix(6.9738 0 0 -6.9738 87.435 59.482)"/><use xlink:href="#f" transform="matrix(6.9738 0 0 -6.9738 91.41 59.482)"/><path stroke-width=".399" stroke-miterlimit="10" fill="none" stroke="#000" d="M116.668 75.014v33.557"/><path d="m116.668 72.517-1.346 3.571 1.346-1.174 1.345 1.174z"/><path stroke-width=".399" stroke-miterlimit="10" fill="none" stroke="#000" d="m116.668 72.517-1.346 3.571 1.346-1.174 1.345 1.174z"/><path d="m116.668 111.068 1.345-3.572-1.345 1.175-1.346-1.175z"/><path stroke-width=".399" stroke-miterlimit="10" fill="none" stroke="#000" d="m116.668 111.068 1.345-3.572-1.345 1.175-1.346-1.175z"/><symbol id="g"><path d="M.48.384c.013 0 .049 0 .049.034C.529.442.508.442.49.442H.262C.111.442 0 .277 0 .158 0 .07.059 0 .15 0c.118 0 .251.121.251.275 0 .017 0 .065-.031.109h.11M.151.022C.102.022.062.058.062.13c0 .03.012.112.047.171a.16.16 0 0 0 .136.083C.329.384.337.318.337.287a.38.38 0 0 0-.054-.18C.244.048.19.022.151.022z"/></symbol><use xlink:href="#g" transform="matrix(9.9626 0 0 -9.9626 99.392 93.299)"/><symbol id="h"><path d="M.442.182H.408C.405.16.395.101.382.091.374.085.297.085.283.085H.099a3.5 3.5 0 0 0 .2.168c.074.059.143.121.143.216C.442.59.336.664.208.664.084.664 0 .577 0 .485 0 .434.043.429.053.429c.024 0 .053.017.053.053C.106.5.099.535.047.535a.157.157 0 0 0 .146.093c.1 0 .152-.078.152-.159C.345.382.283.313.251.277L.01.039C0 .03 0 .028 0 0h.412l.03.182z"/></symbol><symbol id="i"><path d="M.219.354C.297.354.353.3.353.193.353.069.281.032.223.032c-.04 0-.128.011-.17.07C.1.104.111.137.111.158a.054.054 0 0 1-.055.055C.028.213 0 .196 0 .155 0 .061.104 0 .225 0 .364 0 .46.093.46.193.46.271.396.349.286.372.391.41.429.485.429.546c0 .079-.091.138-.202.138C.116.684.031.63.031.55c0-.034.022-.053.052-.053a.05.05 0 0 1 .051.051c0 .029-.02.05-.051.052.035.044.104.055.141.055.045 0 .108-.022.108-.109a.192.192 0 0 0-.04-.119C.259.389.231.387.181.384L.149.381C.147.381.139.379.139.368c0-.014.009-.014.026-.014h.054z"/></symbol><use xlink:href="#h" transform="matrix(6.9738 0 0 -6.9738 105.145 94.683)"/><use xlink:href="#i" transform="matrix(6.9738 0 0 -6.9738 109.058 94.822)"/><path stroke-width=".399" stroke-miterlimit="10" fill="none" stroke="#000" d="M125.172 120.14h36.621"/><path d="m164.29 120.14-3.572-1.346 1.175 1.345-1.175 1.346z"/><path stroke-width=".399" stroke-miterlimit="10" fill="none" stroke="#000" d="m164.29 120.14-3.572-1.346 1.175 1.345-1.175 1.346z"/><use xlink:href="#e" transform="matrix(9.9626 0 0 -9.9626 138.516 116.833)"/><use xlink:href="#f" transform="matrix(6.9738 0 0 -6.9738 144.128 116.175)"/><use xlink:href="#h" transform="matrix(6.9738 0 0 -6.9738 147.782 116.175)"/><path stroke-width=".399" stroke-miterlimit="10" fill="none" stroke="#000" d="M173.361 131.707v33.558"/><path d="m173.361 129.21-1.345 3.572 1.345-1.174 1.346 1.174z"/><path stroke-width=".399" stroke-miterlimit="10" fill="none" stroke="#000" d="m173.361 129.21-1.345 3.572 1.345-1.174 1.346 1.174z"/><path d="m173.361 167.761 1.346-3.57-1.346 1.173-1.345-1.174z"/><path stroke-width=".399" stroke-miterlimit="10" fill="none" stroke="#000" d="m173.361 167.761 1.346-3.57-1.346 1.173-1.345-1.174z"/><use xlink:href="#g" transform="matrix(9.9626 0 0 -9.9626 156.085 149.992)"/><symbol id="j"><path d="M.49.164V.2H.379v.446c0 .021 0 .028-.022.028-.012 0-.016 0-.026-.014L0 .2V.164h.294V.082c0-.034 0-.046-.081-.046H.186V0l.15.004L.487 0v.036H.46C.379.036.379.048.379.082v.082H.49M.301.566V.2H.037l.264.366z"/></symbol><use xlink:href="#i" transform="matrix(6.9738 0 0 -6.9738 161.776 151.516)"/><use xlink:href="#j" transform="matrix(6.9738 0 0 -6.9738 165.646 151.376)"/><path stroke-width=".399" stroke-miterlimit="10" fill="none" stroke="#000" d="M59.974 75.014v33.557"/><path d="m59.974 72.517-1.346 3.571 1.346-1.174 1.346 1.174z"/><path stroke-width=".399" stroke-miterlimit="10" fill="none" stroke="#000" d="m59.974 72.517-1.346 3.571 1.346-1.174 1.346 1.174z"/><path d="m59.974 111.068 1.346-3.572-1.346 1.175-1.346-1.175z"/><path stroke-width=".399" stroke-miterlimit="10" fill="none" stroke="#000" d="m59.974 111.068 1.346-3.572-1.346 1.175-1.346-1.175z"/><use xlink:href="#g" transform="matrix(9.9626 0 0 -9.9626 63.872 93.299)"/><use xlink:href="#h" transform="matrix(6.9738 0 0 -6.9738 69.625 94.683)"/><use xlink:href="#i" transform="matrix(6.9738 0 0 -6.9738 73.538 94.822)"/><path stroke-width=".399" stroke-miterlimit="10" fill="none" stroke="#000" d="M59.974 131.707v33.558"/><path d="m59.974 129.21-1.346 3.572 1.346-1.174 1.346 1.174z"/><path stroke-width=".399" stroke-miterlimit="10" fill="none" stroke="#000" d="m59.974 129.21-1.346 3.572 1.346-1.174 1.346 1.174z"/><path d="m59.974 167.761 1.346-3.57-1.346 1.173-1.346-1.174z"/><path stroke-width=".399" stroke-miterlimit="10" fill="none" stroke="#000" d="m59.974 167.761 1.346-3.57-1.346 1.173-1.346-1.174z"/><use xlink:href="#g" transform="matrix(9.9626 0 0 -9.9626 63.872 149.992)"/><use xlink:href="#i" transform="matrix(6.9738 0 0 -6.9738 69.563 151.516)"/><use xlink:href="#j" transform="matrix(6.9738 0 0 -6.9738 73.433 151.376)"/><path stroke-width=".399" stroke-miterlimit="10" fill="none" stroke="#929292" d="M68.478 120.14H105.1"/><path d="m107.596 120.14-3.571-1.346 1.174 1.345-1.174 1.346z" fill="#929292"/><path stroke-width=".399" stroke-miterlimit="10" fill="none" stroke="#929292" d="m107.596 120.14-3.571-1.346 1.174 1.345-1.174 1.346z"/><use xlink:href="#g" transform="matrix(9.9626 0 0 -9.9626 67.77 114.79)" fill="#929292"/><use xlink:href="#h" transform="matrix(6.9738 0 0 -6.9738 73.523 116.175)" fill="#929292"/><use xlink:href="#i" transform="matrix(6.9738 0 0 -6.9738 77.436 116.314)" fill="#929292"/><use xlink:href="#e" transform="matrix(9.9626 0 0 -9.9626 81.823 116.833)" fill="#929292"/><use xlink:href="#f" transform="matrix(6.9738 0 0 -6.9738 87.435 116.175)" fill="#929292"/><use xlink:href="#f" transform="matrix(6.9738 0 0 -6.9738 91.41 116.175)" fill="#929292"/><use xlink:href="#g" transform="matrix(9.9626 0 0 -9.9626 95.495 114.79)" fill="#929292"/><use xlink:href="#h" transform="matrix(6.9738 0 0 -6.9738 101.248 116.175)" fill="#929292"/><use xlink:href="#i" transform="matrix(6.9738 0 0 -6.9738 105.16 116.314)" fill="#929292"/><path stroke-width=".399" stroke-miterlimit="10" fill="none" stroke="#929292" d="M68.478 175.415h93.315"/><path d="m164.29 175.415-3.572-1.345 1.175 1.345-1.175 1.346z" fill="#929292"/><path stroke-width=".399" stroke-miterlimit="10" fill="none" stroke="#929292" d="m164.29 175.415-3.572-1.345 1.175 1.345-1.175 1.346z"/><use xlink:href="#g" transform="matrix(9.9626 0 0 -9.9626 75.187 170.066)" fill="#929292"/><use xlink:href="#i" transform="matrix(6.9738 0 0 -6.9738 80.878 171.59)" fill="#929292"/><use xlink:href="#j" transform="matrix(6.9738 0 0 -6.9738 84.748 171.451)" fill="#929292"/><use xlink:href="#e" transform="matrix(9.9626 0 0 -9.9626 89.24 172.108)" fill="#929292"/><use xlink:href="#f" transform="matrix(6.9738 0 0 -6.9738 94.852 171.451)" fill="#929292"/><use xlink:href="#h" transform="matrix(6.9738 0 0 -6.9738 98.506 171.451)" fill="#929292"/><use xlink:href="#g" transform="matrix(9.9626 0 0 -9.9626 102.912 170.066)" fill="#929292"/><use xlink:href="#h" transform="matrix(6.9738 0 0 -6.9738 108.665 171.451)" fill="#929292"/><use xlink:href="#i" transform="matrix(6.9738 0 0 -6.9738 112.578 171.59)" fill="#929292"/><use xlink:href="#e" transform="matrix(9.9626 0 0 -9.9626 116.965 172.108)" fill="#929292"/><use xlink:href="#f" transform="matrix(6.9738 0 0 -6.9738 122.577 171.451)" fill="#929292"/><use xlink:href="#f" transform="matrix(6.9738 0 0 -6.9738 126.552 171.451)" fill="#929292"/><use xlink:href="#g" transform="matrix(9.9626 0 0 -9.9626 130.637 170.066)" fill="#929292"/><use xlink:href="#h" transform="matrix(6.9738 0 0 -6.9738 136.39 171.451)" fill="#929292"/><use xlink:href="#i" transform="matrix(6.9738 0 0 -6.9738 140.303 171.59)" fill="#929292"/><use xlink:href="#g" transform="matrix(9.9626 0 0 -9.9626 144.77 170.066)" fill="#929292"/><use xlink:href="#i" transform="matrix(6.9738 0 0 -6.9738 150.46 171.59)" fill="#929292"/><use xlink:href="#j" transform="matrix(6.9738 0 0 -6.9738 154.331 171.451)" fill="#929292"/><path stroke-width=".399" stroke-miterlimit="10" fill="none" stroke="red" d="M68.478 6.752c104.883 0 161.577 113.387 113.003 161.961"/><path d="m179.716 170.479 3.476-1.574-1.782-.121-.12-1.782z" fill="red"/><path stroke-width=".39899601" stroke-miterlimit="10" fill="none" stroke="red" d="m179.716 170.479 3.476-1.574-1.782-.121-.12-1.782z"/><use xlink:href="#d" transform="matrix(9.9626 0 0 -9.9626 186.21 65.558)" fill="red"/><symbol id="k"><path d="M.242.431a.07.07 0 0 1 .009.032c0 .031-.028.055-.059.055C.154.518.142.487.137.471L.005.038A.142.142 0 0 1 0 .022C0 .01.031 0 .039 0c.007 0 .008.002.015.017l.188.414z"/></symbol><use xlink:href="#k" transform="matrix(6.9738 0 0 -6.9738 192.563 59.485)" fill="red"/><path stroke-width=".399" stroke-miterlimit="10" fill="none" stroke="red" d="M71.542 178.25h93.315"/><path d="m69.046 178.25 3.57 1.346-1.174-1.346 1.175-1.345z" fill="red"/><path stroke-width=".399" stroke-miterlimit="10" fill="none" stroke="red" d="m69.046 178.25 3.57 1.346-1.174-1.346 1.175-1.345z"/><use xlink:href="#g" transform="matrix(9.9626 0 0 -9.9626 72.932 190.634)" fill="red"/><use xlink:href="#i" transform="matrix(6.9738 0 0 -6.9738 78.623 192.157)" fill="red"/><use xlink:href="#j" transform="matrix(6.9738 0 0 -6.9738 82.493 192.018)" fill="red"/><use xlink:href="#g" transform="matrix(9.9626 0 0 -9.9626 87.065 190.634)" fill="red"/><use xlink:href="#h" transform="matrix(6.9738 0 0 -6.9738 92.818 192.018)" fill="red"/><use xlink:href="#i" transform="matrix(6.9738 0 0 -6.9738 96.73 192.157)" fill="red"/><use xlink:href="#e" transform="matrix(9.9626 0 0 -9.9626 101.119 192.676)" fill="red"/><symbol id="l"><path d="M.636 0c.016 0 .04 0 .04.024 0 .025-.023.025-.04.025H.04c-.016 0-.04 0-.04-.024C0 0 .023 0 .04 0h.596z"/></symbol><use xlink:href="#l" transform="matrix(6.9738 0 0 -6.9738 106.723 184.686)" fill="red"/><use xlink:href="#f" transform="matrix(6.9738 0 0 -6.9738 112.957 186.262)" fill="red"/><use xlink:href="#f" transform="matrix(6.9738 0 0 -6.9738 106.73 193.18)" fill="red"/><use xlink:href="#f" transform="matrix(6.9738 0 0 -6.9738 110.705 193.18)" fill="red"/><use xlink:href="#g" transform="matrix(9.9626 0 0 -9.9626 117.045 190.634)" fill="red"/><use xlink:href="#h" transform="matrix(6.9738 0 0 -6.9738 122.798 192.018)" fill="red"/><use xlink:href="#i" transform="matrix(6.9738 0 0 -6.9738 126.71 192.157)" fill="red"/><use xlink:href="#e" transform="matrix(9.9626 0 0 -9.9626 131.099 192.676)" fill="red"/><use xlink:href="#l" transform="matrix(6.9738 0 0 -6.9738 136.704 184.686)" fill="red"/><use xlink:href="#f" transform="matrix(6.9738 0 0 -6.9738 142.937 186.262)" fill="red"/><use xlink:href="#f" transform="matrix(6.9738 0 0 -6.9738 136.711 193.18)" fill="red"/><use xlink:href="#h" transform="matrix(6.9738 0 0 -6.9738 140.365 193.18)" fill="red"/><use xlink:href="#g" transform="matrix(9.9626 0 0 -9.9626 147.026 190.634)" fill="red"/><use xlink:href="#i" transform="matrix(6.9738 0 0 -6.9738 152.716 192.157)" fill="red"/><use xlink:href="#j" transform="matrix(6.9738 0 0 -6.9738 156.586 192.018)" fill="red"/><path stroke-width=".399" stroke-miterlimit="10" fill="none" stroke="red" d="M54.305 171.164c-22.678-22.678-22.678-79.372-2.167-99.883"/><path d="m53.903 69.516-3.476 1.574 1.782.121.12 1.782z" fill="red"/><path stroke-width=".39899601" stroke-miterlimit="10" fill="none" stroke="red" d="m53.903 69.516-3.476 1.574 1.782.121.12 1.782z"/><use xlink:href="#g" transform="matrix(9.9626 0 0 -9.9626 3.7 121.645)" fill="red"/><use xlink:href="#h" transform="matrix(6.9738 0 0 -6.9738 9.452 123.03)" fill="red"/><use xlink:href="#i" transform="matrix(6.9738 0 0 -6.9738 13.365 123.17)" fill="red"/><use xlink:href="#g" transform="matrix(9.9626 0 0 -9.9626 17.833 121.645)" fill="red"/><use xlink:href="#i" transform="matrix(6.9738 0 0 -6.9738 23.524 123.17)" fill="red"/><use xlink:href="#j" transform="matrix(6.9738 0 0 -6.9738 27.394 123.03)" fill="red"/></svg>