<svg xmlns="http://www.w3.org/2000/svg" xmlns:xlink="http://www.w3.org/1999/xlink" width="104.681" height="106.48" viewBox="0 0 78.511 79.86"><symbol id="a"><path d="M.572.591C.621.669.663.672.7.674c.012.001.013.018.013.019C.713.701.708.705.7.705L.618.702.519.705C.513.705.5.705.5.686.5.675.509.674.516.674.543.672.562.662.562.641.562.626.547.604.547.603L.24.115.172.644c0 .017.023.03.069.03.014 0 .025 0 .025.02 0 .009-.008.011-.014.011L.128.702.073.703.019.705C.012.705 0 .705 0 .686 0 .674.009.674.025.674.081.674.082.665.085.64L.164.023C.167.003.171 0 .184 0 .2 0 .204.005.212.018l.36.573z"/></symbol><use xlink:href="#a" transform="matrix(9.9626 0 0 -9.9626 3.879 18.571)"/><symbol id="b"><path d="M.226.636c0 .027-.002.028-.03.028C.132.601.041.6 0 .6V.564c.024 0 .09 0 .145.028v-.51c0-.033 0-.046-.1-.046H.007V0l.178.004L.364 0v.036H.326c-.1 0-.1.013-.1.046v.554z"/></symbol><use xlink:href="#b" transform="matrix(6.9738 0 0 -6.9738 9.892 19.847)"/><use xlink:href="#a" transform="matrix(9.9626 0 0 -9.9626 60.57 18.571)"/><symbol id="c"><path d="M.442.182H.408C.405.16.395.101.382.091.374.085.297.085.283.085H.099a3.5 3.5 0 0 0 .2.168c.074.059.143.121.143.216C.442.59.336.664.208.664.084.664 0 .577 0 .485 0 .434.043.429.053.429c.024 0 .053.017.053.053C.106.5.099.535.047.535a.157.157 0 0 0 .146.093c.1 0 .152-.078.152-.159C.345.382.283.313.251.277L.01.039C0 .03 0 .028 0 0h.412l.03.182z"/></symbol><use xlink:href="#c" transform="matrix(6.9738 0 0 -6.9738 66.264 19.847)"/><use xlink:href="#a" transform="matrix(9.9626 0 0 -9.9626 60.57 75.264)"/><symbol id="d"><path d="M.219.354C.297.354.353.3.353.193.353.069.281.032.223.032c-.04 0-.128.011-.17.07C.1.104.111.137.111.158a.054.054 0 0 1-.055.055C.028.213 0 .196 0 .155 0 .061.104 0 .225 0 .364 0 .46.093.46.193.46.271.396.349.286.372.391.41.429.485.429.546c0 .079-.091.138-.202.138C.116.684.031.63.031.55c0-.034.022-.053.052-.053a.05.05 0 0 1 .051.051c0 .029-.02.05-.051.052.035.044.104.055.141.055.045 0 .108-.022.108-.109a.192.192 0 0 0-.04-.119C.259.389.231.387.181.384L.149.381C.147.381.139.379.139.368c0-.014.009-.014.026-.014h.054z"/></symbol><use xlink:href="#d" transform="matrix(6.9738 0 0 -6.9738 66.202 76.678)"/><path stroke-width=".399" stroke-miterlimit="10" fill="none" stroke="#000" d="M16.965 15.695h36.622"/><path d="m56.083 15.695-3.571-1.346 1.174 1.346-1.174 1.346z"/><path stroke-width=".399" stroke-miterlimit="10" fill="none" stroke="#000" d="m56.083 15.695-3.571-1.346 1.174 1.346-1.174 1.346z"/><symbol id="e"><path d="m.453.873.003.015c0 .01-.007.011-.012.011-.01 0-.011-.002-.015-.02L.263.218C.187.227.149.264.149.33c0 .02 0 .046.054.186.004.012.011.029.011.049a.08.08 0 0 1-.082.082C.037.647 0 .502 0 .493c0-.01.01-.01.012-.01.01 0 .011.002.016.018.027.095.067.124.101.124.008 0 .025 0 .025-.032C.154.567.144.542.131.507.083.381.083.355.083.338c0-.095.078-.136.174-.142C.249.16.249.158.235.105A3.07 3.07 0 0 1 .212.01c0-.001 0-.01.012-.01.002 0 .007 0 .009.004a.174.174 0 0 1 .012.041l.038.149c.037 0 .125 0 .219.107.041.046.062.09.073.12a.671.671 0 0 1 .031.156c0 .056-.027.07-.044.07-.025 0-.05-.026-.05-.048C.512.586.518.58.527.572A.114.114 0 0 0 .563.487C.563.423.511.341.476.305.388.216.324.216.288.216l.165.657z"/></symbol><use xlink:href="#e" transform="matrix(9.9626 0 0 -9.9626 33.673 12.28)"/><path stroke-width=".399" stroke-miterlimit="10" fill="none" stroke="#000" d="M65.155 24.2v36.62"/><path d="m65.155 63.317 1.345-3.571-1.345 1.174-1.346-1.174z"/><path stroke-width=".399" stroke-miterlimit="10" fill="none" stroke="#000" d="m65.155 63.317 1.345-3.571-1.345 1.174-1.346-1.174z"/><symbol id="f"><path d="M.12.048C.116.035.115.033.115.028.115.006.134 0 .144 0c.005 0 .027.003.037.026.003.008.008.041.035.183C.225.208.232.207.249.207c.166 0 .32.157.32.315C.569.6.53.66.455.66.31.66.25.466.19.271.082.291.026.347.026.419c0 .028.023.138.083.207.008.009.008.011.008.013 0 .004-.002.01-.012.01C.077.649 0 .504 0 .408 0 .314.066.241.173.216L.12.048m.138.217L.24.266C.228.266.227.267.227.27l.02.108c.031.128.109.224.198.224C.514.602.541.548.541.5.541.387.412.265.258.265z"/></symbol><use xlink:href="#f" transform="matrix(9.9626 0 0 -9.9626 69.172 47.39)"/><path stroke-width=".399" stroke-miterlimit="10" fill="none" stroke="#000" d="M14.13 21.364 57.32 64.553"/><path d="m59.084 66.318-1.574-3.477-.12 1.782-1.783.121z"/><path stroke-width=".39899601" stroke-miterlimit="10" fill="none" stroke="#000" d="m59.084 66.318-1.574-3.477-.12 1.782-1.783.121z"/><use xlink:href="#f" transform="matrix(9.9626 0 0 -9.9626 11.012 56.652)"/><symbol id="g"><path d="M.389.194a.195.195 0 0 1-.194.194A.196.196 0 0 1 0 .194C0 .088.087 0 .195 0 .3 0 .389.087.389.194M.195.04a.154.154 0 1 0-.001.309A.154.154 0 0 0 .195.04z"/></symbol><use xlink:href="#g" transform="matrix(9.9626 0 0 -9.9626 19.793 53.922)"/><use xlink:href="#e" transform="matrix(9.9626 0 0 -9.9626 26.73 56.522)"/></svg>