<svg xmlns="http://www.w3.org/2000/svg" xmlns:xlink="http://www.w3.org/1999/xlink" width="178.289" height="113.941" viewBox="0 0 133.717 85.456"><symbol id="a"><path d="M.252.314h.036l.15-.232C.448.066.472.027.483.012.49 0 .493 0 .516 0h.138c.018 0 .033 0 .033.018 0 .008-.006.015-.015.017C.635.043.586.109.562.141.555.151.505.217.438.325c.089.016.175.054.175.173 0 .139-.147.187-.265.187H.034C.016.685 0 .685 0 .667 0 .65.019.65.027.65.084.65.089.643.089.593V.092C.089.042.084.035.027.035.019.035 0 .035 0 .018 0 0 .016 0 .034 0h.274c.018 0 .033 0 .033.018 0 .017-.017.017-.028.017-.057 0-.061.008-.061.057v.222m.193.049C.473.4.476.453.476.497a.226.226 0 0 1-.038.142C.479.63.578.599.578.498.578.433.548.382.445.363M.252.596c0 .021 0 .054.062.054C.399.65.441.615.441.497.441.368.41.349.252.349v.247M.116.035A.154.154 0 0 1 .124.09v.505c0 .01 0 .037-.008.055H.23C.217.634.217.614.217.599V.09c0-.01 0-.037.008-.055H.116m.213.279.019.002C.363.316.385.318.4.32.415.296.523.118.606.035H.509l-.18.279z"/></symbol><use xlink:href="#a" transform="matrix(9.9626 0 0 -9.9626 3.48 19.128)"/><symbol id="b"><path d="M.075.073a.378.378 0 0 1-.01-.041C.065.01.083 0 .099 0a.05.05 0 0 1 .039.022.408.408 0 0 1 .018.062l.022.09.017.067c.011.041.013.049.042.09.028.04.075.092.15.092.058 0 .059-.051.059-.07C.446.293.403.182.387.14.376.112.372.103.372.086.372.033.416 0 .467 0c.1 0 .144.138.144.153 0 .013-.013.013-.016.013C.581.166.58.16.576.149.553.069.51.028.47.028.449.028.445.042.445.063c0 .023.005.036.023.081a.733.733 0 0 1 .053.193c0 .097-.077.114-.13.114A.213.213 0 0 1 .222.36C.215.429.156.451.115.451.072.451.049.42.036.397A.355.355 0 0 1 0 .298C0 .285.014.285.017.285c.014 0 .015.003.022.03.015.059.034.108.073.108.026 0 .033-.022.033-.049A.442.442 0 0 0 .129.291a3.78 3.78 0 0 1-.022-.09L.075.073z"/></symbol><use xlink:href="#b" transform="matrix(6.9738 0 0 -6.9738 10.844 15.582)"/><use xlink:href="#a" transform="matrix(9.9626 0 0 -9.9626 60.684 19.128)"/><symbol id="c"><path d="M.448.606.45.621C.45.627.446.635.437.635.427.635.385.601.365.569a.12.12 0 0 1-.107.066C.13.635 0 .494 0 .35 0 .253.065.184.151.184c.057 0 .104.036.126.055A17.087 17.087 0 0 1 .241.093C.227.038.226.037.164.036c-.012 0-.026 0-.026-.022C.138.008.143 0 .153 0c.033 0 .07.004.104.004C.291.004.333 0 .364 0c.009 0 .02.003.02.022C.384.036.37.036.358.036c-.022 0-.049 0-.049.012 0 .003 0 .005.005.022l.134.536M.297.32C.292.303.292.301.279.285.24.239.193.212.154.212.117.212.081.238.081.309c0 .053.029.163.052.203.046.08.097.095.125.095C.328.607.347.53.347.52L.344.505.297.32z"/></symbol><use xlink:href="#c" transform="matrix(6.9738 0 0 -6.9738 68.145 16.865)"/><use xlink:href="#a" transform="matrix(9.9626 0 0 -9.9626 60.581 75.821)"/><symbol id="d"><path d="M.076.072C.069.044.067.036.027.036.014.036 0 .036 0 .015 0 .004.009 0 .014 0 .04 0 .073.004.1.004.134.004.172 0 .205 0c.009 0 .02.003.02.022 0 .014-.014.014-.026.014-.022 0-.049 0-.049.012 0 .005.007.031.011.046.012.053.026.107.037.149A.118.118 0 0 1 .301.184c.122 0 .257.135.257.284 0 .117-.081.167-.15.167C.346.635.293.593.266.565.249.622.193.635.163.635.124.635.1.609.084.582a.383.383 0 0 1-.036-.1c0-.013.014-.013.017-.013.014 0 .015.003.022.03.015.058.034.108.073.108.026 0 .033-.022.033-.049A.2.2 0 0 0 .19.528L.076.072m.189.443c.058.077.108.092.14.092C.444.607.478.578.478.51A.58.58 0 0 0 .426.309C.401.26.352.212.301.212.23.212.212.289.212.299l.003.015.05.201z"/></symbol><use xlink:href="#d" transform="matrix(6.9738 0 0 -6.9738 67.611 73.558)"/><use xlink:href="#a" transform="matrix(9.9626 0 0 -9.9626 115.793 75.821)"/><symbol id="e"><path d="M.387.091C.382.071.373.037.373.032.373.01.391 0 .407 0a.05.05 0 0 1 .039.022.408.408 0 0 1 .018.062l.022.09.017.067c.011.043.011.045.031.076.032.049.082.106.16.106.056 0 .059-.046.059-.07C.753.293.71.182.694.14.683.112.679.103.679.086.679.033.723 0 .774 0c.1 0 .144.138.144.153 0 .013-.013.013-.016.013C.888.166.887.16.883.149.86.069.817.028.777.028.756.028.752.042.752.063c0 .023.005.036.023.081a.733.733 0 0 1 .053.193c0 .016 0 .058-.037.087a.148.148 0 0 1-.093.027C.608.451.553.392.521.35.513.435.442.451.391.451A.213.213 0 0 1 .222.36C.215.429.156.451.115.451.072.451.049.42.036.397A.355.355 0 0 1 0 .298C0 .285.014.285.017.285c.014 0 .015.003.022.03.015.059.034.108.073.108.026 0 .033-.022.033-.049A.442.442 0 0 0 .129.291a3.78 3.78 0 0 1-.022-.09L.075.073a.378.378 0 0 1-.01-.041C.065.01.083 0 .099 0a.05.05 0 0 1 .039.022.408.408 0 0 1 .018.062l.022.09.017.067c.011.041.013.049.042.09.028.04.075.092.15.092.058 0 .059-.051.059-.07A.345.345 0 0 0 .429.259L.387.091z"/></symbol><use xlink:href="#e" transform="matrix(6.9738 0 0 -6.9738 123.157 72.275)"/><path stroke-width=".399" stroke-miterlimit="10" fill="none" stroke="#000" d="M18.134 15.696h36.622"/><path d="m57.252 15.696-3.571-1.346 1.174 1.346-1.174 1.346z"/><path stroke-width=".399" stroke-miterlimit="10" fill="none" stroke="#000" d="m57.252 15.696-3.571-1.346 1.174 1.346-1.174 1.346z"/><symbol id="f"><path d="m.453.873.003.015c0 .01-.007.011-.012.011-.01 0-.011-.002-.015-.02L.263.218C.187.227.149.264.149.33c0 .02 0 .046.054.186.004.012.011.029.011.049a.08.08 0 0 1-.082.082C.037.647 0 .502 0 .493c0-.01.01-.01.012-.01.01 0 .011.002.016.018.027.095.067.124.101.124.008 0 .025 0 .025-.032C.154.567.144.542.131.507.083.381.083.355.083.338c0-.095.078-.136.174-.142C.249.16.249.158.235.105A3.07 3.07 0 0 1 .212.01c0-.001 0-.01.012-.01.002 0 .007 0 .009.004a.174.174 0 0 1 .012.041l.038.149c.037 0 .125 0 .219.107.041.046.062.09.073.12a.671.671 0 0 1 .031.156c0 .056-.027.07-.044.07-.025 0-.05-.026-.05-.048C.512.586.518.58.527.572A.114.114 0 0 0 .563.487C.563.423.511.341.476.305.388.216.324.216.288.216l.165.657z"/></symbol><use xlink:href="#f" transform="matrix(9.9626 0 0 -9.9626 34.842 12.281)"/><path stroke-width=".399" stroke-miterlimit="10" fill="none" stroke="#000" d="M66.324 24.2v36.622"/><path d="m66.324 63.318 1.345-3.571-1.345 1.174-1.346-1.174z"/><path stroke-width=".399" stroke-miterlimit="10" fill="none" stroke="#000" d="m66.324 63.318 1.345-3.571-1.345 1.174-1.346-1.174z"/><symbol id="g"><path d="M.003.043 0 .027C0 .012.011 0 .028 0c.021 0 .033.018.035.021C.068.03.1.164.127.272.147.232.179.205.226.205c.117 0 .246.141.246.29 0 .106-.066.163-.139.163-.097 0-.202-.1-.232-.222L.003.043m.222.184c-.07 0-.086.08-.086.089l.008.037a.749.749 0 0 0 .06.188C.25.614.3.636.331.636.368.636.4.607.4.538A.606.606 0 0 0 .344.322C.311.259.263.227.225.227z"/></symbol><use xlink:href="#g" transform="matrix(9.9626 0 0 -9.9626 57.95 47.37)"/><path stroke-width=".399" stroke-miterlimit="10" fill="none" stroke="#000" d="M74.828 72.39h36.621"/><path d="m113.946 72.39-3.572-1.346 1.175 1.346-1.175 1.345z"/><path stroke-width=".399" stroke-miterlimit="10" fill="none" stroke="#000" d="m113.946 72.39-3.572-1.346 1.175 1.346-1.175 1.345z"/><symbol id="h"><path d="M.12.048C.116.035.115.033.115.028.115.006.134 0 .144 0c.005 0 .027.003.037.026.003.008.008.041.035.183C.225.208.232.207.249.207c.166 0 .32.157.32.315C.569.6.53.66.455.66.31.66.25.466.19.271.082.291.026.347.026.419c0 .028.023.138.083.207.008.009.008.011.008.013 0 .004-.002.01-.012.01C.077.649 0 .504 0 .408 0 .314.066.241.173.216L.12.048m.138.217L.24.266C.228.266.227.267.227.27l.02.108c.031.128.109.224.198.224C.514.602.541.548.541.5.541.387.412.265.258.265z"/></symbol><use xlink:href="#h" transform="matrix(9.9626 0 0 -9.9626 91.908 82.37)"/><path stroke-width=".399" stroke-miterlimit="10" fill="none" stroke="#000" d="m15.3 21.365 43.188 43.189"/><path d="m60.253 66.319-1.574-3.477-.12 1.782-1.783.121z"/><path stroke-width=".39899601" stroke-miterlimit="10" fill="none" stroke="#000" d="m60.253 66.319-1.574-3.477-.12 1.782-1.783.121z"/><use xlink:href="#g" transform="matrix(9.9626 0 0 -9.9626 13.348 56.633)"/><symbol id="i"><path d="M.389.194a.195.195 0 0 1-.194.194A.196.196 0 0 1 0 .194C0 .088.087 0 .195 0 .3 0 .389.087.389.194M.195.04a.154.154 0 1 0-.001.309A.154.154 0 0 0 .195.04z"/></symbol><use xlink:href="#i" transform="matrix(9.9626 0 0 -9.9626 20.962 53.923)"/><use xlink:href="#f" transform="matrix(9.9626 0 0 -9.9626 27.898 56.523)"/><path stroke-width=".399" stroke-miterlimit="10" fill="none" stroke="#000" d="m71.993 21.365 43.188 43.189"/><path d="m116.947 66.319-1.574-3.477-.121 1.782-1.782.121z"/><path stroke-width=".39899601" stroke-miterlimit="10" fill="none" stroke="#000" d="m116.947 66.319-1.574-3.477-.121 1.782-1.782.121z"/><use xlink:href="#h" transform="matrix(9.9626 0 0 -9.9626 98.687 40.758)"/><use xlink:href="#i" transform="matrix(9.9626 0 0 -9.9626 107.468 38.028)"/><use xlink:href="#g" transform="matrix(9.9626 0 0 -9.9626 114.414 40.738)"/></svg>