<svg xmlns="http://www.w3.org/2000/svg" xmlns:xlink="http://www.w3.org/1999/xlink" width="367.267" height="230.245" viewBox="0 0 275.45 172.684"><path stroke-width=".399" stroke-miterlimit="10" fill="none" stroke="#000" d="M18.134 26.594a8.504 8.504 0 1 0-17.008 0 8.504 8.504 0 0 0 17.008 0zM18.134 54.94a8.504 8.504 0 1 0-17.008 0 8.504 8.504 0 0 0 17.008 0zM18.134 111.634a8.504 8.504 0 1 0-17.008 0 8.504 8.504 0 0 0 17.008 0zM18.134 139.981a8.504 8.504 0 1 0-17.008 0 8.504 8.504 0 0 0 17.008 0zm-8.504 0"/><symbol id="a"><path d="M.106.053a.053.053 0 0 1-.053.053A.053.053 0 0 1 0 .053C0 .024.024 0 .053 0c.029 0 .053.024.053.053z"/></symbol><use xlink:href="#a" transform="matrix(9.9626 0 0 -9.9626 4.675 83.538)"/><use xlink:href="#a" transform="matrix(9.9626 0 0 -9.9626 9.108 83.538)"/><use xlink:href="#a" transform="matrix(9.9626 0 0 -9.9626 13.532 83.538)"/><path stroke-width=".399" stroke-miterlimit="10" fill="none" stroke="#000" d="M103.175 26.594a8.504 8.504 0 1 0-17.009 0 8.504 8.504 0 0 0 17.009 0zM103.175 54.94a8.504 8.504 0 1 0-17.009 0 8.504 8.504 0 0 0 17.009 0zM103.175 111.634a8.504 8.504 0 1 0-17.009 0 8.504 8.504 0 0 0 17.009 0zM103.175 139.981a8.504 8.504 0 1 0-17.009 0 8.504 8.504 0 0 0 17.009 0zm-8.505 0"/><use xlink:href="#a" transform="matrix(9.9626 0 0 -9.9626 89.714 83.538)"/><use xlink:href="#a" transform="matrix(9.9626 0 0 -9.9626 94.147 83.538)"/><use xlink:href="#a" transform="matrix(9.9626 0 0 -9.9626 98.57 83.538)"/><path stroke-width=".399" stroke-miterlimit="10" fill="none" stroke="#000" d="M188.215 26.594a8.504 8.504 0 1 0-17.008 0 8.504 8.504 0 0 0 17.008 0zM188.215 54.94a8.504 8.504 0 1 0-17.008 0 8.504 8.504 0 0 0 17.008 0zM188.215 111.634a8.504 8.504 0 1 0-17.008 0 8.504 8.504 0 0 0 17.008 0zM188.215 139.981a8.504 8.504 0 1 0-17.008 0 8.504 8.504 0 0 0 17.008 0zm-8.504 0"/><use xlink:href="#a" transform="matrix(9.9626 0 0 -9.9626 174.754 83.538)"/><use xlink:href="#a" transform="matrix(9.9626 0 0 -9.9626 179.187 83.538)"/><use xlink:href="#a" transform="matrix(9.9626 0 0 -9.9626 183.61 83.538)"/><path stroke-width=".399" stroke-miterlimit="10" fill="none" stroke="#000" d="M273.255 26.594a8.504 8.504 0 1 0-17.008 0 8.504 8.504 0 0 0 17.008 0zM273.255 54.94a8.504 8.504 0 1 0-17.008 0 8.504 8.504 0 0 0 17.008 0zM273.255 111.634a8.504 8.504 0 1 0-17.008 0 8.504 8.504 0 0 0 17.008 0zM273.255 139.981a8.504 8.504 0 1 0-17.008 0 8.504 8.504 0 0 0 17.008 0zm-8.504 0"/><use xlink:href="#a" transform="matrix(9.9626 0 0 -9.9626 259.793 83.538)"/><use xlink:href="#a" transform="matrix(9.9626 0 0 -9.9626 264.226 83.538)"/><use xlink:href="#a" transform="matrix(9.9626 0 0 -9.9626 268.65 83.538)"/><path stroke-width=".399" stroke-miterlimit="10" fill="none" stroke="#000" stroke-opacity=".2" d="M18.134 26.594h64.968"/><path d="m85.599 26.594-3.571-1.346 1.174 1.346-1.174 1.346z" fill-opacity=".2"/><path stroke-width=".399" stroke-miterlimit="10" fill="none" stroke="#000" stroke-opacity=".2" d="m85.599 26.594-3.571-1.346 1.174 1.346-1.174 1.346zM18.134 111.634l66.118-82.648"/><path d="m85.812 27.037-3.282 1.948 1.785-.076.317 1.757z" fill-opacity=".2"/><path stroke-width=".39897606" stroke-miterlimit="10" fill="none" stroke="#000" stroke-opacity=".2" d="m85.812 27.037-3.282 1.948 1.785-.076.317 1.757z"/><path stroke-width=".399" stroke-miterlimit="10" fill="none" stroke="#000" stroke-opacity=".2" d="M18.134 139.981 84.59 29.221"/><path d="m85.874 27.08-2.99 2.37 1.757-.314.55 1.7z" fill-opacity=".2"/><path stroke-width=".39898803000000005" stroke-miterlimit="10" fill="none" stroke="#000" stroke-opacity=".2" d="m85.874 27.08-2.99 2.37 1.757-.314.55 1.7z"/><path stroke-width=".399" stroke-miterlimit="10" fill="none" stroke="red" stroke-opacity=".6" d="m18.134 54.94 65.204-27.168"/><path d="m85.642 26.812-3.813.132 1.601.79-.566 1.694z" fill="red" fill-opacity=".6"/><path stroke-width=".39897207" stroke-miterlimit="10" fill="none" stroke="red" stroke-opacity=".6" d="m85.642 26.812-3.813.132 1.601.79-.566 1.694z"/><path stroke-width=".399" stroke-miterlimit="10" fill="none" stroke="#000" stroke-opacity=".2" d="m18.134 26.594 65.204 27.169"/><path d="m85.642 54.723-2.778-2.616.566 1.694-1.601.79z" fill-opacity=".2"/><path stroke-width=".39897207" stroke-miterlimit="10" fill="none" stroke="#000" stroke-opacity=".2" d="m85.642 54.723-2.778-2.616.566 1.694-1.601.79z"/><path stroke-width=".399" stroke-miterlimit="10" fill="none" stroke="#000" stroke-opacity=".2" d="m18.134 111.634 65.679-54.732"/><path d="m85.73 55.304-3.604 1.252 1.763.282-.04 1.786z" fill-opacity=".2"/><path stroke-width=".39898005000000003" stroke-miterlimit="10" fill="none" stroke="#000" stroke-opacity=".2" d="m85.73 55.304-3.604 1.252 1.763.282-.04 1.786z"/><path stroke-width=".399" stroke-miterlimit="10" fill="none" stroke="#000" stroke-opacity=".2" d="m18.134 139.981 66.118-82.648"/><path d="m85.812 55.384-3.282 1.948 1.785-.077.317 1.758z" fill-opacity=".2"/><path stroke-width=".39897606" stroke-miterlimit="10" fill="none" stroke="#000" stroke-opacity=".2" d="m85.812 55.384-3.282 1.948 1.785-.077.317 1.758z"/><path stroke-width=".399" stroke-miterlimit="10" fill="none" stroke="red" stroke-opacity=".6" d="M18.134 54.94h64.968"/><path d="m85.599 54.94-3.571-1.345 1.174 1.346-1.174 1.346z" fill="red" fill-opacity=".6"/><path stroke-width=".399" stroke-miterlimit="10" fill="none" stroke="red" stroke-opacity=".6" d="m85.599 54.94-3.571-1.345 1.174 1.346-1.174 1.346z"/><path stroke-width=".399" stroke-miterlimit="10" fill="none" stroke="#000" stroke-opacity=".2" d="m18.134 26.594 66.118 82.648"/><path d="m85.812 111.191-1.18-3.629-.317 1.758-1.785-.077z" fill-opacity=".2"/><path stroke-width=".39897606" stroke-miterlimit="10" fill="none" stroke="#000" stroke-opacity=".2" d="m85.812 111.191-1.18-3.629-.317 1.758-1.785-.077z"/><path stroke-width=".399" stroke-miterlimit="10" fill="none" stroke="#000" stroke-opacity=".2" d="M18.134 111.634h64.968"/><path d="m85.599 111.634-3.571-1.345 1.174 1.345-1.174 1.346z" fill-opacity=".2"/><path stroke-width=".399" stroke-miterlimit="10" fill="none" stroke="#000" stroke-opacity=".2" d="m85.599 111.634-3.571-1.345 1.174 1.345-1.174 1.346zM18.134 139.981l65.204-27.168"/><path d="m85.642 111.853-3.813.131 1.601.79-.566 1.694z" fill-opacity=".2"/><path stroke-width=".39897207" stroke-miterlimit="10" fill="none" stroke="#000" stroke-opacity=".2" d="m85.642 111.853-3.813.131 1.601.79-.566 1.694z"/><path stroke-width=".399" stroke-miterlimit="10" fill="none" stroke="red" stroke-opacity=".6" d="m18.134 54.94 65.679 54.733"/><path d="m85.73 111.271-1.882-3.32.041 1.786-1.763.282z" fill="red" fill-opacity=".6"/><path stroke-width=".39898005000000003" stroke-miterlimit="10" fill="none" stroke="red" stroke-opacity=".6" d="m85.73 111.271-1.882-3.32.041 1.786-1.763.282z"/><path stroke-width=".399" stroke-miterlimit="10" fill="none" stroke="#000" stroke-opacity=".2" d="m18.134 26.594 66.456 110.76"/><path d="m85.874 139.495-.683-3.755-.55 1.7-1.758-.315z" fill-opacity=".2"/><path stroke-width=".39898803000000005" stroke-miterlimit="10" fill="none" stroke="#000" stroke-opacity=".2" d="m85.874 139.495-.683-3.755-.55 1.7-1.758-.315z"/><path stroke-width=".399" stroke-miterlimit="10" fill="none" stroke="#000" stroke-opacity=".2" d="m18.134 111.634 65.204 27.169"/><path d="m85.642 139.763-2.778-2.616.566 1.694-1.601.79z" fill-opacity=".2"/><path stroke-width=".39897207" stroke-miterlimit="10" fill="none" stroke="#000" stroke-opacity=".2" d="m85.642 139.763-2.778-2.616.566 1.694-1.601.79z"/><path stroke-width=".399" stroke-miterlimit="10" fill="none" stroke="#000" stroke-opacity=".2" d="M18.134 139.981h64.968"/><path d="m85.599 139.981-3.571-1.345 1.174 1.345-1.174 1.346z" fill-opacity=".2"/><path stroke-width=".399" stroke-miterlimit="10" fill="none" stroke="#000" stroke-opacity=".2" d="m85.599 139.981-3.571-1.345 1.174 1.345-1.174 1.346z"/><path stroke-width=".399" stroke-miterlimit="10" fill="none" stroke="red" stroke-opacity=".6" d="m18.134 54.94 66.118 82.649"/><path d="m85.812 139.538-1.18-3.629-.317 1.758-1.785-.077z" fill="red" fill-opacity=".6"/><path stroke-width=".39897606" stroke-miterlimit="10" fill="none" stroke="red" stroke-opacity=".6" d="m85.812 139.538-1.18-3.629-.317 1.758-1.785-.077z"/><path stroke-width=".399" stroke-miterlimit="10" fill="none" stroke="red" stroke-opacity=".5" d="M103.175 26.594h64.968"/><path d="m170.64 26.594-3.572-1.346 1.174 1.346-1.174 1.346z" fill="red" fill-opacity=".5"/><path stroke-width=".399" stroke-miterlimit="10" fill="none" stroke="red" stroke-opacity=".5" d="m170.64 26.594-3.572-1.346 1.174 1.346-1.174 1.346zM103.175 54.94l65.204-27.168"/><path d="m170.683 26.812-3.814.132 1.602.79-.567 1.694z" fill="red" fill-opacity=".5"/><path stroke-width=".39897207" stroke-miterlimit="10" fill="none" stroke="red" stroke-opacity=".5" d="m170.683 26.812-3.814.132 1.602.79-.567 1.694z"/><path stroke-width=".399" stroke-miterlimit="10" fill="none" stroke="red" stroke-opacity=".5" d="m103.175 111.634 66.118-82.648"/><path d="m170.852 27.037-3.281 1.948 1.784-.076.317 1.757z" fill="red" fill-opacity=".5"/><path stroke-width=".39897606" stroke-miterlimit="10" fill="none" stroke="red" stroke-opacity=".5" d="m170.852 27.037-3.281 1.948 1.784-.076.317 1.757z"/><path stroke-width=".399" stroke-miterlimit="10" fill="none" stroke="red" stroke-opacity=".5" d="m103.175 139.981 66.455-110.76"/><path d="m170.915 27.08-2.991 2.37 1.758-.314.55 1.7z" fill="red" fill-opacity=".5"/><path stroke-width=".39898803000000005" stroke-miterlimit="10" fill="none" stroke="red" stroke-opacity=".5" d="m170.915 27.08-2.991 2.37 1.758-.314.55 1.7z"/><path stroke-width=".399" stroke-miterlimit="10" fill="none" stroke="red" stroke-opacity=".5" d="m103.175 26.594 65.204 27.169"/><path d="m170.683 54.723-2.779-2.616.567 1.694-1.602.79z" fill="red" fill-opacity=".5"/><path stroke-width=".39897207" stroke-miterlimit="10" fill="none" stroke="red" stroke-opacity=".5" d="m170.683 54.723-2.779-2.616.567 1.694-1.602.79z"/><path stroke-width=".399" stroke-miterlimit="10" fill="none" stroke="red" stroke-opacity=".5" d="M103.175 54.94h64.968"/><path d="m170.64 54.94-3.572-1.345 1.174 1.346-1.174 1.346z" fill="red" fill-opacity=".5"/><path stroke-width=".399" stroke-miterlimit="10" fill="none" stroke="red" stroke-opacity=".5" d="m170.64 54.94-3.572-1.345 1.174 1.346-1.174 1.346zM103.175 111.634l65.678-54.732"/><path d="m170.77 55.304-3.604 1.252 1.764.282-.041 1.786z" fill="red" fill-opacity=".5"/><path stroke-width=".39898005000000003" stroke-miterlimit="10" fill="none" stroke="red" stroke-opacity=".5" d="m170.77 55.304-3.604 1.252 1.764.282-.041 1.786z"/><path stroke-width=".399" stroke-miterlimit="10" fill="none" stroke="red" stroke-opacity=".5" d="m103.175 139.981 66.118-82.648"/><path d="m170.852 55.384-3.281 1.948 1.784-.077.317 1.758z" fill="red" fill-opacity=".5"/><path stroke-width=".39897606" stroke-miterlimit="10" fill="none" stroke="red" stroke-opacity=".5" d="m170.852 55.384-3.281 1.948 1.784-.077.317 1.758z"/><path stroke-width=".399" stroke-miterlimit="10" fill="none" stroke="red" stroke-opacity=".5" d="m103.175 26.594 66.118 82.648"/><path d="m170.852 111.191-1.18-3.629-.317 1.758-1.784-.077z" fill="red" fill-opacity=".5"/><path stroke-width=".39897606" stroke-miterlimit="10" fill="none" stroke="red" stroke-opacity=".5" d="m170.852 111.191-1.18-3.629-.317 1.758-1.784-.077z"/><path stroke-width=".399" stroke-miterlimit="10" fill="none" stroke="red" stroke-opacity=".5" d="m103.175 54.94 65.678 54.733"/><path d="m170.77 111.271-1.881-3.32.04 1.786-1.763.282z" fill="red" fill-opacity=".5"/><path stroke-width=".39898005000000003" stroke-miterlimit="10" fill="none" stroke="red" stroke-opacity=".5" d="m170.77 111.271-1.881-3.32.04 1.786-1.763.282z"/><path stroke-width=".399" stroke-miterlimit="10" fill="none" stroke="red" stroke-opacity=".5" d="M103.175 111.634h64.968"/><path d="m170.64 111.634-3.572-1.345 1.174 1.345-1.174 1.346z" fill="red" fill-opacity=".5"/><path stroke-width=".399" stroke-miterlimit="10" fill="none" stroke="red" stroke-opacity=".5" d="m170.64 111.634-3.572-1.345 1.174 1.345-1.174 1.346zM103.175 139.981l65.204-27.168"/><path d="m170.683 111.853-3.814.131 1.602.79-.567 1.694z" fill="red" fill-opacity=".5"/><path stroke-width=".39897207" stroke-miterlimit="10" fill="none" stroke="red" stroke-opacity=".5" d="m170.683 111.853-3.814.131 1.602.79-.567 1.694z"/><path stroke-width=".399" stroke-miterlimit="10" fill="none" stroke="red" stroke-opacity=".5" d="m103.175 26.594 66.455 110.76"/><path d="m170.915 139.495-.684-3.755-.55 1.7-1.757-.315z" fill="red" fill-opacity=".5"/><path stroke-width=".39898803000000005" stroke-miterlimit="10" fill="none" stroke="red" stroke-opacity=".5" d="m170.915 139.495-.684-3.755-.55 1.7-1.757-.315z"/><path stroke-width=".399" stroke-miterlimit="10" fill="none" stroke="red" stroke-opacity=".5" d="m103.175 54.94 66.118 82.649"/><path d="m170.852 139.538-1.18-3.629-.317 1.758-1.784-.077z" fill="red" fill-opacity=".5"/><path stroke-width=".39897606" stroke-miterlimit="10" fill="none" stroke="red" stroke-opacity=".5" d="m170.852 139.538-1.18-3.629-.317 1.758-1.784-.077z"/><path stroke-width=".399" stroke-miterlimit="10" fill="none" stroke="red" stroke-opacity=".5" d="m103.175 111.634 65.204 27.169"/><path d="m170.683 139.763-2.779-2.616.567 1.694-1.602.79z" fill="red" fill-opacity=".5"/><path stroke-width=".39897207" stroke-miterlimit="10" fill="none" stroke="red" stroke-opacity=".5" d="m170.683 139.763-2.779-2.616.567 1.694-1.602.79z"/><path stroke-width=".399" stroke-miterlimit="10" fill="none" stroke="red" stroke-opacity=".5" d="M103.175 139.981h64.968"/><path d="m170.64 139.981-3.572-1.345 1.174 1.345-1.174 1.346z" fill="red" fill-opacity=".5"/><path stroke-width=".399" stroke-miterlimit="10" fill="none" stroke="red" stroke-opacity=".5" d="m170.64 139.981-3.572-1.345 1.174 1.345-1.174 1.346z"/><path stroke-width=".399" stroke-miterlimit="10" fill="none" stroke="#000" stroke-opacity=".2" d="M188.215 26.594h64.968"/><path d="m255.68 26.594-3.572-1.346 1.175 1.346-1.175 1.346z" fill-opacity=".2"/><path stroke-width=".399" stroke-miterlimit="10" fill="none" stroke="#000" stroke-opacity=".2" d="m255.68 26.594-3.572-1.346 1.175 1.346-1.175 1.346zM188.215 26.594l65.204 27.169"/><path d="m255.723 54.723-2.778-2.616.566 1.694-1.601.79z" fill-opacity=".2"/><path stroke-width=".39897207" stroke-miterlimit="10" fill="none" stroke="#000" stroke-opacity=".2" d="m255.723 54.723-2.778-2.616.566 1.694-1.601.79z"/><path stroke-width=".399" stroke-miterlimit="10" fill="none" stroke="#000" stroke-opacity=".2" d="m188.215 26.594 66.456 110.76"/><path d="m255.955 139.495-.683-3.755-.55 1.7-1.758-.315z" fill-opacity=".2"/><path stroke-width=".39898803000000005" stroke-miterlimit="10" fill="none" stroke="#000" stroke-opacity=".2" d="m255.955 139.495-.683-3.755-.55 1.7-1.758-.315z"/><path stroke-width=".399" stroke-miterlimit="10" fill="none" stroke="red" stroke-opacity=".6" d="m188.215 26.594 66.118 82.648"/><path d="m255.893 111.191-1.18-3.629-.318 1.758-1.784-.077z" fill="red" fill-opacity=".6"/><path stroke-width=".39897606" stroke-miterlimit="10" fill="none" stroke="red" stroke-opacity=".6" d="m255.893 111.191-1.18-3.629-.318 1.758-1.784-.077z"/><path stroke-width=".399" stroke-miterlimit="10" fill="none" stroke="#000" stroke-opacity=".2" d="m188.215 54.94 65.204-27.168"/><path d="m255.723 26.812-3.813.132 1.601.79-.566 1.694z" fill-opacity=".2"/><path stroke-width=".39897207" stroke-miterlimit="10" fill="none" stroke="#000" stroke-opacity=".2" d="m255.723 26.812-3.813.132 1.601.79-.566 1.694z"/><path stroke-width=".399" stroke-miterlimit="10" fill="none" stroke="#000" stroke-opacity=".2" d="M188.215 54.94h64.968"/><path d="m255.68 54.94-3.572-1.345 1.175 1.346-1.175 1.346z" fill-opacity=".2"/><path stroke-width=".399" stroke-miterlimit="10" fill="none" stroke="#000" stroke-opacity=".2" d="m255.68 54.94-3.572-1.345 1.175 1.346-1.175 1.346zM188.215 54.94l66.118 82.649"/><path d="m255.893 139.538-1.18-3.629-.318 1.758-1.784-.077z" fill-opacity=".2"/><path stroke-width=".39897606" stroke-miterlimit="10" fill="none" stroke="#000" stroke-opacity=".2" d="m255.893 139.538-1.18-3.629-.318 1.758-1.784-.077z"/><path stroke-width=".399" stroke-miterlimit="10" fill="none" stroke="red" stroke-opacity=".6" d="m188.215 54.94 65.678 54.733"/><path d="m255.811 111.271-1.882-3.32.041 1.786-1.764.282z" fill="red" fill-opacity=".6"/><path stroke-width=".39898005000000003" stroke-miterlimit="10" fill="none" stroke="red" stroke-opacity=".6" d="m255.811 111.271-1.882-3.32.041 1.786-1.764.282z"/><path stroke-width=".399" stroke-miterlimit="10" fill="none" stroke="#000" stroke-opacity=".2" d="m188.215 111.634 66.118-82.648"/><path d="m255.893 27.037-3.282 1.948 1.784-.076.318 1.757z" fill-opacity=".2"/><path stroke-width=".39897606" stroke-miterlimit="10" fill="none" stroke="#000" stroke-opacity=".2" d="m255.893 27.037-3.282 1.948 1.784-.076.318 1.757z"/><path stroke-width=".399" stroke-miterlimit="10" fill="none" stroke="#000" stroke-opacity=".2" d="m188.215 111.634 65.678-54.732"/><path d="m255.811 55.304-3.605 1.252 1.764.282-.04 1.786z" fill-opacity=".2"/><path stroke-width=".39898005000000003" stroke-miterlimit="10" fill="none" stroke="#000" stroke-opacity=".2" d="m255.811 55.304-3.605 1.252 1.764.282-.04 1.786z"/><path stroke-width=".399" stroke-miterlimit="10" fill="none" stroke="#000" stroke-opacity=".2" d="m188.215 111.634 65.204 27.169"/><path d="m255.723 139.763-2.778-2.616.566 1.694-1.601.79z" fill-opacity=".2"/><path stroke-width=".39897207" stroke-miterlimit="10" fill="none" stroke="#000" stroke-opacity=".2" d="m255.723 139.763-2.778-2.616.566 1.694-1.601.79z"/><path stroke-width=".399" stroke-miterlimit="10" fill="none" stroke="red" stroke-opacity=".6" d="M188.215 111.634h64.968"/><g><path d="m255.68 111.634-3.572-1.345 1.175 1.345-1.175 1.346z" fill="red" fill-opacity=".6"/><path stroke-width=".399" stroke-miterlimit="10" fill="none" stroke="red" stroke-opacity=".6" d="m255.68 111.634-3.572-1.345 1.175 1.345-1.175 1.346z"/></g><path stroke-width=".399" stroke-miterlimit="10" fill="none" stroke="#000" stroke-opacity=".2" d="m188.215 139.981 66.456-110.76"/><g><path d="m255.955 27.08-2.991 2.37 1.758-.314.55 1.7z" fill-opacity=".2"/><path stroke-width=".39898803000000005" stroke-miterlimit="10" fill="none" stroke="#000" stroke-opacity=".2" d="m255.955 27.08-2.991 2.37 1.758-.314.55 1.7z"/></g><path stroke-width=".399" stroke-miterlimit="10" fill="none" stroke="#000" stroke-opacity=".2" d="m188.215 139.981 66.118-82.648"/><g><path d="m255.893 55.384-3.282 1.948 1.784-.077.318 1.758z" fill-opacity=".2"/><path stroke-width=".39897606" stroke-miterlimit="10" fill="none" stroke="#000" stroke-opacity=".2" d="m255.893 55.384-3.282 1.948 1.784-.077.318 1.758z"/></g><path stroke-width=".399" stroke-miterlimit="10" fill="none" stroke="#000" stroke-opacity=".2" d="M188.215 139.981h64.968"/><g><path d="m255.68 139.981-3.572-1.345 1.175 1.345-1.175 1.346z" fill-opacity=".2"/><path stroke-width=".399" stroke-miterlimit="10" fill="none" stroke="#000" stroke-opacity=".2" d="m255.68 139.981-3.572-1.345 1.175 1.345-1.175 1.346z"/></g><path stroke-width=".399" stroke-miterlimit="10" fill="none" stroke="red" stroke-opacity=".6" d="m188.215 139.981 65.204-27.168"/><g><path d="m255.723 111.853-3.813.131 1.601.79-.566 1.694z" fill="red" fill-opacity=".6"/><path stroke-width=".39897207" stroke-miterlimit="10" fill="none" stroke="red" stroke-opacity=".6" d="m255.723 111.853-3.813.131 1.601.79-.566 1.694z"/></g><symbol id="b"><path d="M.252.314h.036l.15-.232C.448.066.472.027.483.012.49 0 .493 0 .516 0h.138c.018 0 .033 0 .033.018 0 .008-.006.015-.015.017C.635.043.586.109.562.141.555.151.505.217.438.325c.089.016.175.054.175.173 0 .139-.147.187-.265.187H.034C.016.685 0 .685 0 .667 0 .65.019.65.027.65.084.65.089.643.089.593V.092C.089.042.084.035.027.035.019.035 0 .035 0 .018 0 0 .016 0 .034 0h.274c.018 0 .033 0 .033.018 0 .017-.017.017-.028.017-.057 0-.061.008-.061.057v.222m.193.049C.473.4.476.453.476.497a.226.226 0 0 1-.038.142C.479.63.578.599.578.498.578.433.548.382.445.363M.252.596c0 .021 0 .054.062.054C.399.65.441.615.441.497.441.368.41.349.252.349v.247M.116.035A.154.154 0 0 1 .124.09v.505c0 .01 0 .037-.008.055H.23C.217.634.217.614.217.599V.09c0-.01 0-.037.008-.055H.116m.213.279.019.002C.363.316.385.318.4.32.415.296.523.118.606.035H.509l-.18.279z"/></symbol><use xlink:href="#b" transform="matrix(9.9626 0 0 -9.9626 3.48 10.183)"/><symbol id="c"><path d="M.075.073a.378.378 0 0 1-.01-.041C.065.01.083 0 .099 0a.05.05 0 0 1 .039.022.408.408 0 0 1 .018.062l.022.09.017.067c.011.041.013.049.042.09.028.04.075.092.15.092.058 0 .059-.051.059-.07C.446.293.403.182.387.14.376.112.372.103.372.086.372.033.416 0 .467 0c.1 0 .144.138.144.153 0 .013-.013.013-.016.013C.581.166.58.16.576.149.553.069.51.028.47.028.449.028.445.042.445.063c0 .023.005.036.023.081a.733.733 0 0 1 .053.193c0 .097-.077.114-.13.114A.213.213 0 0 1 .222.36C.215.429.156.451.115.451.072.451.049.42.036.397A.355.355 0 0 1 0 .298C0 .285.014.285.017.285c.014 0 .015.003.022.03.015.059.034.108.073.108.026 0 .033-.022.033-.049A.442.442 0 0 0 .129.291a3.78 3.78 0 0 1-.022-.09L.075.073z"/></symbol><use xlink:href="#c" transform="matrix(6.9738 0 0 -6.9738 10.844 6.638)"/><use xlink:href="#b" transform="matrix(9.9626 0 0 -9.9626 89.03 10.183)"/><symbol id="d"><path d="M.448.606.45.621C.45.627.446.635.437.635.427.635.385.601.365.569a.12.12 0 0 1-.107.066C.13.635 0 .494 0 .35 0 .253.065.184.151.184c.057 0 .104.036.126.055A17.087 17.087 0 0 1 .241.093C.227.038.226.037.164.036c-.012 0-.026 0-.026-.022C.138.008.143 0 .153 0c.033 0 .07.004.104.004C.291.004.333 0 .364 0c.009 0 .02.003.02.022C.384.036.37.036.358.036c-.022 0-.049 0-.049.012 0 .003 0 .005.005.022l.134.536M.297.32C.292.303.292.301.279.285.24.239.193.212.154.212.117.212.081.238.081.309c0 .053.029.163.052.203.046.08.097.095.125.095C.328.607.347.53.347.52L.344.505.297.32z"/></symbol><use xlink:href="#d" transform="matrix(6.9738 0 0 -6.9738 96.492 7.92)"/><use xlink:href="#b" transform="matrix(9.9626 0 0 -9.9626 173.967 10.183)"/><symbol id="e"><path d="M.076.072C.069.044.067.036.027.036.014.036 0 .036 0 .015 0 .004.009 0 .014 0 .04 0 .073.004.1.004.134.004.172 0 .205 0c.009 0 .02.003.02.022 0 .014-.014.014-.026.014-.022 0-.049 0-.049.012 0 .005.007.031.011.046.012.053.026.107.037.149A.118.118 0 0 1 .301.184c.122 0 .257.135.257.284 0 .117-.081.167-.15.167C.346.635.293.593.266.565.249.622.193.635.163.635.124.635.1.609.084.582a.383.383 0 0 1-.036-.1c0-.013.014-.013.017-.013.014 0 .015.003.022.03.015.058.034.108.073.108.026 0 .033-.022.033-.049A.2.2 0 0 0 .19.528L.076.072m.189.443c.058.077.108.092.14.092C.444.607.478.578.478.51A.58.58 0 0 0 .426.309C.401.26.352.212.301.212.23.212.212.289.212.299l.003.015.05.201z"/></symbol><use xlink:href="#e" transform="matrix(6.9738 0 0 -6.9738 180.996 7.92)"/><use xlink:href="#b" transform="matrix(9.9626 0 0 -9.9626 257.525 10.183)"/><symbol id="f"><path d="M.387.091C.382.071.373.037.373.032.373.01.391 0 .407 0a.05.05 0 0 1 .039.022.408.408 0 0 1 .018.062l.022.09.017.067c.011.043.011.045.031.076.032.049.082.106.16.106.056 0 .059-.046.059-.07C.753.293.71.182.694.14.683.112.679.103.679.086.679.033.723 0 .774 0c.1 0 .144.138.144.153 0 .013-.013.013-.016.013C.888.166.887.16.883.149.86.069.817.028.777.028.756.028.752.042.752.063c0 .023.005.036.023.081a.733.733 0 0 1 .053.193c0 .016 0 .058-.037.087a.148.148 0 0 1-.093.027C.608.451.553.392.521.35.513.435.442.451.391.451A.213.213 0 0 1 .222.36C.215.429.156.451.115.451.072.451.049.42.036.397A.355.355 0 0 1 0 .298C0 .285.014.285.017.285c.014 0 .015.003.022.03.015.059.034.108.073.108.026 0 .033-.022.033-.049A.442.442 0 0 0 .129.291a3.78 3.78 0 0 1-.022-.09L.075.073a.378.378 0 0 1-.01-.041C.065.01.083 0 .099 0a.05.05 0 0 1 .039.022.408.408 0 0 1 .018.062l.022.09.017.067c.011.041.013.049.042.09.028.04.075.092.15.092.058 0 .059-.051.059-.07A.345.345 0 0 0 .429.259L.387.091z"/></symbol><use xlink:href="#f" transform="matrix(6.9738 0 0 -6.9738 264.889 6.638)"/><symbol id="g"><path d="m.453.873.003.015c0 .01-.007.011-.012.011-.01 0-.011-.002-.015-.02L.263.218C.187.227.149.264.149.33c0 .02 0 .046.054.186.004.012.011.029.011.049a.08.08 0 0 1-.082.082C.037.647 0 .502 0 .493c0-.01.01-.01.012-.01.01 0 .011.002.016.018.027.095.067.124.101.124.008 0 .025 0 .025-.032C.154.567.144.542.131.507.083.381.083.355.083.338c0-.095.078-.136.174-.142C.249.16.249.158.235.105A3.07 3.07 0 0 1 .212.01c0-.001 0-.01.012-.01.002 0 .007 0 .009.004a.174.174 0 0 1 .012.041l.038.149c.037 0 .125 0 .219.107.041.046.062.09.073.12a.671.671 0 0 1 .031.156c0 .056-.027.07-.044.07-.025 0-.05-.026-.05-.048C.512.586.518.58.527.572A.114.114 0 0 0 .563.487C.563.423.511.341.476.305.388.216.324.216.288.216l.165.657z"/></symbol><use xlink:href="#g" transform="matrix(9.9626 0 0 -9.9626 49.015 19.788)"/><symbol id="h"><path d="M.003.043 0 .027C0 .012.011 0 .028 0c.021 0 .033.018.035.021C.068.03.1.164.127.272.147.232.179.205.226.205c.117 0 .246.141.246.29 0 .106-.066.163-.139.163-.097 0-.202-.1-.232-.222L.003.043m.222.184c-.07 0-.086.08-.086.089l.008.037a.749.749 0 0 0 .06.188C.25.614.3.636.331.636.368.636.4.607.4.538A.606.606 0 0 0 .344.322C.311.259.263.227.225.227z"/></symbol><use xlink:href="#h" transform="matrix(9.9626 0 0 -9.9626 134.912 18.584)"/><symbol id="i"><path d="M.12.048C.116.035.115.033.115.028.115.006.134 0 .144 0c.005 0 .027.003.037.026.003.008.008.041.035.183C.225.208.232.207.249.207c.166 0 .32.157.32.315C.569.6.53.66.455.66.31.66.25.466.19.271.082.291.026.347.026.419c0 .028.023.138.083.207.008.009.008.011.008.013 0 .004-.002.01-.012.01C.077.649 0 .504 0 .408 0 .314.066.241.173.216L.12.048m.138.217L.24.266C.228.266.227.267.227.27l.02.108c.031.128.109.224.198.224C.514.602.541.548.541.5.541.387.412.265.258.265z"/></symbol><use xlink:href="#i" transform="matrix(9.9626 0 0 -9.9626 219.467 18.604)"/><symbol id="j"><path d="M.41.83C.41.849.396.866.372.866.349.866.319.843.319.813c0-.02.014-.036.037-.036C.383.777.41.803.41.83M.209.155C.19.079.142.022.086.022c-.006 0-.021 0-.039.009.03.007.045.033.045.053C.092.1.081.119.054.119A.056.056 0 0 1 0 .062C0 .022.04 0 .088 0c.07 0 .163.053.188.152l.092.366c.005.02.005.034.005.037a.089.089 0 0 1-.092.092C.179.647.122.502.122.493c0-.01.01-.01.012-.01.009 0 .01.001.018.02.025.061.071.122.126.122C.292.625.31.621.31.579.31.556.307.545.303.528L.209.155z"/></symbol><use xlink:href="#j" transform="matrix(9.9626 0 0 -9.9626 7.163 59.3)"/><symbol id="k"><path d="M.255.636c0 .02-.014.036-.037.036C.191.672.164.646.164.619.164.6.178.583.202.583c.023 0 .053.023.053.053M.179.26l.022.058c.008.02.013.034.013.053a.08.08 0 0 1-.082.082C.038.453 0 .308 0 .299c0-.01.01-.01.012-.01.01 0 .011.002.016.018.027.094.067.124.101.124.008 0 .025 0 .025-.032A.15.15 0 0 0 .143.347C.135.321.09.205.074.162.064.136.051.103.051.082A.08.08 0 0 1 .133 0c.094 0 .131.145.131.154 0 .01-.009.01-.012.01-.01 0-.01-.003-.015-.018C.219.083.186.022.135.022c-.017 0-.024.01-.024.033 0 .025.006.039.029.1L.179.26z"/></symbol><use xlink:href="#k" transform="matrix(9.9626 0 0 -9.9626 263.32 115.029)"/><path stroke-width=".399" stroke-miterlimit="10" fill="none" stroke="#000" d="M9.929 156.99h251.36M9.83 159.28v-4.582"/><path d="m263.785 156.99-3.57-1.346 1.173 1.345-1.174 1.346z"/><path stroke-width=".399" stroke-miterlimit="10" fill="none" stroke="#000" d="m263.785 156.99-3.57-1.346 1.173 1.345-1.174 1.346zM264.552 154.698v4.583"/><use xlink:href="#i" transform="matrix(9.9626 0 0 -9.9626 119.02 169.598)"/><symbol id="l"><path d="M.389.194a.195.195 0 0 1-.194.194A.196.196 0 0 1 0 .194C0 .088.087 0 .195 0 .3 0 .389.087.389.194M.195.04a.154.154 0 1 0-.001.309A.154.154 0 0 0 .195.04z"/></symbol><use xlink:href="#l" transform="matrix(9.9626 0 0 -9.9626 127.8 166.868)"/><use xlink:href="#h" transform="matrix(9.9626 0 0 -9.9626 134.747 169.578)"/><use xlink:href="#l" transform="matrix(9.9626 0 0 -9.9626 142.361 166.868)"/><use xlink:href="#g" transform="matrix(9.9626 0 0 -9.9626 149.297 169.468)"/></svg>