<svg xmlns="http://www.w3.org/2000/svg" xmlns:xlink="http://www.w3.org/1999/xlink" width="113.237" height="80.89pt" viewBox="0 0 84.928 80.89"><symbol id="a"><path d="M.252.314h.036l.15-.232C.448.066.472.027.483.012.49 0 .493 0 .516 0h.138c.018 0 .033 0 .033.018 0 .008-.006.015-.015.017C.635.043.586.109.562.141.555.151.505.217.438.325c.089.016.175.054.175.173 0 .139-.147.187-.265.187H.034C.016.685 0 .685 0 .667 0 .65.019.65.027.65.084.65.089.643.089.593V.092C.089.042.084.035.027.035.019.035 0 .035 0 .018 0 0 .016 0 .034 0h.274c.018 0 .033 0 .033.018 0 .017-.017.017-.028.017-.057 0-.061.008-.061.057v.222m.193.049C.473.4.476.453.476.497a.226.226 0 0 1-.038.142C.479.63.578.599.578.498.578.433.548.382.445.363M.252.596c0 .021 0 .054.062.054C.399.65.441.615.441.497.441.368.41.349.252.349v.247M.116.035A.154.154 0 0 1 .124.09v.505c0 .01 0 .037-.008.055H.23C.217.634.217.614.217.599V.09c0-.01 0-.037.008-.055H.116m.213.279.019.002C.363.316.385.318.4.32.415.296.523.118.606.035H.509l-.18.279z"/></symbol><use xlink:href="#a" transform="matrix(9.9626 0 0 -9.9626 8.644 14.562)"/><use xlink:href="#a" transform="matrix(9.9626 0 0 -9.9626 62.625 14.562)"/><symbol id="b"><path d="M.075.073a.378.378 0 0 1-.01-.041C.065.01.083 0 .099 0a.05.05 0 0 1 .039.022.408.408 0 0 1 .018.062l.022.09.017.067c.011.041.013.049.042.09.028.04.075.092.15.092.058 0 .059-.051.059-.07C.446.293.403.182.387.14.376.112.372.103.372.086.372.033.416 0 .467 0c.1 0 .144.138.144.153 0 .013-.013.013-.016.013C.581.166.58.16.576.149.553.069.51.028.47.028.449.028.445.042.445.063c0 .023.005.036.023.081a.733.733 0 0 1 .053.193c0 .097-.077.114-.13.114A.213.213 0 0 1 .222.36C.215.429.156.451.115.451.072.451.049.42.036.397A.355.355 0 0 1 0 .298C0 .285.014.285.017.285c.014 0 .015.003.022.03.015.059.034.108.073.108.026 0 .033-.022.033-.049A.442.442 0 0 0 .129.291a3.78 3.78 0 0 1-.022-.09L.075.073z"/></symbol><use xlink:href="#b" transform="matrix(6.9738 0 0 -6.9738 69.989 11.016)"/><use xlink:href="#a" transform="matrix(9.9626 0 0 -9.9626 4.86 71.255)"/><symbol id="c"><path d="M.387.091C.382.071.373.037.373.032.373.01.391 0 .407 0a.05.05 0 0 1 .039.022.408.408 0 0 1 .018.062l.022.09.017.067c.011.043.011.045.031.076.032.049.082.106.16.106.056 0 .059-.046.059-.07C.753.293.71.182.694.14.683.112.679.103.679.086.679.033.723 0 .774 0c.1 0 .144.138.144.153 0 .013-.013.013-.016.013C.888.166.887.16.883.149.86.069.817.028.777.028.756.028.752.042.752.063c0 .023.005.036.023.081a.733.733 0 0 1 .053.193c0 .016 0 .058-.037.087a.148.148 0 0 1-.093.027C.608.451.553.392.521.35.513.435.442.451.391.451A.213.213 0 0 1 .222.36C.215.429.156.451.115.451.072.451.049.42.036.397A.355.355 0 0 1 0 .298C0 .285.014.285.017.285c.014 0 .015.003.022.03.015.059.034.108.073.108.026 0 .033-.022.033-.049A.442.442 0 0 0 .129.291a3.78 3.78 0 0 1-.022-.09L.075.073a.378.378 0 0 1-.01-.041C.065.01.083 0 .099 0a.05.05 0 0 1 .039.022.408.408 0 0 1 .018.062l.022.09.017.067c.011.041.013.049.042.09.028.04.075.092.15.092.058 0 .059-.051.059-.07A.345.345 0 0 0 .429.259L.387.091z"/></symbol><use xlink:href="#c" transform="matrix(6.9738 0 0 -6.9738 12.224 67.709)"/><use xlink:href="#a" transform="matrix(9.9626 0 0 -9.9626 61.553 71.255)"/><use xlink:href="#c" transform="matrix(6.9738 0 0 -6.9738 68.917 67.709)"/><path stroke-width=".399" stroke-dasharray="2.98883,2.98883" stroke-miterlimit="10" fill="none" stroke="#929292" d="M20.586 11.13h36.622"/><path d="m59.704 11.13-3.571-1.346 1.174 1.346-1.174 1.346z" fill="#929292"/><path stroke-width=".399" stroke-miterlimit="10" fill="none" stroke="#929292" d="m59.704 11.13-3.571-1.346 1.174 1.346-1.174 1.346z"/><symbol id="d"><path d="M.305.313c.006.026.029.118.099.118.005 0 .029 0 .05-.013A.058.058 0 0 1 .406.364c0-.016.011-.035.038-.035.022 0 .054.018.054.058 0 .052-.059.066-.093.066C.347.453.312.4.3.377a.11.11 0 0 1-.108.076C.088.453.031.324.031.299c0-.01.01-.01.012-.01.008 0 .011.002.013.011.034.106.1.131.134.131.019 0 .054-.009.054-.067C.244.333.227.266.19.126.174.064.139.022.095.022c-.006 0-.029 0-.05.013C.07.04.092.061.092.089.092.116.07.124.055.124A.057.057 0 0 1 0 .066C0 .02.05 0 .094 0 .16 0 .196.07.199.076A.11.11 0 0 1 .307 0c.103 0 .16.129.16.154 0 .01-.009.01-.012.01C.446.164.444.16.442.153.409.046.341.022.309.022.27.022.254.054.254.088c0 .022.006.044.017.088l.034.137z"/></symbol><use xlink:href="#d" transform="matrix(9.9626 0 0 -9.9626 37.87 7.72)" fill="#929292"/><path stroke-width=".399" stroke-miterlimit="10" fill="none" stroke="red" d="M12.082 19.634v36.622"/><path d="m12.082 58.752 1.346-3.571-1.346 1.174-1.346-1.174z" fill="red"/><path stroke-width=".399" stroke-miterlimit="10" fill="none" stroke="red" d="m12.082 58.752 1.346-3.571-1.346 1.174-1.346-1.174z"/><symbol id="e"><path d="M.457.586C.461.6.461.602.461.609c0 .018-.014.027-.029.027A.043.043 0 0 1 .397.615 1.87 1.87 0 0 1 .363.481L.318.301C.314.286.271.216.205.216.154.216.143.26.143.297c0 .046.017.108.051.196.016.041.02.052.02.072a.08.08 0 0 1-.082.082C.037.647 0 .502 0 .493c0-.01.01-.01.012-.01.01 0 .011.002.016.018.027.094.067.124.101.124.008 0 .025 0 .025-.032 0-.025-.01-.051-.017-.07a.66.66 0 0 1-.058-.21c0-.089.063-.119.122-.119.039 0 .073.017.101.045C.289.187.277.138.237.085.211.051.173.022.127.022.113.022.068.025.051.064c.016 0 .029 0 .043.012.01.009.02.022.02.041 0 .031-.027.035-.037.035C.054.152.021.136.021.087.021.037.065 0 .127 0 .23 0 .333.091.361.204l.096.382z"/></symbol><use xlink:href="#e" transform="matrix(9.9626 0 0 -9.9626 3.61 42.695)" fill="red"/><path stroke-width=".399" stroke-miterlimit="10" fill="none" stroke="#00f" d="M63.106 16.8 19.918 59.987"/><path d="m18.153 61.753 3.476-1.574-1.782-.12-.12-1.783z" fill="#00f"/><path stroke-width=".39899601" stroke-miterlimit="10" fill="none" stroke="#00f" d="m18.153 61.753 3.476-1.574-1.782-.12-.12-1.783z"/><path stroke-width=".399" stroke-miterlimit="10" fill="none" stroke="red" d="M17.751 16.8 60.94 59.987"/><path d="m62.705 61.753-1.574-3.477-.12 1.782-1.783.121z" fill="red"/><path stroke-width=".39899601" stroke-miterlimit="10" fill="none" stroke="red" d="m62.705 61.753-1.574-3.477-.12 1.782-1.783.121z"/><path stroke-width=".399" stroke-miterlimit="10" fill="none" stroke="#00f" d="M68.776 16.8v42.29"/><path d="m68.776 61.587 1.345-3.571-1.345 1.174-1.346-1.174z" fill="#00f"/><path stroke-width=".399" stroke-miterlimit="10" fill="none" stroke="#00f" d="m68.776 61.587 1.345-3.571-1.345 1.174-1.346-1.174z"/><symbol id="f"><path d="M.12.048C.116.035.115.033.115.028.115.006.134 0 .144 0c.005 0 .027.003.037.026.003.008.008.041.035.183C.225.208.232.207.249.207c.166 0 .32.157.32.315C.569.6.53.66.455.66.31.66.25.466.19.271.082.291.026.347.026.419c0 .028.023.138.083.207.008.009.008.011.008.013 0 .004-.002.01-.012.01C.077.649 0 .504 0 .408 0 .314.066.241.173.216L.12.048m.138.217L.24.266C.228.266.227.267.227.27l.02.108c.031.128.109.224.198.224C.514.602.541.548.541.5.541.387.412.265.258.265z"/></symbol><use xlink:href="#f" transform="matrix(9.9626 0 0 -9.9626 72.793 44.425)" fill="#00f"/><symbol id="g"><path d="M.242.431a.07.07 0 0 1 .009.032c0 .031-.028.055-.059.055C.154.518.142.487.137.471L.005.038A.142.142 0 0 1 0 .022C0 .01.031 0 .039 0c.007 0 .008.002.015.017l.188.414z"/></symbol><use xlink:href="#g" transform="matrix(6.9738 0 0 -6.9738 79.147 38.352)" fill="#00f"/><use xlink:href="#f" transform="matrix(9.9626 0 0 -9.9626 23.495 49.91)" fill="#00f"/><use xlink:href="#e" transform="matrix(9.9626 0 0 -9.9626 50.872 48.547)" fill="red"/><use xlink:href="#g" transform="matrix(6.9738 0 0 -6.9738 56.16 42.603)" fill="red"/><path stroke-width=".399" stroke-miterlimit="10" fill="none" stroke="#000" d="M20.586 67.824h36.622"/><path d="m59.704 67.824-3.571-1.346 1.174 1.346-1.174 1.345z"/><path stroke-width=".399" stroke-miterlimit="10" fill="none" stroke="#000" d="m59.704 67.824-3.571-1.346 1.174 1.346-1.174 1.345z"/><symbol id="h"><path d="M.003.043 0 .027C0 .012.011 0 .028 0c.021 0 .033.018.035.021C.068.03.1.164.127.272.147.232.179.205.226.205c.117 0 .246.141.246.29 0 .106-.066.163-.139.163-.097 0-.202-.1-.232-.222L.003.043m.222.184c-.07 0-.086.08-.086.089l.008.037a.749.749 0 0 0 .06.188C.25.614.3.636.331.636.368.636.4.607.4.538A.606.606 0 0 0 .344.322C.311.259.263.227.225.227z"/></symbol><use xlink:href="#h" transform="matrix(9.9626 0 0 -9.9626 38.152 77.784)"/></svg>