<svg xmlns="http://www.w3.org/2000/svg" xmlns:xlink="http://www.w3.org/1999/xlink" width="340.688" height="259.179" viewBox="0 0 255.516 194.384"><path stroke-width=".399" stroke-miterlimit="10" fill="none" stroke="#000" d="M.199 66.626h110.323"/><path d="m113.018 66.626-3.57-1.346 1.174 1.346-1.175 1.346z"/><path stroke-width=".399" stroke-miterlimit="10" fill="none" stroke="#000" d="m113.018 66.626-3.57-1.346 1.174 1.346-1.175 1.346zM14.372 94.973V12.996"/><path d="m14.372 10.5-1.346 3.571 1.346-1.174 1.346 1.174z"/><path stroke-width=".399" stroke-miterlimit="10" fill="none" stroke="#000" d="m14.372 10.5-1.346 3.571 1.346-1.174 1.346 1.174z"/><path stroke-width=".797" stroke-miterlimit="10" fill="none" stroke="#000" d="m14.372 66.626 52.706 13.177"/><path d="m69.965 80.524-3.649-2.53.955 1.857-1.717 1.19z"/><path stroke-width=".7969920300000001" stroke-miterlimit="10" fill="none" stroke="#000" d="m69.965 80.524-3.649-2.53.955 1.857-1.717 1.19z"/><symbol id="a"><path d="M.12.048C.116.035.115.033.115.028.115.006.134 0 .144 0c.005 0 .027.003.037.026.003.008.008.041.035.183C.225.208.232.207.249.207c.166 0 .32.157.32.315C.569.6.53.66.455.66.31.66.25.466.19.271.082.291.026.347.026.419c0 .028.023.138.083.207.008.009.008.011.008.013 0 .004-.002.01-.012.01C.077.649 0 .504 0 .408 0 .314.066.241.173.216L.12.048m.138.217L.24.266C.228.266.227.267.227.27l.02.108c.031.128.109.224.198.224C.514.602.541.548.541.5.541.387.412.265.258.265z"/></symbol><use xlink:href="#a" transform="matrix(9.9626 0 0 -9.9626 59.876 94.162)"/><symbol id="b"><path d="M.232.01c0 .003 0 .005-.017.022C.09.158.058.347.058.5c0 .174.038.348.161.473.013.012.013.014.013.017 0 .007-.004.01-.01.01-.01 0-.1-.068-.159-.195A.727.727 0 0 1 0 .5C0 .422.011.301.066.188A.432.432 0 0 1 .222 0c.006 0 .01.003.01.01z"/></symbol><use xlink:href="#b" transform="matrix(9.9626 0 0 -9.9626 66.881 94.48)"/><symbol id="c"><path d="M.141.242a.45.45 0 0 1 .153.023c.07.03.075.089.075.103 0 .044-.038.085-.107.085A.272.272 0 0 1 0 .181C0 .079.059 0 .157 0 .3 0 .384.106.384.118c0 .006-.006.013-.012.013C.367.131.365.129.359.121.28.022.171.022.159.022.081.022.072.106.072.138c0 .012.001.043.016.104h.053M.094.264c.039.152.142.167.168.167.047 0 .074-.029.074-.063C.336.264.176.264.135.264H.094z"/></symbol><use xlink:href="#c" transform="matrix(9.9626 0 0 -9.9626 70.228 92.1)"/><symbol id="d"><path d="M.226.636c0 .027-.002.028-.03.028C.132.601.041.6 0 .6V.564c.024 0 .09 0 .145.028v-.51c0-.033 0-.046-.1-.046H.007V0l.178.004L.364 0v.036H.326c-.1 0-.1.013-.1.046v.554z"/></symbol><use xlink:href="#d" transform="matrix(6.9738 0 0 -6.9738 75.17 93.484)"/><symbol id="e"><path d="M.232.5a.729.729 0 0 1-.066.312A.432.432 0 0 1 .01 1C.004 1 0 .996 0 .99 0 .987 0 .985.019.967.117.868.174.709.174.5.174.329.137.153.013.027 0 .015 0 .013 0 .01 0 .004.004 0 .01 0c.01 0 .1.068.159.195C.22.305.232.416.232.5z"/></symbol><use xlink:href="#e" transform="matrix(9.9626 0 0 -9.9626 79.446 94.48)"/><path stroke-width=".797" stroke-miterlimit="10" fill="none" stroke="#000" d="m14.372 66.626 26.067-39.1"/><path d="m42.09 25.05-3.611 2.585 2.07-.275.543 2.017z"/><path stroke-width=".7969681200000001" stroke-miterlimit="10" fill="none" stroke="#000" d="m42.09 25.05-3.611 2.585 2.07-.275.543 2.017z"/><use xlink:href="#a" transform="matrix(9.9626 0 0 -9.9626 31.53 20.068)"/><use xlink:href="#b" transform="matrix(9.9626 0 0 -9.9626 38.535 20.387)"/><use xlink:href="#c" transform="matrix(9.9626 0 0 -9.9626 41.881 18.006)"/><symbol id="f"><path d="M.442.182H.408C.405.16.395.101.382.091.374.085.297.085.283.085H.099a3.5 3.5 0 0 0 .2.168c.074.059.143.121.143.216C.442.59.336.664.208.664.084.664 0 .577 0 .485 0 .434.043.429.053.429c.024 0 .053.017.053.053C.106.5.099.535.047.535a.157.157 0 0 0 .146.093c.1 0 .152-.078.152-.159C.345.382.283.313.251.277L.01.039C0 .03 0 .028 0 0h.412l.03.182z"/></symbol><use xlink:href="#f" transform="matrix(6.9738 0 0 -6.9738 46.501 19.391)"/><use xlink:href="#e" transform="matrix(9.9626 0 0 -9.9626 51.1 20.387)"/><path d="m14.372 66.626 56.694 14.173 28.346-42.52L42.72 24.106" fill="red" fill-opacity=".2"/><path d="M43.57 38.28a.85.85 0 1 0-1.702 0 .85.85 0 0 0 1.701 0zm-.851 0"/><symbol id="g"><path d="M.457.586C.461.6.461.602.461.609c0 .018-.014.027-.029.027A.043.043 0 0 1 .397.615 1.87 1.87 0 0 1 .363.481L.318.301C.314.286.271.216.205.216.154.216.143.26.143.297c0 .046.017.108.051.196.016.041.02.052.02.072a.08.08 0 0 1-.082.082C.037.647 0 .502 0 .493c0-.01.01-.01.012-.01.01 0 .011.002.016.018.027.094.067.124.101.124.008 0 .025 0 .025-.032 0-.025-.01-.051-.017-.07a.66.66 0 0 1-.058-.21c0-.089.063-.119.122-.119.039 0 .073.017.101.045C.289.187.277.138.237.085.211.051.173.022.127.022.113.022.068.025.051.064c.016 0 .029 0 .043.012.01.009.02.022.02.041 0 .031-.027.035-.037.035C.054.152.021.136.021.087.021.037.065 0 .127 0 .23 0 .333.091.361.204l.096.382z"/></symbol><use xlink:href="#g" transform="matrix(9.9626 0 0 -9.9626 40.387 48.131)"/><path stroke-width=".399" stroke-miterlimit="10" fill="none" stroke="#000" d="M116.42 52.453h19.614"/><path d="m138.53 52.453-3.57-1.346 1.173 1.346-1.174 1.345z"/><path stroke-width=".399" stroke-miterlimit="10" fill="none" stroke="#000" d="m138.53 52.453-3.57-1.346 1.173 1.346-1.174 1.345z"/><symbol id="h"><path d="M.003.043 0 .027C0 .012.011 0 .028 0c.021 0 .033.018.035.021C.068.03.1.164.127.272.147.232.179.205.226.205c.117 0 .246.141.246.29 0 .106-.066.163-.139.163-.097 0-.202-.1-.232-.222L.003.043m.222.184c-.07 0-.086.08-.086.089l.008.037a.749.749 0 0 0 .06.188C.25.614.3.636.331.636.368.636.4.607.4.538A.606.606 0 0 0 .344.322C.311.259.263.227.225.227z"/></symbol><use xlink:href="#h" transform="matrix(9.9626 0 0 -9.9626 123.247 49.148)"/><use xlink:href="#d" transform="matrix(6.9738 0 0 -6.9738 128.86 48.49)"/><path stroke-width=".399" stroke-miterlimit="10" fill="none" stroke="#000" d="M141.933 66.626h110.323"/><path d="m254.752 66.626-3.57-1.346 1.174 1.346-1.175 1.346z"/><path stroke-width=".399" stroke-miterlimit="10" fill="none" stroke="#000" d="m254.752 66.626-3.57-1.346 1.174 1.346-1.175 1.346zM156.106 94.973V12.996"/><path d="m156.106 10.5-1.346 3.571 1.346-1.174 1.346 1.174z"/><path stroke-width=".399" stroke-miterlimit="10" fill="none" stroke="#000" d="m156.106 10.5-1.346 3.571 1.346-1.174 1.346 1.174z"/><path stroke-width=".797" stroke-miterlimit="10" fill="none" stroke="#000" d="M156.106 66.626h52.583"/><path d="m211.665 66.626-4.154-1.57 1.378 1.57-1.378 1.57z"/><path stroke-width=".797" stroke-miterlimit="10" fill="none" stroke="#000" d="m211.665 66.626-4.154-1.57 1.378 1.57-1.378 1.57z"/><use xlink:href="#a" transform="matrix(9.9626 0 0 -9.9626 200.211 80.007)"/><symbol id="i"><path d="M.242.431a.07.07 0 0 1 .009.032c0 .031-.028.055-.059.055C.154.518.142.487.137.471L.005.038A.142.142 0 0 1 0 .022C0 .01.031 0 .039 0c.007 0 .008.002.015.017l.188.414z"/></symbol><use xlink:href="#i" transform="matrix(6.9738 0 0 -6.9738 206.565 73.933)"/><use xlink:href="#b" transform="matrix(9.9626 0 0 -9.9626 210.011 80.326)"/><use xlink:href="#c" transform="matrix(9.9626 0 0 -9.9626 213.358 77.945)"/><use xlink:href="#d" transform="matrix(6.9738 0 0 -6.9738 218.298 79.329)"/><use xlink:href="#e" transform="matrix(9.9626 0 0 -9.9626 222.576 80.326)"/><path stroke-width=".797" stroke-miterlimit="10" fill="none" stroke="#000" d="m156.106 66.626 26.308-46.038"/><path d="m183.89 18.004-3.424 2.827 2.047-.416.68 1.975z"/><path stroke-width=".7969601500000001" stroke-miterlimit="10" fill="none" stroke="#000" d="m183.89 18.004-3.424 2.827 2.047-.416.68 1.975z"/><use xlink:href="#a" transform="matrix(9.9626 0 0 -9.9626 171.864 12.982)"/><use xlink:href="#i" transform="matrix(6.9738 0 0 -6.9738 178.219 6.908)"/><use xlink:href="#b" transform="matrix(9.9626 0 0 -9.9626 181.665 13.3)"/><use xlink:href="#c" transform="matrix(9.9626 0 0 -9.9626 185.011 10.92)"/><use xlink:href="#f" transform="matrix(6.9738 0 0 -6.9738 189.631 12.304)"/><use xlink:href="#e" transform="matrix(9.9626 0 0 -9.9626 194.229 13.3)"/><path d="M156.106 66.626H212.8l28.346-49.607h-56.693" fill="red" fill-opacity=".2"/><path d="M185.303 31.193a.85.85 0 1 0-1.7 0 .85.85 0 0 0 1.7 0zm-.85 0"/><use xlink:href="#g" transform="matrix(9.9626 0 0 -9.9626 180.722 44.244)"/><use xlink:href="#i" transform="matrix(6.9738 0 0 -6.9738 186.01 38.301)"/><path stroke-width=".399" stroke-miterlimit="10" fill="none" stroke="#000" d="M3.033 151.666h25.283"/><path d="m30.813 151.666-3.571-1.345 1.174 1.345-1.174 1.346z"/><path stroke-width=".399" stroke-miterlimit="10" fill="none" stroke="#000" d="m30.813 151.666-3.571-1.345 1.174 1.345-1.174 1.346z"/><use xlink:href="#h" transform="matrix(9.9626 0 0 -9.9626 12.696 148.36)"/><use xlink:href="#f" transform="matrix(6.9738 0 0 -6.9738 17.987 147.703)"/><path stroke-width=".399" stroke-miterlimit="10" fill="none" stroke="#000" d="M42.719 165.84h96.15"/><path d="m141.365 165.84-3.571-1.346 1.174 1.346-1.174 1.346z"/><path stroke-width=".399" stroke-miterlimit="10" fill="none" stroke="#000" d="m141.365 165.84-3.571-1.346 1.174 1.346-1.174 1.346zM71.066 194.187V112.21"/><path d="m71.066 109.714-1.346 3.57 1.346-1.174 1.345 1.175z"/><path stroke-width=".399" stroke-miterlimit="10" fill="none" stroke="#000" d="m71.066 109.714-1.346 3.57 1.346-1.174 1.345 1.175z"/><path stroke-width=".797" stroke-miterlimit="10" fill="none" stroke="#000" d="M71.066 165.84h52.583"/><path d="m126.624 165.84-4.153-1.57 1.377 1.57-1.377 1.57z"/><path stroke-width=".797" stroke-miterlimit="10" fill="none" stroke="#000" d="m126.624 165.84-4.153-1.57 1.377 1.57-1.377 1.57z"/><use xlink:href="#a" transform="matrix(9.9626 0 0 -9.9626 114.023 179.219)"/><use xlink:href="#i" transform="matrix(6.9738 0 0 -6.9738 120.377 173.146)"/><use xlink:href="#i" transform="matrix(6.9738 0 0 -6.9738 122.671 173.146)"/><use xlink:href="#b" transform="matrix(9.9626 0 0 -9.9626 126.12 179.538)"/><use xlink:href="#c" transform="matrix(9.9626 0 0 -9.9626 129.467 177.157)"/><use xlink:href="#d" transform="matrix(6.9738 0 0 -6.9738 134.408 178.541)"/><use xlink:href="#e" transform="matrix(9.9626 0 0 -9.9626 138.685 179.538)"/><path stroke-width=".797" stroke-miterlimit="10" fill="none" stroke="#000" d="M71.066 165.84v-45.497"/><path d="m71.066 117.368-1.571 4.153 1.57-1.377 1.571 1.377z"/><path stroke-width=".797" stroke-miterlimit="10" fill="none" stroke="#000" d="m71.066 117.368-1.571 4.153 1.57-1.377 1.571 1.377z"/><use xlink:href="#a" transform="matrix(9.9626 0 0 -9.9626 39.378 120.904)"/><use xlink:href="#i" transform="matrix(6.9738 0 0 -6.9738 45.732 114.83)"/><use xlink:href="#i" transform="matrix(6.9738 0 0 -6.9738 48.026 114.83)"/><use xlink:href="#b" transform="matrix(9.9626 0 0 -9.9626 51.475 121.223)"/><use xlink:href="#c" transform="matrix(9.9626 0 0 -9.9626 54.822 118.842)"/><use xlink:href="#f" transform="matrix(6.9738 0 0 -6.9738 59.442 120.226)"/><use xlink:href="#e" transform="matrix(9.9626 0 0 -9.9626 64.04 121.223)"/><path d="M71.066 165.84h56.693v-49.607H71.066" fill="red" fill-opacity=".2"/><path d="M80.015 130.406a.85.85 0 1 0-1.7 0 .85.85 0 0 0 1.7 0zm-.85 0"/><use xlink:href="#g" transform="matrix(9.9626 0 0 -9.9626 74.286 143.457)"/><use xlink:href="#i" transform="matrix(6.9738 0 0 -6.9738 79.574 137.513)"/><use xlink:href="#i" transform="matrix(6.9738 0 0 -6.9738 81.868 137.513)"/><path stroke-width=".399" stroke-miterlimit="10" fill="none" stroke="#000" d="M144.767 151.666h47.96"/><path d="m195.224 151.666-3.571-1.345 1.174 1.345-1.174 1.346z"/><path stroke-width=".399" stroke-miterlimit="10" fill="none" stroke="#000" d="m195.224 151.666-3.571-1.345 1.174 1.345-1.174 1.346z"/><symbol id="j"><path d="M.175.205C.197.201.279.185.279.113.279.062.244.022.166.022c-.084 0-.12.057-.139.142C.024.177.023.181.013.181 0 .181 0 .174 0 .156V.024C0 .007 0 0 .011 0c.005 0 .006.001.025.02.002.002.002.004.02.023A.15.15 0 0 1 .166 0c.115 0 .161.067.161.139 0 .053-.03.083-.042.095C.252.266.213.274.171.282.115.293.048.306.048.364.048.399.074.44.16.44.27.44.275.35.277.319.278.31.287.31.289.31c.013 0 .013.005.013.024v.101c0 .017 0 .024-.011.024-.005 0-.007 0-.02-.012A.129.129 0 0 0 .254.431C.216.459.175.459.16.459.038.459 0 .392 0 .336 0 .301.016.273.043.251.075.225.103.219.175.205z"/></symbol><symbol id="k"><path d="M.083.229c0 .163.082.205.135.205C.227.434.29.433.325.397.284.394.278.364.278.351c0-.026.018-.046.046-.046C.35.305.37.322.37.352.37.42.294.459.217.459.092.459 0 .351 0 .227 0 .099.099 0 .215 0c.134 0 .166.12.166.13 0 .01-.01.01-.013.01C.359.14.357.136.355.13.326.037.261.025.224.025.171.025.083.068.083.229z"/></symbol><symbol id="l"><path d="M.291.087C.295.047.322.005.369.005.39.005.451.019.451.1v.056H.426V.1C.426.042.401.036.39.036c-.033 0-.037.045-.037.05v.2c0 .042 0 .081-.036.118A.191.191 0 0 1 .18.459C.098.459.029.412.029.346c0-.03.02-.047.046-.047.028 0 .046.02.046.046C.121.357.116.39.07.391c.027.035.076.046.108.046.049 0 .106-.039.106-.128V.272C.233.269.163.266.1.236.025.202 0 .15 0 .106 0 .025.097 0 .16 0c.066 0 .112.04.131.087M.284.251v-.1C.284.056.212.022.167.022c-.049 0-.09.035-.09.085 0 .055.042.138.207.144z"/></symbol><symbol id="m"><path d="M.144.694 0 .683V.652C.07.652.078.645.078.596v-.52C.078.031.067.031 0 .031V0l.111.003L.222 0v.031c-.067 0-.078 0-.078.045v.618z"/></symbol><symbol id="n"><path d="M.144.442.004.431V.4C.069.4.078.394.078.345V.076C.078.031.067.031 0 .031V0l.11.003C.145.003.18.001.214 0v.031c-.066 0-.07.005-.07.044v.367m.004.174a.052.052 0 0 1-.053.053.054.054 0 0 1-.053-.053c0-.027.022-.053.053-.053.028 0 .053.021.053.053z"/></symbol><symbol id="o"><path d="M.078.344V.076C.078.031.067.031 0 .031V0l.113.003L.225 0v.031c-.067 0-.078 0-.078.045V.26c0 .104.071.16.135.16C.345.42.356.366.356.309V.076C.356.031.345.031.278.031V0l.113.003L.503 0v.031c-.052 0-.077 0-.078.03v.191c0 .086 0 .117-.031.153C.38.422.347.442.289.442.216.442.169.399.141.337v.105L0 .431V.4C.07.4.078.393.078.344z"/></symbol><symbol id="p"><path d="M.194.378c-.087 0-.087.1-.087.123 0 .027.001.059.016.084.008.012.031.04.071.04.087 0 .087-.1.087-.123A.164.164 0 0 0 .265.418a.086.086 0 0 0-.071-.04M.078.339c0 .004 0 .027.017.047A.17.17 0 0 1 .194.355c.093 0 .162.069.162.146a.135.135 0 0 1-.041.097.131.131 0 0 0 .09.039l.01-.001C.404.632.399.621.399.609.399.592.412.58.428.58c.01 0 .029.007.029.03a.049.049 0 0 1-.051.049A.154.154 0 0 1 .3.612a.167.167 0 0 1-.106.036C.101.648.032.579.032.502.032.458.054.42.079.399A.138.138 0 0 1 .048.316c0-.031.013-.069.044-.089C.032.21 0 .167 0 .127 0 .055.099 0 .221 0c.118 0 .222.051.222.129a.128.128 0 0 1-.065.114C.325.271.267.271.206.271L.131.272C.099.276.078.307.078.339M.222.023c-.101 0-.17.051-.17.104 0 .046.038.083.082.086h.059c.086 0 .198 0 .198-.086C.391.073.32.023.222.023z"/></symbol><use xlink:href="#j" transform="matrix(9.9626 0 0 -9.9626 155.843 146.318)"/><use xlink:href="#k" transform="matrix(9.9626 0 0 -9.9626 159.778 146.318)"/><use xlink:href="#l" transform="matrix(9.9626 0 0 -9.9626 164.281 146.318)"/><use xlink:href="#m" transform="matrix(9.9626 0 0 -9.9626 169.173 146.208)"/><use xlink:href="#n" transform="matrix(9.9626 0 0 -9.9626 171.942 146.208)"/><use xlink:href="#o" transform="matrix(9.9626 0 0 -9.9626 174.702 146.208)"/><use xlink:href="#p" transform="matrix(9.9626 0 0 -9.9626 180.201 148.26)"/><path stroke-width=".399" stroke-miterlimit="10" fill="none" stroke="#000" d="M198.626 165.84h53.63"/><path d="m254.752 165.84-3.57-1.346 1.174 1.346-1.175 1.346z"/><path stroke-width=".399" stroke-miterlimit="10" fill="none" stroke="#000" d="m254.752 165.84-3.57-1.346 1.174 1.346-1.175 1.346zM212.8 194.187v-67.803"/><path d="m212.8 123.887-1.346 3.571 1.346-1.174 1.345 1.174z"/><path stroke-width=".399" stroke-miterlimit="10" fill="none" stroke="#000" d="m212.8 123.887-1.346 3.571 1.346-1.174 1.345 1.174z"/><path stroke-width=".797" stroke-miterlimit="10" fill="none" stroke="#000" d="M212.8 165.84h24.236"/><path d="m240.011 165.84-4.153-1.57 1.377 1.57-1.377 1.57z"/><path stroke-width=".797" stroke-miterlimit="10" fill="none" stroke="#000" d="m240.011 165.84-4.153-1.57 1.377 1.57-1.377 1.57z"/><use xlink:href="#c" transform="matrix(9.9626 0 0 -9.9626 237.048 173.957)"/><use xlink:href="#d" transform="matrix(6.9738 0 0 -6.9738 241.99 175.341)"/><path stroke-width=".797" stroke-miterlimit="10" fill="none" stroke="#000" d="M212.8 165.84v-24.237"/><path d="m212.8 138.628-1.571 4.153 1.57-1.377 1.571 1.377z"/><path stroke-width=".797" stroke-miterlimit="10" fill="none" stroke="#000" d="m212.8 138.628-1.571 4.153 1.57-1.377 1.571 1.377z"/><use xlink:href="#c" transform="matrix(9.9626 0 0 -9.9626 200.428 138.999)"/><use xlink:href="#f" transform="matrix(6.9738 0 0 -6.9738 205.048 140.384)"/><path d="M212.8 165.84h28.346v-28.347H212.8" fill="red" fill-opacity=".2"/><path d="M217.7 145.592a.85.85 0 1 0-1.701 0 .85.85 0 0 0 1.7 0zm-.85 0"/><symbol id="q"><path d="M.305.313c.006.026.029.118.099.118.005 0 .029 0 .05-.013A.058.058 0 0 1 .406.364c0-.016.011-.035.038-.035.022 0 .054.018.054.058 0 .052-.059.066-.093.066C.347.453.312.4.3.377a.11.11 0 0 1-.108.076C.088.453.031.324.031.299c0-.01.01-.01.012-.01.008 0 .011.002.013.011.034.106.1.131.134.131.019 0 .054-.009.054-.067C.244.333.227.266.19.126.174.064.139.022.095.022c-.006 0-.029 0-.05.013C.07.04.092.061.092.089.092.116.07.124.055.124A.057.057 0 0 1 0 .066C0 .02.05 0 .094 0 .16 0 .196.07.199.076A.11.11 0 0 1 .307 0c.103 0 .16.129.16.154 0 .01-.009.01-.012.01C.446.164.444.16.442.153.409.046.341.022.309.022.27.022.254.054.254.088c0 .022.006.044.017.088l.034.137z"/></symbol><use xlink:href="#q" transform="matrix(9.9626 0 0 -9.9626 214.289 153.51)"/></svg>