<svg xmlns="http://www.w3.org/2000/svg" xmlns:xlink="http://www.w3.org/1999/xlink" width="176.86" height="80.89pt" viewBox="0 0 132.645 80.89"><symbol id="a"><path d="M.252.314h.036l.15-.232C.448.066.472.027.483.012.49 0 .493 0 .516 0h.138c.018 0 .033 0 .033.018 0 .008-.006.015-.015.017C.635.043.586.109.562.141.555.151.505.217.438.325c.089.016.175.054.175.173 0 .139-.147.187-.265.187H.034C.016.685 0 .685 0 .667 0 .65.019.65.027.65.084.65.089.643.089.593V.092C.089.042.084.035.027.035.019.035 0 .035 0 .018 0 0 .016 0 .034 0h.274c.018 0 .033 0 .033.018 0 .017-.017.017-.028.017-.057 0-.061.008-.061.057v.222m.193.049C.473.4.476.453.476.497a.226.226 0 0 1-.038.142C.479.63.578.599.578.498.578.433.548.382.445.363M.252.596c0 .021 0 .054.062.054C.399.65.441.615.441.497.441.368.41.349.252.349v.247M.116.035A.154.154 0 0 1 .124.09v.505c0 .01 0 .037-.008.055H.23C.217.634.217.614.217.599V.09c0-.01 0-.037.008-.055H.116m.213.279.019.002C.363.316.385.318.4.32.415.296.523.118.606.035H.509l-.18.279z"/></symbol><use xlink:href="#a" transform="matrix(9.9626 0 0 -9.9626 34.537 14.562)"/><use xlink:href="#a" transform="matrix(9.9626 0 0 -9.9626 88.52 14.562)"/><symbol id="b"><path d="M.075.073a.378.378 0 0 1-.01-.041C.065.01.083 0 .099 0a.05.05 0 0 1 .039.022.408.408 0 0 1 .018.062l.022.09.017.067c.011.041.013.049.042.09.028.04.075.092.15.092.058 0 .059-.051.059-.07C.446.293.403.182.387.14.376.112.372.103.372.086.372.033.416 0 .467 0c.1 0 .144.138.144.153 0 .013-.013.013-.016.013C.581.166.58.16.576.149.553.069.51.028.47.028.449.028.445.042.445.063c0 .023.005.036.023.081a.733.733 0 0 1 .053.193c0 .097-.077.114-.13.114A.213.213 0 0 1 .222.36C.215.429.156.451.115.451.072.451.049.42.036.397A.355.355 0 0 1 0 .298C0 .285.014.285.017.285c.014 0 .015.003.022.03.015.059.034.108.073.108.026 0 .033-.022.033-.049A.442.442 0 0 0 .129.291a3.78 3.78 0 0 1-.022-.09L.075.073z"/></symbol><use xlink:href="#b" transform="matrix(6.9738 0 0 -6.9738 95.883 11.016)"/><use xlink:href="#a" transform="matrix(9.9626 0 0 -9.9626 3.48 71.255)"/><use xlink:href="#b" transform="matrix(6.9738 0 0 -6.9738 10.844 67.709)"/><use xlink:href="#a" transform="matrix(9.9626 0 0 -9.9626 60.172 71.255)"/><use xlink:href="#b" transform="matrix(6.9738 0 0 -6.9738 67.537 67.709)"/><use xlink:href="#a" transform="matrix(9.9626 0 0 -9.9626 116.865 71.255)"/><use xlink:href="#b" transform="matrix(6.9738 0 0 -6.9738 124.23 67.709)"/><path stroke-width=".399" stroke-dasharray="2.98883,2.98883" stroke-miterlimit="10" fill="none" stroke="#929292" d="M46.48 11.13h36.622"/><path d="m85.599 11.13-3.571-1.346 1.174 1.345-1.174 1.346z" fill="#929292"/><path stroke-width=".399" stroke-miterlimit="10" fill="none" stroke="#929292" d="m85.599 11.13-3.571-1.346 1.174 1.345-1.174 1.346z"/><symbol id="c"><path d="M.305.313c.006.026.029.118.099.118.005 0 .029 0 .05-.013A.058.058 0 0 1 .406.364c0-.016.011-.035.038-.035.022 0 .054.018.054.058 0 .052-.059.066-.093.066C.347.453.312.4.3.377a.11.11 0 0 1-.108.076C.088.453.031.324.031.299c0-.01.01-.01.012-.01.008 0 .011.002.013.011.034.106.1.131.134.131.019 0 .054-.009.054-.067C.244.333.227.266.19.126.174.064.139.022.095.022c-.006 0-.029 0-.05.013C.07.04.092.061.092.089.092.116.07.124.055.124A.057.057 0 0 1 0 .066C0 .02.05 0 .094 0 .16 0 .196.07.199.076A.11.11 0 0 1 .307 0c.103 0 .16.129.16.154 0 .01-.009.01-.012.01C.446.164.444.16.442.153.409.046.341.022.309.022.27.022.254.054.254.088c0 .022.006.044.017.088l.034.137z"/></symbol><use xlink:href="#c" transform="matrix(9.9626 0 0 -9.9626 63.765 7.72)" fill="#929292"/><path stroke-width=".399" stroke-miterlimit="10" fill="none" stroke="red" d="M34.292 18.5 14.685 57.712"/><path d="m13.569 59.945 2.8-2.592-1.728.449-.679-1.652z" fill="red"/><path stroke-width=".39897606" stroke-miterlimit="10" fill="none" stroke="red" d="m13.569 59.945 2.8-2.592-1.728.449-.679-1.652z"/><symbol id="d"><path d="M.457.586C.461.6.461.602.461.609c0 .018-.014.027-.029.027A.043.043 0 0 1 .397.615 1.87 1.87 0 0 1 .363.481L.318.301C.314.286.271.216.205.216.154.216.143.26.143.297c0 .046.017.108.051.196.016.041.02.052.02.072a.08.08 0 0 1-.082.082C.037.647 0 .502 0 .493c0-.01.01-.01.012-.01.01 0 .011.002.016.018.027.094.067.124.101.124.008 0 .025 0 .025-.032 0-.025-.01-.051-.017-.07a.66.66 0 0 1-.058-.21c0-.089.063-.119.122-.119.039 0 .073.017.101.045C.289.187.277.138.237.085.211.051.173.022.127.022.113.022.068.025.051.064c.016 0 .029 0 .043.012.01.009.02.022.02.041 0 .031-.027.035-.037.035C.054.152.021.136.021.087.021.037.065 0 .127 0 .23 0 .333.091.361.204l.096.382z"/></symbol><use xlink:href="#d" transform="matrix(9.9626 0 0 -9.9626 15.33 42.695)" fill="red"/><path stroke-width=".399" stroke-miterlimit="10" fill="none" stroke="#00f" d="M87.867 15.665 18.983 61.588"/><path d="m16.906 62.973 3.717-.862-1.723-.468.23-1.77z" fill="#00f"/><path stroke-width=".39898404" stroke-miterlimit="10" fill="none" stroke="#00f" d="m16.906 62.973 3.717-.862-1.723-.468.23-1.77z"/><symbol id="e"><path d="M.12.048C.116.035.115.033.115.028.115.006.134 0 .144 0c.005 0 .027.003.037.026.003.008.008.041.035.183C.225.208.232.207.249.207c.166 0 .32.157.32.315C.569.6.53.66.455.66.31.66.25.466.19.271.082.291.026.347.026.419c0 .028.023.138.083.207.008.009.008.011.008.013 0 .004-.002.01-.012.01C.077.649 0 .504 0 .408 0 .314.066.241.173.216L.12.048m.138.217L.24.266C.228.266.227.267.227.27l.02.108c.031.128.109.224.198.224C.514.602.541.548.541.5.541.387.412.265.258.265z"/></symbol><use xlink:href="#e" transform="matrix(9.9626 0 0 -9.9626 28.13 50.365)" fill="#00f"/><path stroke-width=".399" stroke-miterlimit="10" fill="none" stroke="red" d="m41.662 18.5 19.606 39.213"/><path d="m62.385 59.945-.394-3.795-.678 1.652-1.729-.449z" fill="red"/><path stroke-width=".39897606" stroke-miterlimit="10" fill="none" stroke="red" d="m62.385 59.945-.394-3.795-.678 1.652-1.729-.449z"/><use xlink:href="#d" transform="matrix(9.9626 0 0 -9.9626 47.968 58.468)" fill="red"/><symbol id="f"><path d="M.242.431a.07.07 0 0 1 .009.032c0 .031-.028.055-.059.055C.154.518.142.487.137.471L.005.038A.142.142 0 0 1 0 .022C0 .01.031 0 .039 0c.007 0 .008.002.015.017l.188.414z"/></symbol><use xlink:href="#f" transform="matrix(6.9738 0 0 -6.9738 53.256 52.525)" fill="red"/><path stroke-width=".399" stroke-miterlimit="10" fill="none" stroke="#00f" d="M90.985 18.5 71.38 57.712"/><path d="m70.263 59.945 2.8-2.592-1.729.449-.678-1.652z" fill="#00f"/><path stroke-width=".39897606" stroke-miterlimit="10" fill="none" stroke="#00f" d="m70.263 59.945 2.8-2.592-1.729.449-.678-1.652z"/><use xlink:href="#e" transform="matrix(9.9626 0 0 -9.9626 77.427 58.598)" fill="#00f"/><use xlink:href="#f" transform="matrix(6.9738 0 0 -6.9738 83.78 52.525)" fill="#00f"/><path stroke-width=".399" stroke-miterlimit="10" fill="none" stroke="red" d="m44.78 15.665 68.885 45.923"/><path d="m115.742 62.973-2.225-3.1.23 1.77-1.723.468z" fill="red"/><path stroke-width=".39898404" stroke-miterlimit="10" fill="none" stroke="red" d="m115.742 62.973-2.225-3.1.23 1.77-1.723.468z"/><use xlink:href="#d" transform="matrix(9.9626 0 0 -9.9626 96.878 50.235)" fill="red"/><use xlink:href="#f" transform="matrix(6.9738 0 0 -6.9738 102.166 44.292)" fill="red"/><use xlink:href="#f" transform="matrix(6.9738 0 0 -6.9738 104.46 44.292)" fill="red"/><path stroke-width=".399" stroke-miterlimit="10" fill="none" stroke="#00f" d="m98.356 18.5 19.606 39.213"/><path d="m119.078 59.945-.393-3.795-.679 1.652-1.728-.449z" fill="#00f"/><path stroke-width=".39897606" stroke-miterlimit="10" fill="none" stroke="#00f" d="m119.078 59.945-.393-3.795-.679 1.652-1.728-.449z"/><use xlink:href="#e" transform="matrix(9.9626 0 0 -9.9626 112.86 44.425)" fill="#00f"/><use xlink:href="#f" transform="matrix(6.9738 0 0 -6.9738 119.214 38.352)" fill="#00f"/><use xlink:href="#f" transform="matrix(6.9738 0 0 -6.9738 121.508 38.352)" fill="#00f"/><path stroke-width=".399" stroke-miterlimit="10" fill="none" stroke="#000" d="M18.134 67.823h36.622"/><path d="m57.252 67.823-3.571-1.346 1.174 1.346-1.174 1.346z"/><path stroke-width=".399" stroke-miterlimit="10" fill="none" stroke="#000" d="m57.252 67.823-3.571-1.346 1.174 1.346-1.174 1.346z"/><symbol id="g"><path d="M.003.043 0 .027C0 .012.011 0 .028 0c.021 0 .033.018.035.021C.068.03.1.164.127.272.147.232.179.205.226.205c.117 0 .246.141.246.29 0 .106-.066.163-.139.163-.097 0-.202-.1-.232-.222L.003.043m.222.184c-.07 0-.086.08-.086.089l.008.037a.749.749 0 0 0 .06.188C.25.614.3.636.331.636.368.636.4.607.4.538A.606.606 0 0 0 .344.322C.311.259.263.227.225.227z"/></symbol><use xlink:href="#g" transform="matrix(9.9626 0 0 -9.9626 33.465 77.784)"/><symbol id="h"><path d="M.226.636c0 .027-.002.028-.03.028C.132.601.041.6 0 .6V.564c.024 0 .09 0 .145.028v-.51c0-.033 0-.046-.1-.046H.007V0l.178.004L.364 0v.036H.326c-.1 0-.1.013-.1.046v.554z"/></symbol><use xlink:href="#h" transform="matrix(6.9738 0 0 -6.9738 39.077 77.127)"/><path stroke-width=".399" stroke-miterlimit="10" fill="none" stroke="#000" d="M74.828 67.823h36.621"/><path d="m113.946 67.823-3.572-1.346 1.175 1.346-1.175 1.346z"/><path stroke-width=".399" stroke-miterlimit="10" fill="none" stroke="#000" d="m113.946 67.823-3.572-1.346 1.175 1.346-1.175 1.346z"/><use xlink:href="#g" transform="matrix(9.9626 0 0 -9.9626 90.158 77.784)"/><symbol id="i"><path d="M.442.182H.408C.405.16.395.101.382.091.374.085.297.085.283.085H.099a3.5 3.5 0 0 0 .2.168c.074.059.143.121.143.216C.442.59.336.664.208.664.084.664 0 .577 0 .485 0 .434.043.429.053.429c.024 0 .053.017.053.053C.106.5.099.535.047.535a.157.157 0 0 0 .146.093c.1 0 .152-.078.152-.159C.345.382.283.313.251.277L.01.039C0 .03 0 .028 0 0h.412l.03.182z"/></symbol><use xlink:href="#i" transform="matrix(6.9738 0 0 -6.9738 95.45 77.127)"/></svg>