<svg xmlns="http://www.w3.org/2000/svg" xmlns:xlink="http://www.w3.org/1999/xlink" width="330.901" height="236.04" viewBox="0 0 248.176 177.03"><symbol id="a"><path d="M.252.314h.036l.15-.232C.448.066.472.027.483.012.49 0 .493 0 .516 0h.138c.018 0 .033 0 .033.018 0 .008-.006.015-.015.017C.635.043.586.109.562.141.555.151.505.217.438.325c.089.016.175.054.175.173 0 .139-.147.187-.265.187H.034C.016.685 0 .685 0 .667 0 .65.019.65.027.65.084.65.089.643.089.593V.092C.089.042.084.035.027.035.019.035 0 .035 0 .018 0 0 .016 0 .034 0h.274c.018 0 .033 0 .033.018 0 .017-.017.017-.028.017-.057 0-.061.008-.061.057v.222m.193.049C.473.4.476.453.476.497a.226.226 0 0 1-.038.142C.479.63.578.599.578.498.578.433.548.382.445.363M.252.596c0 .021 0 .054.062.054C.399.65.441.615.441.497.441.368.41.349.252.349v.247M.116.035A.154.154 0 0 1 .124.09v.505c0 .01 0 .037-.008.055H.23C.217.634.217.614.217.599V.09c0-.01 0-.037.008-.055H.116m.213.279.019.002C.363.316.385.318.4.32.415.296.523.118.606.035H.509l-.18.279z"/></symbol><use xlink:href="#a" transform="matrix(9.9626 0 0 -9.9626 117.938 10.184)"/><symbol id="b"><path d="M.075.073a.378.378 0 0 1-.01-.041C.065.01.083 0 .099 0a.05.05 0 0 1 .039.022.408.408 0 0 1 .018.062l.022.09.017.067c.011.041.013.049.042.09.028.04.075.092.15.092.058 0 .059-.051.059-.07C.446.293.403.182.387.14.376.112.372.103.372.086.372.033.416 0 .467 0c.1 0 .144.138.144.153 0 .013-.013.013-.016.013C.581.166.58.16.576.149.553.069.51.028.47.028.449.028.445.042.445.063c0 .023.005.036.023.081a.733.733 0 0 1 .053.193c0 .097-.077.114-.13.114A.213.213 0 0 1 .222.36C.215.429.156.451.115.451.072.451.049.42.036.397A.355.355 0 0 1 0 .298C0 .285.014.285.017.285c.014 0 .015.003.022.03.015.059.034.108.073.108.026 0 .033-.022.033-.049A.442.442 0 0 0 .129.291a3.78 3.78 0 0 1-.022-.09L.075.073z"/></symbol><use xlink:href="#b" transform="matrix(6.9738 0 0 -6.9738 125.302 6.638)"/><use xlink:href="#a" transform="matrix(9.9626 0 0 -9.9626 3.48 123.569)"/><symbol id="c"><path d="M.387.091C.382.071.373.037.373.032.373.01.391 0 .407 0a.05.05 0 0 1 .039.022.408.408 0 0 1 .018.062l.022.09.017.067c.011.043.011.045.031.076.032.049.082.106.16.106.056 0 .059-.046.059-.07C.753.293.71.182.694.14.683.112.679.103.679.086.679.033.723 0 .774 0c.1 0 .144.138.144.153 0 .013-.013.013-.016.013C.888.166.887.16.883.149.86.069.817.028.777.028.756.028.752.042.752.063c0 .023.005.036.023.081a.733.733 0 0 1 .053.193c0 .016 0 .058-.037.087a.148.148 0 0 1-.093.027C.608.451.553.392.521.35.513.435.442.451.391.451A.213.213 0 0 1 .222.36C.215.429.156.451.115.451.072.451.049.42.036.397A.355.355 0 0 1 0 .298C0 .285.014.285.017.285c.014 0 .015.003.022.03.015.059.034.108.073.108.026 0 .033-.022.033-.049A.442.442 0 0 0 .129.291a3.78 3.78 0 0 1-.022-.09L.075.073a.378.378 0 0 1-.01-.041C.065.01.083 0 .099 0a.05.05 0 0 1 .039.022.408.408 0 0 1 .018.062l.022.09.017.067c.011.041.013.049.042.09.028.04.075.092.15.092.058 0 .059-.051.059-.07A.345.345 0 0 0 .429.259L.387.091z"/></symbol><use xlink:href="#c" transform="matrix(6.9738 0 0 -6.9738 10.844 120.024)"/><use xlink:href="#a" transform="matrix(9.9626 0 0 -9.9626 60.172 123.569)"/><use xlink:href="#c" transform="matrix(6.9738 0 0 -6.9738 67.537 120.024)"/><symbol id="d"><path d="M.106.053a.053.053 0 0 1-.053.053A.053.053 0 0 1 0 .053C0 .024.024 0 .053 0c.029 0 .053.024.053.053z"/></symbol><use xlink:href="#d" transform="matrix(9.9626 0 0 -9.9626 119.133 120.39)"/><use xlink:href="#d" transform="matrix(9.9626 0 0 -9.9626 123.566 120.39)"/><use xlink:href="#d" transform="matrix(9.9626 0 0 -9.9626 127.99 120.39)"/><use xlink:href="#a" transform="matrix(9.9626 0 0 -9.9626 173.558 123.569)"/><use xlink:href="#c" transform="matrix(6.9738 0 0 -6.9738 180.922 120.024)"/><use xlink:href="#a" transform="matrix(9.9626 0 0 -9.9626 230.251 123.569)"/><use xlink:href="#c" transform="matrix(6.9738 0 0 -6.9738 237.615 120.024)"/><path stroke-width=".399" stroke-miterlimit="10" fill="none" stroke="#000" d="M120.403 14.122 72.45 110.029"/><path d="m71.333 112.262 2.8-2.592-1.728.448-.678-1.652z"/><path stroke-width=".39896808000000006" stroke-miterlimit="10" fill="none" stroke="#000" d="m71.333 112.262 2.8-2.592-1.728.448-.678-1.652z"/><path stroke-width=".399" stroke-miterlimit="10" fill="none" stroke="#000" d="m127.773 14.122 47.953 95.907"/><path d="m176.843 112.262-.394-3.796-.678 1.652-1.729-.448z"/><path stroke-width=".39896808000000006" stroke-miterlimit="10" fill="none" stroke="#000" d="m176.843 112.262-.394-3.796-.678 1.652-1.729-.448z"/><path stroke-width="2.989" stroke-miterlimit="10" fill="none" stroke="#fff" d="M19.205 114.47c64.892-37.465 144.874-37.465 209.766 0"/><path stroke-width=".399" stroke-miterlimit="10" fill="none" stroke="#000" d="M118.135 12.705 18.82 112.02"/><path d="m17.055 113.785 3.477-1.574-1.782-.12-.121-1.783z"/><path stroke-width=".39899601" stroke-miterlimit="10" fill="none" stroke="#000" d="m17.055 113.785 3.477-1.574-1.782-.12-.121-1.783z"/><symbol id="e"><path d="M.12.048C.116.035.115.033.115.028.115.006.134 0 .144 0c.005 0 .027.003.037.026.003.008.008.041.035.183C.225.208.232.207.249.207c.166 0 .32.157.32.315C.569.6.53.66.455.66.31.66.25.466.19.271.082.291.026.347.026.419c0 .028.023.138.083.207.008.009.008.011.008.013 0 .004-.002.01-.012.01C.077.649 0 .504 0 .408 0 .314.066.241.173.216L.12.048m.138.217L.24.266C.228.266.227.267.227.27l.02.108c.031.128.109.224.198.224C.514.602.541.548.541.5.541.387.412.265.258.265z"/></symbol><use xlink:href="#e" transform="matrix(9.9626 0 0 -9.9626 57.856 60.16)"/><path stroke-width=".399" stroke-miterlimit="10" fill="none" stroke="#000" d="m130.041 12.705 99.315 99.315"/><path d="m231.12 113.785-1.573-3.477-.12 1.782-1.783.121z"/><path stroke-width=".39899601" stroke-miterlimit="10" fill="none" stroke="#000" d="m231.12 113.785-1.573-3.477-.12 1.782-1.783.121z"/><use xlink:href="#e" transform="matrix(9.9626 0 0 -9.9626 184.798 60.16)"/><symbol id="f"><path d="M.242.431a.07.07 0 0 1 .009.032c0 .031-.028.055-.059.055C.154.518.142.487.137.471L.005.038A.142.142 0 0 1 0 .022C0 .01.031 0 .039 0c.007 0 .008.002.015.017l.188.414z"/></symbol><use xlink:href="#f" transform="matrix(6.9738 0 0 -6.9738 191.153 54.087)"/><path stroke-width=".399" stroke-miterlimit="10" fill="none" stroke="#000" d="M19.205 118.722h36.621"/><path d="m58.323 118.722-3.571-1.346 1.174 1.346-1.174 1.346z"/><path stroke-width=".399" stroke-miterlimit="10" fill="none" stroke="#000" d="m58.323 118.722-3.571-1.346 1.174 1.346-1.174 1.346z"/><symbol id="g"><path d="M.003.043 0 .027C0 .012.011 0 .028 0c.021 0 .033.018.035.021C.068.03.1.164.127.272.147.232.179.205.226.205c.117 0 .246.141.246.29 0 .106-.066.163-.139.163-.097 0-.202-.1-.232-.222L.003.043m.222.184c-.07 0-.086.08-.086.089l.008.037a.749.749 0 0 0 .06.188C.25.614.3.636.331.636.368.636.4.607.4.538A.606.606 0 0 0 .344.322C.311.259.263.227.225.227z"/></symbol><use xlink:href="#g" transform="matrix(9.9626 0 0 -9.9626 32.552 115.415)"/><symbol id="h"><path d="M.226.636c0 .027-.002.028-.03.028C.132.601.041.6 0 .6V.564c.024 0 .09 0 .145.028v-.51c0-.033 0-.046-.1-.046H.007V0l.178.004L.364 0v.036H.326c-.1 0-.1.013-.1.046v.554z"/></symbol><use xlink:href="#h" transform="matrix(6.9738 0 0 -6.9738 38.164 114.758)"/><use xlink:href="#h" transform="matrix(6.9738 0 0 -6.9738 42.14 114.758)"/><path stroke-width=".399" stroke-miterlimit="10" fill="none" stroke="#000" d="M75.899 118.722h33.787"/><path d="m112.182 118.722-3.571-1.346 1.174 1.346-1.174 1.346z"/><path stroke-width=".399" stroke-miterlimit="10" fill="none" stroke="#000" d="m112.182 118.722-3.571-1.346 1.174 1.346-1.174 1.346z"/><use xlink:href="#g" transform="matrix(9.9626 0 0 -9.9626 87.827 115.415)"/><symbol id="i"><path d="M.442.182H.408C.405.16.395.101.382.091.374.085.297.085.283.085H.099a3.5 3.5 0 0 0 .2.168c.074.059.143.121.143.216C.442.59.336.664.208.664.084.664 0 .577 0 .485 0 .434.043.429.053.429c.024 0 .053.017.053.053C.106.5.099.535.047.535a.157.157 0 0 0 .146.093c.1 0 .152-.078.152-.159C.345.382.283.313.251.277L.01.039C0 .03 0 .028 0 0h.412l.03.182z"/></symbol><use xlink:href="#h" transform="matrix(6.9738 0 0 -6.9738 93.44 114.758)"/><use xlink:href="#i" transform="matrix(6.9738 0 0 -6.9738 97.093 114.758)"/><path stroke-width=".399" stroke-miterlimit="10" fill="none" stroke="#000" d="M135.427 118.722h33.787"/><path d="m171.71 118.722-3.571-1.346 1.174 1.346-1.174 1.346z"/><path stroke-width=".399" stroke-miterlimit="10" fill="none" stroke="#000" d="m171.71 118.722-3.571-1.346 1.174 1.346-1.174 1.346z"/><use xlink:href="#g" transform="matrix(9.9626 0 0 -9.9626 139.17 113.81)"/><symbol id="j"><path d="M.24.999A.6.6 0 0 1 0 .5.6.6 0 0 1 .24 0c.008 0 .02 0 .02.012C.26.018.257.02.25.027.117.147.068.317.068.499c0 .27.103.402.185.476C.257.979.26.982.26.987.26.999.248.999.24.999z"/></symbol><use xlink:href="#h" transform="matrix(6.9738 0 0 -6.9738 144.783 113.457)"/><use xlink:href="#j" transform="matrix(6.9738 0 0 -6.9738 148.8 115.193)"/><symbol id="k"><path d="m.188.212.026.101a.244.244 0 0 0 .063.082c.011.008.038.028.081.028.01 0 .035-.001.055-.014A.059.059 0 0 1 .369.354c0-.022.017-.037.04-.037s.056.019.056.061C.465.43.41.451.359.451.307.451.262.43.218.38.2.441.139.451.115.451.078.451.053.428.037.4A.364.364 0 0 1 0 .298C0 .285.014.285.017.285c.014 0 .015.003.022.03.015.061.034.108.073.108.026 0 .033-.022.033-.049A.442.442 0 0 0 .129.291a3.78 3.78 0 0 1-.022-.09L.075.073a.378.378 0 0 1-.01-.041C.065.01.083 0 .099 0c.015 0 .035.009.043.029l.019.075.027.108z"/></symbol><use xlink:href="#k" transform="matrix(6.9738 0 0 -6.9738 151.436 113.527)"/><symbol id="l"><path d="M.636 0c.016 0 .04 0 .04.024 0 .025-.023.025-.04.025H.04c-.016 0-.04 0-.04-.024C0 0 .023 0 .04 0h.596z"/></symbol><use xlink:href="#l" transform="matrix(6.9738 0 0 -6.9738 155.774 111.88)"/><symbol id="m"><path d="M.019.999C.012.999 0 .999 0 .987 0 .982.003.979.009.972.095.893.191.758.191.5.191.291.126.133.018.035.001.018 0 .017 0 .012 0 .007.003 0 .013 0 .025 0 .12.066.186.191a.667.667 0 0 1 .073.308.6.6 0 0 1-.24.5z"/></symbol><use xlink:href="#h" transform="matrix(6.9738 0 0 -6.9738 162.008 113.457)"/><use xlink:href="#m" transform="matrix(6.9738 0 0 -6.9738 165.718 115.193)"/><path stroke-width=".399" stroke-miterlimit="10" fill="none" stroke="#000" d="M189.286 118.722h36.621"/><path d="m228.404 118.722-3.572-1.346 1.175 1.346-1.175 1.346z"/><path stroke-width=".399" stroke-miterlimit="10" fill="none" stroke="#000" d="m228.404 118.722-3.572-1.346 1.175 1.346-1.175 1.346z"/><use xlink:href="#g" transform="matrix(9.9626 0 0 -9.9626 202.659 115.415)"/><use xlink:href="#h" transform="matrix(6.9738 0 0 -6.9738 208.271 114.758)"/><use xlink:href="#k" transform="matrix(6.9738 0 0 -6.9738 211.81 114.828)"/><path stroke-width=".399" stroke-miterlimit="10" fill="none" stroke="#000" d="M22.269 121.557H58.89"/><path d="m19.772 121.557 3.572 1.345-1.175-1.345 1.175-1.346z"/><path stroke-width=".399" stroke-miterlimit="10" fill="none" stroke="#000" d="m19.772 121.557 3.572 1.345-1.175-1.345 1.175-1.346z"/><use xlink:href="#g" transform="matrix(9.9626 0 0 -9.9626 31.424 135.983)"/><use xlink:href="#l" transform="matrix(6.9738 0 0 -6.9738 37.03 127.993)"/><use xlink:href="#h" transform="matrix(6.9738 0 0 -6.9738 43.263 129.569)"/><use xlink:href="#h" transform="matrix(6.9738 0 0 -6.9738 37.036 136.488)"/><use xlink:href="#h" transform="matrix(6.9738 0 0 -6.9738 41.011 136.488)"/><path stroke-width=".399" stroke-miterlimit="10" fill="none" stroke="#000" d="M78.962 121.557h33.787"/><path d="m76.466 121.557 3.571 1.345-1.174-1.345 1.174-1.346z"/><path stroke-width=".399" stroke-miterlimit="10" fill="none" stroke="#000" d="m76.466 121.557 3.571 1.345-1.174-1.345 1.174-1.346z"/><use xlink:href="#g" transform="matrix(9.9626 0 0 -9.9626 86.7 135.983)"/><use xlink:href="#l" transform="matrix(6.9738 0 0 -6.9738 92.305 127.993)"/><use xlink:href="#h" transform="matrix(6.9738 0 0 -6.9738 98.538 129.569)"/><use xlink:href="#h" transform="matrix(6.9738 0 0 -6.9738 92.312 136.488)"/><use xlink:href="#i" transform="matrix(6.9738 0 0 -6.9738 95.966 136.488)"/><path stroke-width=".399" stroke-miterlimit="10" fill="none" stroke="#000" d="M138.49 121.557h33.787"/><path d="m135.994 121.557 3.571 1.345-1.174-1.345 1.174-1.346z"/><path stroke-width=".399" stroke-miterlimit="10" fill="none" stroke="#000" d="m135.994 121.557 3.571 1.345-1.174-1.345 1.174-1.346z"/><use xlink:href="#g" transform="matrix(9.9626 0 0 -9.9626 139.17 135.983)"/><use xlink:href="#l" transform="matrix(6.9738 0 0 -6.9738 144.776 127.993)"/><use xlink:href="#h" transform="matrix(6.9738 0 0 -6.9738 151.01 129.569)"/><use xlink:href="#h" transform="matrix(6.9738 0 0 -6.9738 144.783 137.224)"/><use xlink:href="#j" transform="matrix(6.9738 0 0 -6.9738 148.8 138.96)"/><use xlink:href="#k" transform="matrix(6.9738 0 0 -6.9738 151.436 137.294)"/><use xlink:href="#l" transform="matrix(6.9738 0 0 -6.9738 155.774 135.648)"/><use xlink:href="#h" transform="matrix(6.9738 0 0 -6.9738 162.008 137.224)"/><use xlink:href="#m" transform="matrix(6.9738 0 0 -6.9738 165.718 138.96)"/><path stroke-width=".399" stroke-miterlimit="10" fill="none" stroke="#000" d="M192.35 121.557h36.621"/><path d="m189.853 121.557 3.571 1.345-1.174-1.345 1.174-1.346z"/><path stroke-width=".399" stroke-miterlimit="10" fill="none" stroke="#000" d="m189.853 121.557 3.571 1.345-1.174-1.345 1.174-1.346z"/><use xlink:href="#g" transform="matrix(9.9626 0 0 -9.9626 201.503 135.983)"/><use xlink:href="#l" transform="matrix(6.9738 0 0 -6.9738 207.108 127.993)"/><use xlink:href="#h" transform="matrix(6.9738 0 0 -6.9738 213.341 129.569)"/><use xlink:href="#h" transform="matrix(6.9738 0 0 -6.9738 207.115 136.488)"/><use xlink:href="#k" transform="matrix(6.9738 0 0 -6.9738 210.654 136.558)"/><path stroke-width=".399" stroke-miterlimit="10" fill="none" stroke="#000" d="M19.205 114.47c64.892-37.465 144.874-37.465 207.113-1.532"/><path d="m228.48 114.186-2.42-2.95.344 1.752-1.69.578z"/><path stroke-width=".39899202" stroke-miterlimit="10" fill="none" stroke="#000" d="m228.48 114.186-2.42-2.95.344 1.752-1.69.578z"/><path stroke-width=".399" stroke-miterlimit="10" fill="none" stroke="#000" d="M231.806 125.808c-51.024 51.025-164.412 51.025-213.27 2.167"/><path d="m16.771 126.21 1.574 3.477.121-1.782 1.782-.122z"/><path stroke-width=".39899601" stroke-miterlimit="10" fill="none" stroke="#000" d="m16.771 126.21 1.574 3.477.121-1.782 1.782-.122z"/><use xlink:href="#g" transform="matrix(9.9626 0 0 -9.9626 119.577 82.93)"/><use xlink:href="#h" transform="matrix(6.9738 0 0 -6.9738 125.19 82.273)"/><use xlink:href="#g" transform="matrix(9.9626 0 0 -9.9626 116.463 160.773)"/><use xlink:href="#l" transform="matrix(6.9738 0 0 -6.9738 122.068 152.783)"/><use xlink:href="#h" transform="matrix(6.9738 0 0 -6.9738 128.302 154.359)"/><use xlink:href="#h" transform="matrix(6.9738 0 0 -6.9738 122.075 161.277)"/></svg>