<?xml version="1.0" encoding="UTF-8" standalone="no"?>
<!DOCTYPE svg PUBLIC "-//W3C//DTD SVG 1.1//EN" "http://www.w3.org/Graphics/SVG/1.1/DTD/svg11.dtd">
<svg xmlns="http://www.w3.org/2000/svg" xmlns:xlink="http://www.w3.org/1999/xlink" version="1.1" width="92.058pt" height="83.408pt" viewBox="0 0 92.058 83.408">
<g enable-background="new">
<symbol id="font_0_4">
<path d="M .572 .591 C .62100008 .669 .66300007 .67200008 .70000007 .674 C .712 .6750001 .71300008 .69200006 .71300008 .693 C .71300008 .70100006 .70800009 .70500007 .70000007 .70500007 C .674 .70500007 .64500007 .702 .61800006 .702 C .58500006 .702 .55100008 .70500007 .51900008 .70500007 C .513 .70500007 .50000008 .70500007 .50000008 .68600007 C .50000008 .6750001 .509 .674 .51600006 .674 C .54300007 .67200008 .56200006 .66200008 .56200006 .64100006 C .56200006 .62600007 .54700008 .60400006 .54700008 .60300007 L .24000001 .115 L .17200002 .64400008 C .17200002 .6610001 .19500003 .674 .24100003 .674 C .25500003 .674 .26600004 .674 .26600004 .69400009 C .26600004 .70300009 .25800003 .70500007 .25200004 .70500007 C .21200001 .70500007 .169 .702 .12800002 .702 C .11000001 .702 .091 .70300009 .07300001 .70300009 C .055000009 .70300009 .036000007 .70500007 .019000002 .70500007 C .012000002 .70500007 0 .70500007 0 .68600007 C 0 .674 .009000003 .674 .024999999 .674 C .08100001 .674 .08200001 .665 .085 .64000007 L .164 .023000002 C .167 .0030000006 .171 0 .18400002 0 C .20000002 0 .20400003 .005000001 .21200001 .018000002 L .572 .591 Z "/>
</symbol>
<use xlink:href="#font_0_4" transform="matrix(9.9626,0,0,-9.9626,13.099906,15.943169)"/>
<symbol id="font_1_1">
<path d="M .22600001 .63600006 C .22600001 .66300007 .224 .66400006 .19600001 .66400006 C .132 .601 .041 .6 0 .6 L 0 .564 C .023999997 .564 .09000001 .564 .14500001 .592 L .14500001 .082 C .14500001 .049000004 .14500001 .036000004 .04500001 .036000004 L .0069999995 .036000004 L .0069999995 0 C .024999999 .001 .148 .004 .185 .004 C .21600002 .004 .34200005 .001 .36400003 0 L .36400003 .036000004 L .32600004 .036000004 C .22600001 .036000004 .22600001 .049000004 .22600001 .082 L .22600001 .63600006 Z "/>
</symbol>
<use xlink:href="#font_1_1" transform="matrix(6.9738,0,0,-6.9738,19.114144,17.217995)"/>
<use xlink:href="#font_0_4" transform="matrix(9.9626,0,0,-9.9626,69.79291,15.943169)"/>
<symbol id="font_1_2">
<path d="M .442 .18200001 L .40800003 .18200001 C .40500004 .16000001 .39500005 .101 .38200004 .091000009 C .374 .085 .29700003 .085 .28300003 .085 L .099 .085 C .20400003 .178 .23900002 .20600002 .29900003 .25300003 C .37300004 .312 .442 .374 .442 .469 C .442 .59000006 .33600004 .66400006 .20800004 .66400006 C .084 .66400006 0 .577 0 .485 C 0 .43400003 .043000007 .42900003 .053000004 .42900003 C .077 .42900003 .10600001 .446 .10600001 .48200003 C .10600001 .5 .099 .535 .047000007 .535 C .078 .606 .146 .628 .19300002 .628 C .293 .628 .34500004 .55 .34500004 .469 C .34500004 .38200004 .28300003 .31300003 .25100003 .277 L .010000005 .039 C 0 .030000002 0 .028 0 0 L .41200004 0 L .442 .18200001 Z "/>
</symbol>
<use xlink:href="#font_1_2" transform="matrix(6.9738,0,0,-6.9738,75.48634,17.217995)"/>
<symbol id="font_2_1">
<path d="M .252 .314 L .28800003 .314 L .43800003 .082 C .448 .066 .47200004 .027 .483 .012 C .49000005 0 .493 0 .51600006 0 L .65400007 0 C .67200008 0 .68700006 0 .68700006 .018000002 C .68700006 .026 .68100008 .033 .67200008 .035 C .63500007 .043 .5860001 .109000008 .56200006 .141 C .55500009 .15100001 .50500008 .21700001 .43800003 .32500003 C .52700009 .34100003 .61300006 .379 .61300006 .49800004 C .61300006 .637 .46600003 .68500009 .34800003 .68500009 L .034 .68500009 C .016 .68500009 0 .68500009 0 .66700008 C 0 .65000006 .019 .65000006 .027 .65000006 C .084 .65000006 .089 .643 .089 .59300008 L .089 .09200001 C .089 .042000005 .084 .035 .027 .035 C .019 .035 0 .035 0 .018000002 C 0 0 .016 0 .034 0 L .308 0 C .326 0 .34100003 0 .34100003 .018000002 C .34100003 .035 .324 .035 .31300003 .035 C .256 .035 .252 .043 .252 .09200001 L .252 .314 M .44500003 .363 C .47300003 .4 .476 .453 .476 .497 C .476 .545 .47000004 .59800007 .43800003 .63900008 C .47900004 .63000008 .57800009 .59900006 .57800009 .49800004 C .57800009 .43300004 .54800006 .38200004 .44500003 .363 M .252 .596 C .252 .61700007 .252 .65000006 .314 .65000006 C .39900003 .65000006 .441 .615 .441 .497 C .441 .36800004 .41000004 .349 .252 .349 L .252 .596 M .116 .035 C .124 .053000004 .124 .081 .124 .09 L .124 .595 C .124 .605 .124 .632 .116 .65000006 L .23 .65000006 C .21700001 .634 .21700001 .614 .21700001 .59900006 L .21700001 .09 C .21700001 .080000009 .21700001 .053000004 .22500001 .035 L .116 .035 M .32900004 .314 C .33600004 .31500004 .34 .316 .34800003 .316 C .363 .316 .38500003 .31800003 .4 .32000003 C .41500003 .296 .52300009 .11800001 .60600009 .035 L .50900009 .035 L .32900004 .314 Z "/>
</symbol>
<use xlink:href="#font_2_1" transform="matrix(9.9626,0,0,-9.9626,11.533402,73.190998)"/>
<symbol id="font_3_2">
<path d="M .075 .073 C .07100001 .060000004 .065 .035 .065 .032 C .065 .010000001 .083000008 0 .09900001 0 C .117 0 .133 .013 .138 .022 C .143 .031000004 .15100001 .063 .156 .084 C .161 .103 .172 .14900002 .178 .17400001 C .184 .19600001 .19000001 .21800001 .19500001 .24100001 C .20600002 .282 .20800002 .29 .237 .331 C .26500003 .37100003 .31200005 .423 .38700003 .423 C .44500003 .423 .44600005 .372 .44600005 .35300002 C .44600005 .293 .40300004 .18200001 .38700003 .14000002 C .37600003 .112 .37200005 .103 .37200005 .086 C .37200005 .033000005 .41600005 0 .467 0 C .56700006 0 .61100009 .13800001 .61100009 .15300001 C .61100009 .16600001 .59800007 .16600001 .595 .16600001 C .58100005 .16600001 .58000007 .16000001 .57600006 .14900002 C .55300006 .069000009 .51000007 .028 .47000004 .028 C .44900004 .028 .44500003 .042000005 .44500003 .063 C .44500003 .086 .45000003 .099 .46800006 .14400001 C .48000003 .17500001 .521 .28100003 .521 .337 C .521 .43400003 .44400005 .451 .39100004 .451 C .30800004 .451 .25200004 .4 .22200002 .36 C .21500002 .42900003 .156 .451 .114999998 .451 C .072 .451 .049 .42000003 .036000004 .397 C .014000002 .36 0 .303 0 .298 C 0 .285 .014000002 .285 .017 .285 C .031 .285 .032 .28800003 .039 .315 C .054 .374 .073 .423 .112 .423 C .138 .423 .145 .40100003 .145 .374 C .145 .35500003 .136 .31800003 .12900001 .291 C .12200001 .264 .112 .22300002 .10700001 .20100002 L .075 .073 Z "/>
</symbol>
<use xlink:href="#font_3_2" transform="matrix(6.9738,0,0,-6.9738,18.896769,69.64574)"/>
<use xlink:href="#font_2_1" transform="matrix(9.9626,0,0,-9.9626,67.153408,73.190998)"/>
<symbol id="font_3_1">
<path d="M .38700003 .091 C .38200004 .071 .37300004 .037 .37300004 .032 C .37300004 .010000001 .39100004 0 .40700004 0 C .42500005 0 .44100005 .013 .44600005 .022 C .45100004 .031000004 .45900006 .063 .46400006 .084 C .46900005 .103 .48000003 .14900002 .48600007 .17400001 C .49200005 .19600001 .49800004 .21800001 .503 .24100001 C .51400008 .284 .51400008 .286 .53400006 .317 C .56600007 .366 .61600008 .423 .69400009 .423 C .75000008 .423 .753 .377 .753 .35300002 C .753 .293 .71000006 .18200001 .69400009 .14000002 C .683 .112 .679 .103 .679 .086 C .679 .033000005 .72300007 0 .77400007 0 C .8740001 0 .91800007 .13800001 .91800007 .15300001 C .91800007 .16600001 .90500006 .16600001 .90200009 .16600001 C .8880001 .16600001 .887 .16000001 .8830001 .14900002 C .8600001 .069000009 .81700006 .028 .77700009 .028 C .75600007 .028 .75200006 .042000005 .75200006 .063 C .75200006 .086 .757 .099 .77500006 .14400001 C .78700008 .17500001 .82800009 .28100003 .82800009 .337 C .82800009 .35300002 .82800009 .395 .79100009 .42400003 C .77400007 .437 .74500009 .451 .6980001 .451 C .60800006 .451 .55300006 .39200003 .521 .35 C .513 .435 .44200004 .451 .39100004 .451 C .30800004 .451 .25200004 .4 .22200002 .36 C .21500002 .42900003 .156 .451 .114999998 .451 C .072 .451 .049 .42000003 .036000004 .397 C .014000002 .36 0 .303 0 .298 C 0 .285 .014000002 .285 .017 .285 C .031 .285 .032 .28800003 .039 .315 C .054 .374 .073 .423 .112 .423 C .138 .423 .145 .40100003 .145 .374 C .145 .35500003 .136 .31800003 .12900001 .291 C .12200001 .264 .112 .22300002 .10700001 .20100002 L .075 .073 C .07100001 .060000004 .065 .035 .065 .032 C .065 .010000001 .083000008 0 .09900001 0 C .117 0 .133 .013 .138 .022 C .143 .031000004 .15100001 .063 .156 .084 C .161 .103 .172 .14900002 .178 .17400001 C .184 .19600001 .19000001 .21800001 .19500001 .24100001 C .20600002 .282 .20800002 .29 .237 .331 C .26500003 .37100003 .31200005 .423 .38700003 .423 C .44500003 .423 .44600005 .372 .44600005 .35300002 C .44600005 .328 .44300003 .315 .42900003 .259 L .38700003 .091 Z "/>
</symbol>
<use xlink:href="#font_3_1" transform="matrix(6.9738,0,0,-6.9738,74.51677,69.64574)"/>
<path transform="matrix(1,0,0,-1,17.683,13.066994)" stroke-width=".3985" stroke-linecap="butt" stroke-miterlimit="10" stroke-linejoin="miter" fill="none" stroke="#000000" d="M 8.50412 0 L 45.12556 0 "/>
<path transform="matrix(1,0,0,-1,61.090379,13.066994)" d="M 4.21463 0 L .64343 1.34572 L 1.8178 0 L .64343 -1.34572 Z "/>
<path transform="matrix(1,0,0,-1,61.090379,13.066994)" stroke-width=".3985" stroke-linecap="butt" stroke-miterlimit="10" stroke-linejoin="miter" fill="none" stroke="#000000" d="M 4.21463 0 L .64343 1.34572 L 1.8178 0 L .64343 -1.34572 Z "/>
<symbol id="font_0_2">
<path d="M .120000008 .048000009 C .11600001 .034999998 .11500001 .033000009 .11500001 .027999998 C .11500001 .0059999974 .13400002 0 .14400001 0 C .14900002 0 .17100002 .003000006 .18100001 .026000008 C .18400002 .033999996 .18900001 .067 .216 .209 C .22500001 .208 .23200001 .207 .24900003 .207 C .41500003 .207 .569 .36400003 .569 .522 C .569 .6 .53000006 .66 .45499999 .66 C .31 .66 .25 .46600003 .19000001 .27100004 C .082 .291 .026000005 .347 .026000005 .41900004 C .026000005 .44700004 .049000008 .55700007 .10900001 .62600007 C .11700001 .63500007 .11700001 .637 .11700001 .63900008 C .11700001 .643 .11500001 .64900007 .105000007 .64900007 C .07700001 .64900007 0 .504 0 .40800003 C 0 .314 .066 .24100001 .17300001 .216 L .120000008 .048000009 M .25800003 .26500003 C .25 .26500003 .24800001 .26500003 .24000003 .266 C .22800003 .266 .22700002 .26700003 .22700002 .27 C .22700002 .272 .244 .36300005 .24700003 .37800003 C .278 .50600007 .356 .602 .44500003 .602 C .514 .602 .541 .54800006 .541 .5 C .541 .38700003 .412 .26500003 .25800003 .26500003 Z "/>
</symbol>
<use xlink:href="#font_0_2" transform="matrix(9.9626,0,0,-9.9626,43.26913,9.781839)"/>
<path transform="matrix(1,0,0,-1,17.683,13.066994)" stroke-width=".3985" stroke-linecap="butt" stroke-miterlimit="10" stroke-linejoin="miter" fill="none" stroke="#000000" d="M 0 -48.18947 L 0 -11.56802 "/>
<path transform="matrix(0,-1,-1,-0,17.683,26.353215)" d="M 4.21463 0 L .64343 1.34572 L 1.8178 0 L .64343 -1.34572 Z "/>
<path transform="matrix(0,-1,-1,-0,17.683,26.353215)" stroke-width=".3985" stroke-linecap="butt" stroke-miterlimit="10" stroke-linejoin="miter" fill="none" stroke="#000000" d="M 4.21463 0 L .64343 1.34572 L 1.8178 0 L .64343 -1.34572 Z "/>
<symbol id="font_0_1">
<path d="M .43600003 .24700003 C .43600003 .404 .343 .45300005 .269 .45300005 C .132 .45300005 0 .31000004 0 .16900002 C 0 .076000008 .060000004 0 .162 0 C .225 0 .29700003 .023000002 .37300004 .08400001 C .386 .031000004 .419 0 .464 0 C .517 0 .54800006 .055000005 .54800006 .071 C .54800006 .078 .542 .081 .536 .081 C .52900007 .081 .526 .078 .523 .071 C .505 .022000002 .46900005 .022000002 .467 .022000002 C .43600003 .022000002 .43600003 .1 .43600003 .124000009 C .43600003 .14500001 .43600003 .14700002 .446 .15900001 C .54 .277 .56100007 .39300005 .56100007 .39400003 C .56100007 .39600004 .56 .404 .549 .404 C .53900006 .404 .53900006 .40100003 .53400006 .38300003 C .51600006 .32000003 .48300005 .24400002 .43600003 .18500002 L .43600003 .24700003 M .36900003 .11000001 C .28100003 .033000005 .204 .022000002 .164 .022000002 C .10400001 .022000002 .074 .067 .074 .13100001 C .074 .18000002 .1 .28800003 .132 .33900003 C .17900002 .41200004 .23300001 .43100003 .268 .43100003 C .367 .43100003 .367 .3 .367 .22200002 C .367 .18500002 .367 .127 .36900003 .11000001 Z "/>
</symbol>
<use xlink:href="#font_0_1" transform="matrix(9.9626,0,0,-9.9626,3.7294667,42.920579)"/>
<use xlink:href="#font_1_1" transform="matrix(6.9738,0,0,-6.9738,10.4541449,44.30499)"/>
<path transform="matrix(1,0,0,-1,17.683,13.066994)" stroke-width=".3985" stroke-linecap="butt" stroke-miterlimit="10" stroke-linejoin="miter" fill="none" stroke="#000000" d="M 56.69362 -48.18947 L 56.69362 -11.56802 "/>
<path transform="matrix(0,-1,-1,-0,74.37662,26.353215)" d="M 4.21463 0 L .64343 1.34572 L 1.8178 0 L .64343 -1.34572 Z "/>
<path transform="matrix(0,-1,-1,-0,74.37662,26.353215)" stroke-width=".3985" stroke-linecap="butt" stroke-miterlimit="10" stroke-linejoin="miter" fill="none" stroke="#000000" d="M 4.21463 0 L .64343 1.34572 L 1.8178 0 L .64343 -1.34572 Z "/>
<use xlink:href="#font_0_1" transform="matrix(9.9626,0,0,-9.9626,78.303478,42.920579)"/>
<use xlink:href="#font_1_2" transform="matrix(6.9738,0,0,-6.9738,84.70835,44.30499)"/>
<path transform="matrix(1,0,0,-1,17.683,13.066994)" stroke-width=".3985" stroke-linecap="butt" stroke-miterlimit="10" stroke-linejoin="miter" fill="none" stroke="#000000" d="M 8.50412 -56.69362 L 45.12556 -56.69362 "/>
<path transform="matrix(1,0,0,-1,61.090379,69.76061)" d="M 4.21463 0 L .64343 1.34572 L 1.8178 0 L .64343 -1.34572 Z "/>
<path transform="matrix(1,0,0,-1,61.090379,69.76061)" stroke-width=".3985" stroke-linecap="butt" stroke-miterlimit="10" stroke-linejoin="miter" fill="none" stroke="#000000" d="M 4.21463 0 L .64343 1.34572 L 1.8178 0 L .64343 -1.34572 Z "/>
<symbol id="font_0_3">
<path d="M .14400001 .115 C .10400002 .048 .065 .034 .021000002 .031000002 C .009000003 .030000002 0 .030000002 0 .011000001 C 0 .0050000005 .0050000029 0 .013 0 C .040000004 0 .07100001 .003 .09900001 .003 C .13200002 .003 .16700001 0 .19900002 0 C .20500002 0 .21800003 0 .21800003 .019000002 C .21800003 .030000002 .20900002 .031000002 .20200002 .031000002 C .17900002 .033 .15500002 .041 .15500002 .066 C .15500002 .078 .16100002 .089 .16900002 .10300001 L .245 .231 L .49600003 .231 C .49800007 .21000001 .512 .074 .512 .064 C .512 .034 .46000005 .031000002 .44000004 .031000002 C .42600004 .031000002 .41600005 .031000002 .41600005 .011000001 C .41600005 0 .42800004 0 .43000005 0 C .47100006 0 .514 .003 .555 .003 C .58 .003 .643 0 .668 0 C .674 0 .686 0 .686 .020000002 C .686 .031000002 .676 .031000002 .663 .031000002 C .601 .031000002 .601 .038000004 .598 .067 L .537 .69200006 C .535 .712 .535 .716 .518 .716 C .502 .716 .49800007 .70900008 .492 .69900009 L .14400001 .115 M .26400004 .26200003 L .46100004 .592 L .493 .26200003 L .26400004 .26200003 Z "/>
</symbol>
<use xlink:href="#font_0_3" transform="matrix(9.9626,0,0,-9.9626,42.64169,80.08699)"/>
</g>
</svg>
