<svg xmlns="http://www.w3.org/2000/svg" xmlns:xlink="http://www.w3.org/1999/xlink" width="297.656" height="148.231" viewBox="0 0 223.242 111.173"><symbol id="a"><path d="M.471.404C.47.407.466.415.466.418l.029.023.175.135c.094.069.133.073.163.076.008.001.018.002.018.02C.851.676.848.683.84.683.818.683.793.68.769.68L.658.683c-.007 0-.019 0-.019-.02 0-.007.005-.01.012-.011C.673.65.682.645.682.631.682.613.652.59.646.585l-.39-.3.08.321C.345.642.347.652.42.652c.025 0 .034 0 .034.02C.454.681.446.683.44.683L.312.68.183.683c-.007 0-.02 0-.02-.019 0-.012.009-.012.029-.012A.59.59 0 0 0 .235.65C.251.648.257.645.257.634L.253.615.119.078C.109.039.107.031.028.031.011.031 0 .031 0 .012 0 0 .012 0 .015 0l.127.003.064-.001L.271 0c.007 0 .02 0 .02.02 0 .011-.009.011-.028.011-.037 0-.065 0-.065.018 0 .007.006.029.009.044l.04.157.149.116.116-.269C.524.07.524.068.524.062.524.032.481.031.472.031.461.031.45.031.45.011.45 0 .462 0 .464 0l.122.003L.684 0c.005 0 .018 0 .018.02 0 .011-.011.011-.02.011C.641.032.628.041.613.076L.471.404z"/></symbol><use xlink:href="#a" transform="matrix(9.9626 0 0 -9.9626 7.819 16.471)"/><symbol id="b"><path d="M.572.591C.621.669.663.672.7.674c.012.001.013.018.013.019C.713.701.708.705.7.705L.618.702.519.705C.513.705.5.705.5.686.5.675.509.674.516.674.543.672.562.662.562.641.562.626.547.604.547.603L.24.115.172.644c0 .017.023.03.069.03.014 0 .025 0 .025.02 0 .009-.008.011-.014.011L.128.702.073.703.019.705C.012.705 0 .705 0 .686 0 .674.009.674.025.674.081.674.082.665.085.64L.164.023C.167.003.171 0 .184 0 .2 0 .204.005.212.018l.36.573z"/></symbol><use xlink:href="#b" transform="matrix(9.9626 0 0 -9.9626 7.444 100.982)"/><symbol id="c"><path d="M.226.636c0 .027-.002.028-.03.028C.132.601.041.6 0 .6V.564c.024 0 .09 0 .145.028v-.51c0-.033 0-.046-.1-.046H.007V0l.178.004L.364 0v.036H.326c-.1 0-.1.013-.1.046v.554z"/></symbol><use xlink:href="#c" transform="matrix(6.9738 0 0 -6.9738 13.458 102.257)"/><use xlink:href="#b" transform="matrix(9.9626 0 0 -9.9626 92.484 100.982)"/><symbol id="d"><path d="M.442.182H.408C.405.16.395.101.382.091.374.085.297.085.283.085H.099a3.5 3.5 0 0 0 .2.168c.074.059.143.121.143.216C.442.59.336.664.208.664.084.664 0 .577 0 .485 0 .434.043.429.053.429c.024 0 .053.017.053.053C.106.5.099.535.047.535a.157.157 0 0 0 .146.093c.1 0 .152-.078.152-.159C.345.382.283.313.251.277L.01.039C0 .03 0 .028 0 0h.412l.03.182z"/></symbol><use xlink:href="#d" transform="matrix(6.9738 0 0 -6.9738 98.176 102.257)"/><path stroke-width=".399" stroke-miterlimit="10" fill="none" stroke="#000" d="M20.531 98.107H85.5"/><path d="m87.996 98.107-3.571-1.345 1.174 1.345-1.174 1.346z"/><path stroke-width=".399" stroke-miterlimit="10" fill="none" stroke="#000" d="m87.996 98.107-3.571-1.345 1.174 1.345-1.174 1.346z"/><symbol id="e"><path d="M.12.048C.116.035.115.033.115.028.115.006.134 0 .144 0c.005 0 .027.003.037.026.003.008.008.041.035.183C.225.208.232.207.249.207c.166 0 .32.157.32.315C.569.6.53.66.455.66.31.66.25.466.19.271.082.291.026.347.026.419c0 .028.023.138.083.207.008.009.008.011.008.013 0 .004-.002.01-.012.01C.077.649 0 .504 0 .408 0 .314.066.241.173.216L.12.048m.138.217L.24.266C.228.266.227.267.227.27l.02.108c.031.128.109.224.198.224C.514.602.541.548.541.5.541.387.412.265.258.265z"/></symbol><use xlink:href="#e" transform="matrix(9.9626 0 0 -9.9626 51.786 108.087)"/><path stroke-width=".399" stroke-miterlimit="10" fill="none" stroke="red" d="M12.027 21.571V86.54"/><path d="m12.027 89.036 1.346-3.571-1.346 1.174-1.346-1.174z" fill="red"/><path stroke-width=".399" stroke-miterlimit="10" fill="none" stroke="red" d="m12.027 89.036 1.346-3.571-1.346 1.174-1.346-1.174z"/><symbol id="f"><path d="M.439.383c0 .054-.026.07-.044.07C.37.453.346.427.346.405c0-.013.005-.019.016-.03A.107.107 0 0 0 .396.293C.396.251.335.022.218.022.167.022.144.057.144.109c0 .056.027.129.058.212a.123.123 0 0 1 .012.05.08.08 0 0 1-.082.082C.038.453 0 .308 0 .299c0-.01.01-.01.012-.01.01 0 .011.002.016.018C.057.408.1.431.129.431c.008 0 .025 0 .025-.032a.206.206 0 0 0-.017-.07A.61.61 0 0 1 .08.124C.08.016.168 0 .214 0c.168 0 .225.331.225.383z"/></symbol><use xlink:href="#f" transform="matrix(9.9626 0 0 -9.9626 3.61 57.84)" fill="red"/><path stroke-width=".399" stroke-miterlimit="10" fill="none" stroke="red" d="m17.696 18.736 71.536 71.536"/><path d="m90.997 92.037-1.574-3.477-.12 1.782-1.783.121z" fill="red"/><path stroke-width=".39899601" stroke-miterlimit="10" fill="none" stroke="red" d="m90.997 92.037-1.574-3.477-.12 1.782-1.783.121z"/><use xlink:href="#e" transform="matrix(9.9626 0 0 -9.9626 58.564 59.004)" fill="red"/><symbol id="g"><path d="M.389.194a.195.195 0 0 1-.194.194A.196.196 0 0 1 0 .194C0 .088.087 0 .195 0 .3 0 .389.087.389.194M.195.04a.154.154 0 1 0-.001.309A.154.154 0 0 0 .195.04z"/></symbol><use xlink:href="#g" transform="matrix(9.9626 0 0 -9.9626 67.345 56.274)" fill="red"/><use xlink:href="#f" transform="matrix(9.9626 0 0 -9.9626 74.282 56.942)" fill="red"/><path stroke-width=".797" stroke-miterlimit="10" fill="none" stroke="red" d="M14.862 61.256c11.338 8.505 25.512 8.505 35.023 1.107"/><path d="m52.234 60.536-4.243 1.31 2.052.394-.123 2.086z" fill="red"/><path stroke-width=".79697609" stroke-miterlimit="10" fill="none" stroke="red" d="m52.234 60.536-4.243 1.31 2.052.394-.123 2.086z"/><use xlink:href="#e" transform="matrix(9.9626 0 0 -9.9626 31.943 78.777)" fill="red"/><use xlink:href="#b" transform="matrix(9.9626 0 0 -9.9626 120.83 15.942)"/><use xlink:href="#c" transform="matrix(6.9738 0 0 -6.9738 126.844 17.218)"/><use xlink:href="#b" transform="matrix(9.9626 0 0 -9.9626 205.869 15.942)"/><use xlink:href="#d" transform="matrix(6.9738 0 0 -6.9738 211.562 17.218)"/><use xlink:href="#a" transform="matrix(9.9626 0 0 -9.9626 206.244 101.51)"/><path stroke-width=".399" stroke-miterlimit="10" fill="none" stroke="#000" d="M133.918 13.067h64.969"/><path d="m201.383 13.067-3.571-1.346 1.174 1.346-1.174 1.346z"/><path stroke-width=".399" stroke-miterlimit="10" fill="none" stroke="#000" d="m201.383 13.067-3.571-1.346 1.174 1.346-1.174 1.346z"/><use xlink:href="#e" transform="matrix(9.9626 0 0 -9.9626 165.172 9.782)"/><path stroke-width=".399" stroke-miterlimit="10" fill="none" stroke="#00f" d="M210.455 21.571V86.54"/><path d="m210.455 89.036 1.345-3.571-1.345 1.174-1.346-1.174z" fill="#00f"/><path stroke-width=".399" stroke-miterlimit="10" fill="none" stroke="#00f" d="m210.455 89.036 1.345-3.571-1.345 1.174-1.346-1.174z"/><symbol id="h"><path d="M.314.605H.4c.02 0 .03 0 .03.02C.43.636.42.636.403.636H.32L.341.75a.953.953 0 0 0 .024.104c.009.019.026.034.047.034.004 0 .03 0 .049-.018A.055.055 0 0 1 .407.816c0-.023.018-.035.037-.035.026 0 .055.022.055.06C.499.887.453.91.412.91.378.91.315.892.285.793.279.772.276.762.252.636H.183c-.019 0-.03 0-.03-.019 0-.012.009-.012.028-.012h.066L.172.21C.154.113.137.022.085.022c-.004 0-.029 0-.048.018a.054.054 0 0 1 .055.054c0 .023-.018.035-.037.035C.029.129 0 .107 0 .069 0 .024.044 0 .085 0 .14 0 .18.059.198.097a.894.894 0 0 1 .056.191l.06.317z"/></symbol><use xlink:href="#h" transform="matrix(9.9626 0 0 -9.9626 214.5 60.12)" fill="#00f"/><path stroke-width=".399" stroke-miterlimit="10" fill="none" stroke="#00f" d="m131.083 18.736 71.536 71.536"/><path d="m204.384 92.037-1.574-3.477-.12 1.782-1.783.121z" fill="#00f"/><path stroke-width=".39899601" stroke-miterlimit="10" fill="none" stroke="#00f" d="m204.384 92.037-1.574-3.477-.12 1.782-1.783.121z"/><use xlink:href="#h" transform="matrix(9.9626 0 0 -9.9626 143.064 60.12)" fill="#00f"/><use xlink:href="#g" transform="matrix(9.9626 0 0 -9.9626 151.248 57.52)" fill="#00f"/><use xlink:href="#e" transform="matrix(9.9626 0 0 -9.9626 158.393 60.249)" fill="#00f"/><path stroke-width=".797" stroke-miterlimit="10" fill="none" stroke="#00f" d="M172.596 48.812c9.512-7.398 23.685-7.398 35.024 1.106"/><path d="m170.248 50.639 4.242-1.31-2.051-.395.123-2.085z" fill="#00f"/><path stroke-width=".79697609" stroke-miterlimit="10" fill="none" stroke="#00f" d="m170.248 50.639 4.242-1.31-2.051-.395.123-2.085z"/><use xlink:href="#e" transform="matrix(9.9626 0 0 -9.9626 184.141 40.377)" fill="#00f"/><symbol id="i"><path d="M.234.215c.082.036.119.05.144.062.019.008.028.012.028.031A.031.031 0 0 1 .375.34C.368.34.366.34.354.331L.218.24l.015.148c.002.018 0 .043-.03.043C.191.431.172.423.172.401L.177.352.188.24.053.331C.043.337.04.34.031.34A.031.031 0 0 1 0 .308C0 .288.012.283.021.279L.172.216C.09.18.053.166.028.154.009.146 0 .142 0 .123 0 .106.013.091.031.091.038.091.04.091.052.1l.136.091L.172.03C.172.008.191 0 .203 0s.031.008.031.03L.229.079a7.187 7.187 0 0 0-.011.112l.12-.08c.026-.02.028-.02.037-.02.018 0 .031.015.031.032 0 .02-.012.025-.021.029L.234.215z"/></symbol><use xlink:href="#i" transform="matrix(6.9738 0 0 -6.9738 190.782 34.353)" fill="#00f"/></svg>