<svg xmlns="http://www.w3.org/2000/svg" xmlns:xlink="http://www.w3.org/1999/xlink" width="121.776" height="114.639" viewBox="0 0 91.332 85.979"><symbol id="a"><path d="M.232.01c0 .003 0 .005-.017.022C.09.158.058.347.058.5c0 .174.038.348.161.473.013.012.013.014.013.017 0 .007-.004.01-.01.01-.01 0-.1-.068-.159-.195A.727.727 0 0 1 0 .5C0 .422.011.301.066.188A.432.432 0 0 1 .222 0c.006 0 .01.003.01.01z"/></symbol><use xlink:href="#a" transform="matrix(9.9626 0 0 -9.9626 4.307 20.62)"/><symbol id="b"><path d="M.471.404C.47.407.466.415.466.418l.029.023.175.135c.094.069.133.073.163.076.008.001.018.002.018.02C.851.676.848.683.84.683.818.683.793.68.769.68L.658.683c-.007 0-.019 0-.019-.02 0-.007.005-.01.012-.011C.673.65.682.645.682.631.682.613.652.59.646.585l-.39-.3.08.321C.345.642.347.652.42.652c.025 0 .034 0 .034.02C.454.681.446.683.44.683L.312.68.183.683c-.007 0-.02 0-.02-.019 0-.012.009-.012.029-.012A.59.59 0 0 0 .235.65C.251.648.257.645.257.634L.253.615.119.078C.109.039.107.031.028.031.011.031 0 .031 0 .012 0 0 .012 0 .015 0l.127.003.064-.001L.271 0c.007 0 .02 0 .02.02 0 .011-.009.011-.028.011-.037 0-.065 0-.065.018 0 .007.006.029.009.044l.04.157.149.116.116-.269C.524.07.524.068.524.062.524.032.481.031.472.031.461.031.45.031.45.011.45 0 .462 0 .464 0l.122.003L.684 0c.005 0 .018 0 .018.02 0 .011-.011.011-.02.011C.641.032.628.041.613.076L.471.404z"/></symbol><use xlink:href="#b" transform="matrix(9.9626 0 0 -9.9626 7.574 18.129)"/><symbol id="c"><path d="M.387.091C.382.071.373.037.373.032.373.01.391 0 .407 0a.05.05 0 0 1 .039.022.408.408 0 0 1 .018.062l.022.09.017.067c.011.043.011.045.031.076.032.049.082.106.16.106.056 0 .059-.046.059-.07C.753.293.71.182.694.14.683.112.679.103.679.086.679.033.723 0 .774 0c.1 0 .144.138.144.153 0 .013-.013.013-.016.013C.888.166.887.16.883.149.86.069.817.028.777.028.756.028.752.042.752.063c0 .023.005.036.023.081a.733.733 0 0 1 .053.193c0 .016 0 .058-.037.087a.148.148 0 0 1-.093.027C.608.451.553.392.521.35.513.435.442.451.391.451A.213.213 0 0 1 .222.36C.215.429.156.451.115.451.072.451.049.42.036.397A.355.355 0 0 1 0 .298C0 .285.014.285.017.285c.014 0 .015.003.022.03.015.059.034.108.073.108.026 0 .033-.022.033-.049A.442.442 0 0 0 .129.291a3.78 3.78 0 0 1-.022-.09L.075.073a.378.378 0 0 1-.01-.041C.065.01.083 0 .099 0a.05.05 0 0 1 .039.022.408.408 0 0 1 .018.062l.022.09.017.067c.011.041.013.049.042.09.028.04.075.092.15.092.058 0 .059-.051.059-.07A.345.345 0 0 0 .429.259L.387.091z"/></symbol><use xlink:href="#c" transform="matrix(6.9738 0 0 -6.9738 16.697 14.583)"/><symbol id="d"><path d="M.232.5a.729.729 0 0 1-.066.312A.432.432 0 0 1 .01 1C.004 1 0 .996 0 .99 0 .987 0 .985.019.967.117.868.174.709.174.5.174.329.137.153.013.027 0 .015 0 .013 0 .01 0 .004.004 0 .01 0c.01 0 .1.068.159.195C.22.305.232.416.232.5z"/></symbol><use xlink:href="#d" transform="matrix(9.9626 0 0 -9.9626 24.505 20.62)"/><symbol id="e"><path d="M.234.215c.082.036.119.05.144.062.019.008.028.012.028.031A.031.031 0 0 1 .375.34C.368.34.366.34.354.331L.218.24l.015.148c.002.018 0 .043-.03.043C.191.431.172.423.172.401L.177.352.188.24.053.331C.043.337.04.34.031.34A.031.031 0 0 1 0 .308C0 .288.012.283.021.279L.172.216C.09.18.053.166.028.154.009.146 0 .142 0 .123 0 .106.013.091.031.091.038.091.04.091.052.1l.136.091L.172.03C.172.008.191 0 .203 0s.031.008.031.03L.229.079a7.187 7.187 0 0 0-.011.112l.12-.08c.026-.02.028-.02.037-.02.018 0 .031.015.031.032 0 .02-.012.025-.021.029L.234.215z"/></symbol><use xlink:href="#e" transform="matrix(6.9738 0 0 -6.9738 28.432 14.276)"/><use xlink:href="#a" transform="matrix(9.9626 0 0 -9.9626 62.072 20.62)"/><use xlink:href="#b" transform="matrix(9.9626 0 0 -9.9626 65.339 18.129)"/><symbol id="f"><path d="M.075.073a.378.378 0 0 1-.01-.041C.065.01.083 0 .099 0a.05.05 0 0 1 .039.022.408.408 0 0 1 .018.062l.022.09.017.067c.011.041.013.049.042.09.028.04.075.092.15.092.058 0 .059-.051.059-.07C.446.293.403.182.387.14.376.112.372.103.372.086.372.033.416 0 .467 0c.1 0 .144.138.144.153 0 .013-.013.013-.016.013C.581.166.58.16.576.149.553.069.51.028.47.028.449.028.445.042.445.063c0 .023.005.036.023.081a.733.733 0 0 1 .053.193c0 .097-.077.114-.13.114A.213.213 0 0 1 .222.36C.215.429.156.451.115.451.072.451.049.42.036.397A.355.355 0 0 1 0 .298C0 .285.014.285.017.285c.014 0 .015.003.022.03.015.059.034.108.073.108.026 0 .033-.022.033-.049A.442.442 0 0 0 .129.291a3.78 3.78 0 0 1-.022-.09L.075.073z"/></symbol><use xlink:href="#f" transform="matrix(6.9738 0 0 -6.9738 74.462 14.583)"/><use xlink:href="#d" transform="matrix(9.9626 0 0 -9.9626 80.125 20.62)"/><use xlink:href="#e" transform="matrix(6.9738 0 0 -6.9738 84.052 14.276)"/><use xlink:href="#b" transform="matrix(9.9626 0 0 -9.9626 9.864 75.735)"/><use xlink:href="#c" transform="matrix(6.9738 0 0 -6.9738 18.987 72.189)"/><use xlink:href="#b" transform="matrix(9.9626 0 0 -9.9626 67.629 75.735)"/><use xlink:href="#f" transform="matrix(6.9738 0 0 -6.9738 76.752 72.189)"/><path stroke-width=".399" stroke-miterlimit="10" fill="none" stroke="#000" d="M33.447 15.638h22.448"/><path d="m58.391 15.638-3.57-1.346 1.173 1.346-1.174 1.346z"/><path stroke-width=".399" stroke-miterlimit="10" fill="none" stroke="#000" d="m58.391 15.638-3.57-1.346 1.173 1.346-1.174 1.346z"/><symbol id="g"><path d="M.12.048C.116.035.115.033.115.028.115.006.134 0 .144 0c.005 0 .027.003.037.026.003.008.008.041.035.183C.225.208.232.207.249.207c.166 0 .32.157.32.315C.569.6.53.66.455.66.31.66.25.466.19.271.082.291.026.347.026.419c0 .028.023.138.083.207.008.009.008.011.008.013 0 .004-.002.01-.012.01C.077.649 0 .504 0 .408 0 .314.066.241.173.216L.12.048m.138.217L.24.266C.228.266.227.267.227.27l.02.108c.031.128.109.224.198.224C.514.602.541.548.541.5.541.387.412.265.258.265z"/></symbol><use xlink:href="#g" transform="matrix(9.9626 0 0 -9.9626 41.152 12.353)"/><use xlink:href="#e" transform="matrix(6.9738 0 0 -6.9738 47.792 6.329)"/><path stroke-width=".399" stroke-miterlimit="10" fill="none" stroke="#000" d="M27.778 72.332h33.786"/><path d="m64.06 72.332-3.57-1.346 1.174 1.346-1.175 1.345z"/><path stroke-width=".399" stroke-miterlimit="10" fill="none" stroke="#000" d="m64.06 72.332-3.57-1.346 1.174 1.346-1.175 1.345z"/><symbol id="h"><path d="M.144.115C.104.048.065.034.021.031.009.03 0 .03 0 .011 0 .005.005 0 .013 0l.086.003.1-.003c.006 0 .019 0 .019.019C.218.03.209.031.202.031.179.033.155.041.155.066c0 .012.006.023.014.037l.076.128h.251L.512.064C.512.034.46.031.44.031c-.014 0-.024 0-.024-.02C.416 0 .428 0 .43 0l.125.003L.668 0c.006 0 .018 0 .018.02 0 .011-.01.011-.023.011-.062 0-.062.007-.065.036L.537.692C.535.712.535.716.518.716.502.716.498.709.492.699L.144.115m.12.147.197.33.032-.33H.264z"/></symbol><use xlink:href="#h" transform="matrix(9.9626 0 0 -9.9626 42.815 82.658)"/><path stroke-width=".399" stroke-miterlimit="10" fill="none" stroke="#000" d="M17.856 63.827V27.206"/><path d="m17.856 24.71-1.346 3.57 1.346-1.174 1.346 1.175z"/><path stroke-width=".399" stroke-miterlimit="10" fill="none" stroke="#000" d="m17.856 24.71-1.346 3.57 1.346-1.174 1.346 1.175z"/><symbol id="i"><path d="M.436.247c0 .157-.093.206-.167.206C.132.453 0 .31 0 .169 0 .076.06 0 .162 0c.063 0 .135.023.211.084C.386.031.419 0 .464 0c.053 0 .084.055.084.071 0 .007-.006.01-.012.01-.007 0-.01-.003-.013-.01C.505.022.469.022.467.022.436.022.436.1.436.124c0 .021 0 .023.01.035a.578.578 0 0 1 .115.235c0 .002-.001.01-.012.01-.01 0-.01-.003-.015-.021A.59.59 0 0 0 .436.185v.062M.369.11A.311.311 0 0 0 .164.022c-.06 0-.09.045-.09.109C.074.18.1.288.132.339c.047.073.101.092.136.092C.367.431.367.3.367.222c0-.037 0-.095.002-.112z"/></symbol><use xlink:href="#i" transform="matrix(9.9626 0 0 -9.9626 8.334 46.239)"/><path stroke-width=".399" stroke-miterlimit="10" fill="none" stroke="#000" d="M74.55 63.827V27.206"/><path d="m74.55 24.71-1.346 3.57 1.346-1.174 1.345 1.175z"/><path stroke-width=".399" stroke-miterlimit="10" fill="none" stroke="#000" d="m74.55 24.71-1.346 3.57 1.346-1.174 1.345 1.175z"/><symbol id="j"><path d="M.546.763A.133.133 0 0 1 .41.9.175.175 0 0 1 .289.858.427.427 0 0 1 .16.645L.001.01C0 .006.005 0 .013 0s.011.002.012.005l.07.276C.114.221.158.184.231.184c.073 0 .148.035.193.079.048.046.08.11.08.184a.18.18 0 0 1-.073.149c.058.033.115.095.115.167M.366.597A.118.118 0 0 0 .318.59C.304.59.284.589.274.594c.002.01.038.008.049.008.021 0 .03 0 .043-.005M.49.786A.21.21 0 0 0 .4.613a.198.198 0 0 1-.077.012C.302.625.246.626.246.593.245.565.297.568.315.568a.18.18 0 0 1 .082.013C.435.545.44.514.441.468a.32.32 0 0 0-.05-.172.217.217 0 0 0-.163-.09C.152.206.114.264.114.335c0 .01 0 .025.005.044l.064.253c.022.086.094.245.214.245C.455.877.49.846.49.786z"/></symbol><use xlink:href="#j" transform="matrix(9.9626 0 0 -9.9626 78.357 48.408)"/></svg>