<?xml version="1.0" encoding="UTF-8" standalone="no"?>
<!DOCTYPE svg PUBLIC "-//W3C//DTD SVG 1.1//EN" "http://www.w3.org/Graphics/SVG/1.1/DTD/svg11.dtd">
<svg xmlns="http://www.w3.org/2000/svg" xmlns:xlink="http://www.w3.org/1999/xlink" version="1.1" width="308.736pt" height="253.768pt" viewBox="0 0 308.736 253.768">
<g enable-background="new">
<path transform="matrix(1,0,0,-1,138.458,126.20901)" stroke-width=".79701" stroke-linecap="butt" stroke-miterlimit="10" stroke-linejoin="miter" fill="none" stroke="#000000" d="M 0 0 L 38.62097 -12.87367 "/>
<path transform="matrix(.94864,.31621,.31621,-.94864,174.74048,138.3032)" d="M 5.44046 0 L 1.28699 1.5706 L 2.66432 0 L 1.28699 -1.5706 Z "/>
<path transform="matrix(.94864,.31621,.31621,-.94864,174.74048,138.3032)" stroke-width=".79701" stroke-linecap="butt" stroke-miterlimit="10" stroke-linejoin="miter" fill="none" stroke="#000000" d="M 5.44046 0 L 1.28699 1.5706 L 2.66432 0 L 1.28699 -1.5706 Z "/>
<symbol id="font_0_1">
<path d="M .43600003 .24700003 C .43600003 .404 .343 .45300005 .269 .45300005 C .132 .45300005 0 .31000004 0 .16900002 C 0 .076000008 .060000004 0 .162 0 C .225 0 .29700003 .023000002 .37300004 .08400001 C .386 .031000004 .419 0 .464 0 C .517 0 .54800006 .055000005 .54800006 .071 C .54800006 .078 .542 .081 .536 .081 C .52900007 .081 .526 .078 .523 .071 C .505 .022000002 .46900005 .022000002 .467 .022000002 C .43600003 .022000002 .43600003 .1 .43600003 .124000009 C .43600003 .14500001 .43600003 .14700002 .446 .15900001 C .54 .277 .56100007 .39300005 .56100007 .39400003 C .56100007 .39600004 .56 .404 .549 .404 C .53900006 .404 .53900006 .40100003 .53400006 .38300003 C .51600006 .32000003 .48300005 .24400002 .43600003 .18500002 L .43600003 .24700003 M .36900003 .11000001 C .28100003 .033000005 .204 .022000002 .164 .022000002 C .10400001 .022000002 .074 .067 .074 .13100001 C .074 .18000002 .1 .28800003 .132 .33900003 C .17900002 .41200004 .23300001 .43100003 .268 .43100003 C .367 .43100003 .367 .3 .367 .22200002 C .367 .18500002 .367 .127 .36900003 .11000001 Z "/>
</symbol>
<use xlink:href="#font_0_1" transform="matrix(9.9626,0,0,-9.9626,175.96446,148.5006)"/>
<symbol id="font_1_1">
<path d="M .22600001 .63600006 C .22600001 .66300007 .224 .66400006 .19600001 .66400006 C .132 .601 .041 .6 0 .6 L 0 .564 C .023999997 .564 .09000001 .564 .14500001 .592 L .14500001 .082 C .14500001 .049000004 .14500001 .036000004 .04500001 .036000004 L .0069999995 .036000004 L .0069999995 0 C .024999999 .001 .148 .004 .185 .004 C .21600002 .004 .34200005 .001 .36400003 0 L .36400003 .036000004 L .32600004 .036000004 C .22600001 .036000004 .22600001 .049000004 .22600001 .082 L .22600001 .63600006 Z "/>
</symbol>
<use xlink:href="#font_1_1" transform="matrix(6.9738,0,0,-6.9738,182.69014,149.88501)"/>
<path transform="matrix(1,0,0,-1,138.458,126.20901)" stroke-width=".79701" stroke-linecap="butt" stroke-miterlimit="10" stroke-linejoin="miter" fill="none" stroke="#000000" d="M 0 0 L 25.44035 25.44035 "/>
<path transform="matrix(.7071,-.7071,-.7071,-.7071,162.15528,102.51173)" d="M 5.44046 0 L 1.28699 1.5706 L 2.66432 0 L 1.28699 -1.5706 Z "/>
<path transform="matrix(.7071,-.7071,-.7071,-.7071,162.15528,102.51173)" stroke-width=".79701" stroke-linecap="butt" stroke-miterlimit="10" stroke-linejoin="miter" fill="none" stroke="#000000" d="M 5.44046 0 L 1.28699 1.5706 L 2.66432 0 L 1.28699 -1.5706 Z "/>
<use xlink:href="#font_0_1" transform="matrix(9.9626,0,0,-9.9626,161.79146,92.75859)"/>
<symbol id="font_1_2">
<path d="M .442 .18200001 L .40800003 .18200001 C .40500004 .16000001 .39500005 .101 .38200004 .091000009 C .374 .085 .29700003 .085 .28300003 .085 L .099 .085 C .20400003 .178 .23900002 .20600002 .29900003 .25300003 C .37300004 .312 .442 .374 .442 .469 C .442 .59000006 .33600004 .66400006 .20800004 .66400006 C .084 .66400006 0 .577 0 .485 C 0 .43400003 .043000007 .42900003 .053000004 .42900003 C .077 .42900003 .10600001 .446 .10600001 .48200003 C .10600001 .5 .099 .535 .047000007 .535 C .078 .606 .146 .628 .19300002 .628 C .293 .628 .34500004 .55 .34500004 .469 C .34500004 .38200004 .28300003 .31300003 .25100003 .277 L .010000005 .039 C 0 .030000002 0 .028 0 0 L .41200004 0 L .442 .18200001 Z "/>
</symbol>
<use xlink:href="#font_1_2" transform="matrix(6.9738,0,0,-6.9738,168.19535,94.144)"/>
<path transform="matrix(1,0,0,-1,138.458,126.20901)" d="M 0 0 L 42.5202 -14.17339 L 70.867 14.17339 L 28.3468 28.3468 " fill="#ff0000" fill-opacity=".3"/>
<symbol id="font_0_4">
<path d="M .59300008 .71700009 C .59300008 .72 .591 .72700008 .582 .72700008 C .577 .72700008 .57600006 .7260001 .56400009 .7120001 L .51600006 .65500006 C .49000008 .702 .43800003 .72700008 .37300004 .72700008 C .246 .72700008 .126 .61200007 .126 .49100004 C .126 .41000004 .179 .36400003 .23 .34900005 L .337 .32100005 C .374 .31200005 .42900003 .29700003 .42900003 .215 C .42900003 .12500002 .347 .031000004 .24900003 .031000004 C .18500002 .031000004 .074 .053000004 .074 .177 C .074 .201 .07900001 .22500001 .08 .231 C .081 .23500002 .082 .23600002 .082 .238 C .082 .24800001 .075 .24900002 .07000001 .24900002 C .065000008 .24900002 .063 .24800001 .060000004 .245 C .056 .24100001 0 .013000001 0 .010000002 C 0 .0040000008 .0050000029 0 .011 0 C .016000003 0 .017000005 .0010000002 .029 .0150000019 L .07800001 .072000008 C .12100001 .014000001 .18900001 0 .24700003 0 C .38300003 0 .50100007 .13300002 .50100007 .25700004 C .50100007 .32600004 .46700008 .36000005 .45200003 .37400005 C .42900003 .39700005 .41400004 .40100003 .325 .42400003 C .30300004 .43000005 .26700003 .44000004 .25800003 .44200004 C .23100002 .45100004 .19700001 .48000006 .19700001 .53300008 C .19700001 .614 .277 .69900009 .37200005 .69900009 C .45500005 .69900009 .51600006 .656 .51600006 .544 C .51600006 .512 .512 .49400006 .512 .48800005 C .512 .48700006 .512 .47800005 .52400007 .47800005 C .53400006 .47800005 .535 .48100005 .53900006 .49800004 L .59300008 .71700009 Z "/>
</symbol>
<use xlink:href="#font_0_4" transform="matrix(9.9626,0,0,-9.9626,171.06705,122.74518)"/>
<path transform="matrix(1,0,0,-1,138.458,126.20901)" stroke-width=".79701" stroke-linecap="butt" stroke-miterlimit="10" stroke-linejoin="miter" fill="none" stroke="#000000" d="M -85.04042 56.69362 L -46.41945 43.81993 "/>
<path transform="matrix(.94864,.31621,.31621,-.94864,89.70007,81.6096)" d="M 5.44046 0 L 1.28699 1.5706 L 2.66432 0 L 1.28699 -1.5706 Z "/>
<path transform="matrix(.94864,.31621,.31621,-.94864,89.70007,81.6096)" stroke-width=".79701" stroke-linecap="butt" stroke-miterlimit="10" stroke-linejoin="miter" fill="none" stroke="#000000" d="M 5.44046 0 L 1.28699 1.5706 L 2.66432 0 L 1.28699 -1.5706 Z "/>
<use xlink:href="#font_0_1" transform="matrix(9.9626,0,0,-9.9626,90.92546,91.80759)"/>
<use xlink:href="#font_1_1" transform="matrix(6.9738,0,0,-6.9738,97.65014,93.192)"/>
<path transform="matrix(1,0,0,-1,138.458,126.20901)" stroke-width=".3985" stroke-linecap="butt" stroke-dasharray="2.98883,2.98883" stroke-miterlimit="10" stroke-linejoin="miter" fill="none" stroke="#929292" d="M -85.04042 56.69362 L -58.86012 82.87392 "/>
<path transform="matrix(.7071,-.7071,-.7071,-.7071,78.382938,44.550035)" d="M 4.21463 0 L .64343 1.34572 L 1.8178 0 L .64343 -1.34572 Z " fill="#929292"/>
<path transform="matrix(.7071,-.7071,-.7071,-.7071,78.382938,44.550035)" stroke-width=".3985" stroke-linecap="butt" stroke-miterlimit="10" stroke-linejoin="miter" fill="none" stroke="#929292" d="M 4.21463 0 L .64343 1.34572 L 1.8178 0 L .64343 -1.34572 Z "/>
<use xlink:href="#font_0_1" transform="matrix(9.9626,0,0,-9.9626,67.81146,36.265596)" fill="#929292"/>
<use xlink:href="#font_1_2" transform="matrix(6.9738,0,0,-6.9738,74.21534,37.65001)" fill="#929292"/>
<path transform="matrix(1,0,0,-1,138.458,126.20901)" stroke-width=".79701" stroke-linecap="butt" stroke-miterlimit="10" stroke-linejoin="miter" fill="none" stroke="#000000" d="M -85.04042 56.69362 L -45.42667 96.30737 "/>
<path transform="matrix(.7071,-.7071,-.7071,-.7071,91.28825,31.644707)" d="M 5.44046 0 L 1.28699 1.5706 L 2.66432 0 L 1.28699 -1.5706 Z "/>
<path transform="matrix(.7071,-.7071,-.7071,-.7071,91.28825,31.644707)" stroke-width=".79701" stroke-linecap="butt" stroke-miterlimit="10" stroke-linejoin="miter" fill="none" stroke="#000000" d="M 5.44046 0 L 1.28699 1.5706 L 2.66432 0 L 1.28699 -1.5706 Z "/>
<symbol id="font_0_5">
<path d="M .232 .694 C .232 .695 .232 .705 .21900001 .705 C .19600001 .705 .122999999 .697 .097 .695 C .089 .694 .077999997 .693 .077999997 .675 C .077999997 .663 .087 .663 .102 .663 C .15 .663 .15200001 .656 .15200001 .646 L .149 .626 L .0040000008 .05 C 0 .036000004 0 .034 0 .028 C 0 .005000001 .02 0 .029000003 0 C .042 0 .057 .009000001 .06300001 .021000002 C .068 .030000002 .113000009 .21500002 .119 .24000003 C .153 .23700002 .23500002 .22100002 .23500002 .15500002 C .23500002 .14800002 .23500002 .14400001 .232 .134 C .23000002 .12200001 .22800002 .11000001 .22800002 .09900001 C .22800002 .040000004 .268 0 .32000003 0 C .35000003 0 .377 .016 .39900003 .053000004 C .42400003 .097 .435 .15200001 .435 .15400002 C .435 .16400002 .42600004 .16400002 .423 .16400002 C .41300003 .16400002 .412 .16000001 .409 .14600002 C .38900004 .07300001 .36600004 .022000002 .322 .022000002 C .303 .022000002 .29000003 .033000005 .29000003 .069000009 C .29000003 .086 .294 .109000008 .298 .12500002 C .30200003 .14200002 .30200003 .14600002 .30200003 .15600002 C .30200003 .22100002 .239 .25 .154 .261 C .185 .279 .21700001 .31100003 .24000001 .335 C .28800003 .388 .33400003 .43100003 .38300003 .43100003 C .38900004 .43100003 .39000003 .43100003 .39200003 .43000005 C .404 .42800004 .405 .42800004 .41300003 .42200003 C .41500003 .42100004 .41500003 .42000003 .41700004 .418 C .36900003 .41500003 .36 .37600003 .36 .36400003 C .36 .34800003 .37100003 .32900004 .398 .32900004 C .42400003 .32900004 .453 .351 .453 .39000003 C .453 .42000003 .43 .45300005 .38500003 .45300005 C .35700003 .45300005 .31100003 .44500003 .239 .365 C .20500002 .32700003 .16600001 .28700004 .128 .272 L .232 .694 Z "/>
</symbol>
<use xlink:href="#font_0_5" transform="matrix(9.9626,0,0,-9.9626,88.31493,21.892594)" fill="#ff0000"/>
<use xlink:href="#font_0_1" transform="matrix(9.9626,0,0,-9.9626,93.67481,21.892594)"/>
<use xlink:href="#font_1_2" transform="matrix(6.9738,0,0,-6.9738,100.07934,23.277009)"/>
<path transform="matrix(1,0,0,-1,138.458,126.20901)" stroke-width=".3985" stroke-linecap="butt" stroke-dasharray="2.98883,2.98883" stroke-miterlimit="10" stroke-linejoin="miter" fill="none" stroke="#000000" stroke-opacity=".3" d="M -85.04042 56.69362 L -42.52022 42.52022 L -14.1734 70.867 L -56.69362 85.04042 "/>
<path transform="matrix(1,0,0,-1,138.458,126.20901)" d="M -85.04042 56.69362 L -42.52022 42.52022 L -14.1734 70.867 L -56.69362 85.04042 L -85.04042 56.69362 " fill="#ff0000" fill-opacity=".05"/>
<path transform="matrix(1,0,0,-1,138.458,126.20901)" d="M -85.04042 56.69362 L -42.52022 42.52022 L 0 85.04042 L -42.52022 99.21382 " fill="#ff0000" fill-opacity=".25"/>
<use xlink:href="#font_0_5" transform="matrix(9.9626,0,0,-9.9626,90.394939,58.91159)" fill="#ff0000"/>
<use xlink:href="#font_0_4" transform="matrix(9.9626,0,0,-9.9626,95.8644,59.02118)"/>
<path transform="matrix(1,0,0,-1,138.458,126.20901)" stroke-width=".79701" stroke-linecap="butt" stroke-miterlimit="10" stroke-linejoin="miter" fill="none" stroke="#000000" d="M -56.69362 -85.04042 L -18.07263 -97.9141 "/>
<path transform="matrix(.94864,.31621,.31621,-.94864,118.046878,223.34363)" d="M 5.44046 0 L 1.28699 1.5706 L 2.66432 0 L 1.28699 -1.5706 Z "/>
<path transform="matrix(.94864,.31621,.31621,-.94864,118.046878,223.34363)" stroke-width=".79701" stroke-linecap="butt" stroke-miterlimit="10" stroke-linejoin="miter" fill="none" stroke="#000000" d="M 5.44046 0 L 1.28699 1.5706 L 2.66432 0 L 1.28699 -1.5706 Z "/>
<use xlink:href="#font_0_1" transform="matrix(9.9626,0,0,-9.9626,128.41246,233.5396)"/>
<use xlink:href="#font_1_1" transform="matrix(6.9738,0,0,-6.9738,135.13715,234.92401)"/>
<path transform="matrix(1,0,0,-1,138.458,126.20901)" stroke-width=".3985" stroke-linecap="butt" stroke-dasharray="2.98883,2.98883" stroke-miterlimit="10" stroke-linejoin="miter" fill="none" stroke="#929292" d="M -56.69362 -85.04042 L -30.5133 -58.86012 "/>
<path transform="matrix(.7071,-.7071,-.7071,-.7071,106.72974,186.28408)" d="M 4.21463 0 L .64343 1.34572 L 1.8178 0 L .64343 -1.34572 Z " fill="#929292"/>
<path transform="matrix(.7071,-.7071,-.7071,-.7071,106.72974,186.28408)" stroke-width=".3985" stroke-linecap="butt" stroke-miterlimit="10" stroke-linejoin="miter" fill="none" stroke="#929292" d="M 4.21463 0 L .64343 1.34572 L 1.8178 0 L .64343 -1.34572 Z "/>
<use xlink:href="#font_0_1" transform="matrix(9.9626,0,0,-9.9626,105.09846,177.99759)" fill="#929292"/>
<use xlink:href="#font_1_2" transform="matrix(6.9738,0,0,-6.9738,111.502338,179.38202)" fill="#929292"/>
<path transform="matrix(1,0,0,-1,138.458,126.20901)" stroke-width=".79701" stroke-linecap="butt" stroke-miterlimit="10" stroke-linejoin="miter" fill="none" stroke="#000000" d="M -56.69362 -85.04042 L -82.13397 -110.48077 "/>
<path transform="matrix(-.7071,.7071,.7071,.7071,58.067094,234.94672)" d="M 5.44046 0 L 1.28699 1.5706 L 2.66432 0 L 1.28699 -1.5706 Z "/>
<path transform="matrix(-.7071,.7071,.7071,.7071,58.067094,234.94672)" stroke-width=".79701" stroke-linecap="butt" stroke-miterlimit="10" stroke-linejoin="miter" fill="none" stroke="#000000" d="M 5.44046 0 L 1.28699 1.5706 L 2.66432 0 L 1.28699 -1.5706 Z "/>
<use xlink:href="#font_0_5" transform="matrix(9.9626,0,0,-9.9626,33.904939,242.4166)" fill="#0000ff"/>
<use xlink:href="#font_0_1" transform="matrix(9.9626,0,0,-9.9626,39.264818,242.4166)"/>
<use xlink:href="#font_1_2" transform="matrix(6.9738,0,0,-6.9738,45.669347,243.80101)"/>
<path transform="matrix(1,0,0,-1,138.458,126.20901)" stroke-width=".3985" stroke-linecap="butt" stroke-dasharray="2.98883,2.98883" stroke-miterlimit="10" stroke-linejoin="miter" fill="none" stroke="#000000" stroke-opacity=".3" d="M -56.69362 -85.04042 L -14.1734 -99.21382 L 14.17339 -70.86702 L -28.3468 -56.69362 L -56.69362 -85.04042 "/>
<path transform="matrix(1,0,0,-1,138.458,126.20901)" d="M -56.69362 -85.04042 L -14.1734 -99.21382 L 14.17339 -70.86702 L -28.3468 -56.69362 " fill="#ff0000" fill-opacity=".05"/>
<path transform="matrix(1,0,0,-1,138.458,126.20901)" d="M -56.69362 -85.04042 L -14.1734 -99.21382 L -42.52022 -127.56062 L -85.04042 -113.38724 " fill="#0000ff" fill-opacity=".25"/>
<use xlink:href="#font_0_5" transform="matrix(9.9626,0,0,-9.9626,83.30794,236.0766)" fill="#0000ff"/>
<use xlink:href="#font_0_4" transform="matrix(9.9626,0,0,-9.9626,88.777408,236.18619)"/>
<path transform="matrix(1,0,0,-1,138.458,126.20901)" stroke-width=".3985" stroke-linecap="butt" stroke-dasharray="2.98883,2.98883" stroke-miterlimit="10" stroke-linejoin="miter" fill="none" stroke="#929292" d="M 56.69362 85.04042 L 96.30728 71.83585 "/>
<path transform="matrix(.94864,.31621,.31621,-.94864,233.13533,53.829858)" d="M 4.21463 0 L .64343 1.34572 L 1.8178 0 L .64343 -1.34572 Z " fill="#929292"/>
<path transform="matrix(.94864,.31621,.31621,-.94864,233.13533,53.829858)" stroke-width=".3985" stroke-linecap="butt" stroke-miterlimit="10" stroke-linejoin="miter" fill="none" stroke="#929292" d="M 4.21463 0 L .64343 1.34572 L 1.8178 0 L .64343 -1.34572 Z "/>
<use xlink:href="#font_0_1" transform="matrix(9.9626,0,0,-9.9626,232.65746,63.261598)" fill="#929292"/>
<use xlink:href="#font_1_1" transform="matrix(6.9738,0,0,-6.9738,239.38214,64.64601)" fill="#929292"/>
<path transform="matrix(1,0,0,-1,138.458,126.20901)" stroke-width=".79701" stroke-linecap="butt" stroke-miterlimit="10" stroke-linejoin="miter" fill="none" stroke="#000000" d="M 56.69362 85.04042 L 109.27687 85.04042 "/>
<path transform="matrix(1,0,0,-1,245.26979,41.168588)" d="M 5.44046 0 L 1.28699 1.5706 L 2.66432 0 L 1.28699 -1.5706 Z "/>
<path transform="matrix(1,0,0,-1,245.26979,41.168588)" stroke-width=".79701" stroke-linecap="butt" stroke-miterlimit="10" stroke-linejoin="miter" fill="none" stroke="#000000" d="M 5.44046 0 L 1.28699 1.5706 L 2.66432 0 L 1.28699 -1.5706 Z "/>
<use xlink:href="#font_0_1" transform="matrix(9.9626,0,0,-9.9626,255.97145,43.787599)"/>
<symbol id="font_2_1">
<path d="M .24200002 .43100003 C .25 .448 .25100003 .456 .25100003 .463 C .25100003 .49400003 .22300002 .518 .192 .518 C .15400002 .518 .14200002 .487 .137 .47100003 L .0050000029 .038000004 C .0040000008 .036000007 0 .023000002 0 .022 C 0 .010000002 .031000004 0 .039000006 0 C .046000005 0 .047000007 .0020000004 .054000006 .017 L .24200002 .43100003 Z "/>
</symbol>
<use xlink:href="#font_2_1" transform="matrix(6.9738,0,0,-6.9738,262.3077,39.777078)"/>
<use xlink:href="#font_1_1" transform="matrix(6.9738,0,0,-6.9738,262.6961,46.151)"/>
<path transform="matrix(1,0,0,-1,138.458,126.20901)" stroke-width=".79701" stroke-linecap="butt" stroke-miterlimit="10" stroke-linejoin="miter" fill="none" stroke="#000000" d="M 56.69362 85.04042 L 82.13397 110.48077 "/>
<path transform="matrix(.7071,-.7071,-.7071,-.7071,218.84889,17.471306)" d="M 5.44046 0 L 1.28699 1.5706 L 2.66432 0 L 1.28699 -1.5706 Z "/>
<path transform="matrix(.7071,-.7071,-.7071,-.7071,218.84889,17.471306)" stroke-width=".79701" stroke-linecap="butt" stroke-miterlimit="10" stroke-linejoin="miter" fill="none" stroke="#000000" d="M 5.44046 0 L 1.28699 1.5706 L 2.66432 0 L 1.28699 -1.5706 Z "/>
<use xlink:href="#font_0_1" transform="matrix(9.9626,0,0,-9.9626,218.48445,7.719589)"/>
<use xlink:href="#font_1_2" transform="matrix(6.9738,0,0,-6.9738,224.88834,9.104004)"/>
<path transform="matrix(1,0,0,-1,138.458,126.20901)" stroke-width=".3985" stroke-linecap="butt" stroke-dasharray="2.98883,2.98883" stroke-miterlimit="10" stroke-linejoin="miter" fill="none" stroke="#000000" stroke-opacity=".3" d="M 56.69362 85.04042 L 99.21382 70.86702 L 127.56062 99.21382 L 85.04042 113.38724 "/>
<path transform="matrix(1,0,0,-1,138.458,126.20901)" d="M 56.69362 85.04042 L 99.21382 70.86702 L 127.56062 99.21382 L 85.04042 113.38724 L 56.69362 85.04042 " fill="#ff0000" fill-opacity=".05"/>
<path transform="matrix(1,0,0,-1,138.458,126.20901)" stroke-width=".3985" stroke-linecap="butt" stroke-miterlimit="10" stroke-linejoin="miter" fill="none" stroke="#929292" stroke-opacity=".25" d="M 56.69362 85.04042 L 99.21382 70.86702 L 113.38724 85.04042 L 56.69362 85.04042 "/>
<path transform="matrix(1,0,0,-1,138.458,126.20901)" stroke-width=".3985" stroke-linecap="butt" stroke-miterlimit="10" stroke-linejoin="miter" fill="none" stroke="#929292" stroke-opacity=".25" d="M 85.04042 113.38724 L 127.56062 99.21382 L 141.73404 113.38724 L 85.04042 113.38724 "/>
<clipPath id="cp3">
<path transform="matrix(1,0,0,-1,138.458,126.20901)" d="M 56.69362 85.04042 L 99.21382 70.86702 L 113.38724 85.04042 "/>
</clipPath>
<g clip-path="url(#cp3)">
<symbol id="pac4">
<path transform="matrix(1,0,0,-1,0,253.768)" stroke-width=".3985" stroke-linecap="butt" stroke-miterlimit="10" stroke-linejoin="miter" fill="none" stroke="#000000" stroke-opacity=".25" d="M 0 0 L 3.08846 3.08846 "/>
</symbol>
<pattern id="pa4" patternUnits="userSpaceOnUse" patternContentUnits="userSpaceOnUse" x="0" y="0" width="2.98883" height="2.98883">
<clipPath id="cp5">
<path d="M -.99628 -.99628 L 3.9851 -.99628 L 3.9851 3.9851 L -.99628 3.9851 Z"/>
</clipPath>
<g clip-path="url(#cp5)">
<g transform="matrix(1,0,0,-1,-0,253.768)">
<use x="0" y="0" xlink:href="#pac4"/>
<use x="0" y="-2.98883" xlink:href="#pac4"/>
<use x="-2.98883" y="0" xlink:href="#pac4"/>
<use x="-2.98883" y="-2.98883" xlink:href="#pac4"/>
</g>
</g>
</pattern>
<rect transform="matrix(1,0,0,-1,0,253.768)" fill="url(#pa4)" x="195.15161" y="198.42603" width="56.69362" height="14.173401"/>
</g>
<clipPath id="cp6">
<path transform="matrix(1,0,0,-1,138.458,126.20901)" d="M 85.04042 113.38724 L 127.56062 99.21382 L 141.73404 113.38724 "/>
</clipPath>
<g clip-path="url(#cp6)">
<symbol id="pac7">
<path transform="matrix(1,0,0,-1,0,253.768)" stroke-width=".3985" stroke-linecap="butt" stroke-miterlimit="10" stroke-linejoin="miter" fill="none" stroke="#000000" stroke-opacity=".25" d="M 0 0 L 3.08846 3.08846 "/>
</symbol>
<pattern id="pa7" patternUnits="userSpaceOnUse" patternContentUnits="userSpaceOnUse" x="0" y="0" width="2.98883" height="2.98883">
<clipPath id="cp8">
<path d="M -.99628 -.99628 L 3.9851 -.99628 L 3.9851 3.9851 L -.99628 3.9851 Z"/>
</clipPath>
<g clip-path="url(#cp8)">
<g transform="matrix(1,0,0,-1,-0,253.768)">
<use x="0" y="0" xlink:href="#pac7"/>
<use x="0" y="-2.98883" xlink:href="#pac7"/>
<use x="-2.98883" y="0" xlink:href="#pac7"/>
<use x="-2.98883" y="-2.98883" xlink:href="#pac7"/>
</g>
</g>
</pattern>
<rect transform="matrix(1,0,0,-1,0,253.768)" fill="url(#pa7)" x="223.49842" y="226.77283" width="56.693605" height="14.173401"/>
</g>
<path transform="matrix(1,0,0,-1,138.458,126.20901)" d="M 56.69362 85.04042 L 113.38724 85.04042 L 141.73404 113.38724 L 85.04042 113.38724 " fill="#ff0000" fill-opacity=".25"/>
<use xlink:href="#font_0_4" transform="matrix(9.9626,0,0,-9.9626,234.84705,30.619187)"/>
<path transform="matrix(1,0,0,-1,138.458,126.20901)" stroke-width=".3985" stroke-linecap="butt" stroke-miterlimit="10" stroke-linejoin="miter" fill="none" stroke="#000000" d="M 113.38724 70.86702 C 141.73404 48.18948 170.08086 76.5363 144.1264 97.29991 "/>
<path transform="matrix(-.78082,-.62466,-.62466,.78082,283.92604,29.982399)" d="M 4.21463 0 L .64343 1.34572 L 1.8178 0 L .64343 -1.34572 Z "/>
<path transform="matrix(-.78082,-.62466,-.62466,.78082,283.92604,29.982399)" stroke-width=".3985" stroke-linecap="butt" stroke-miterlimit="10" stroke-linejoin="miter" fill="none" stroke="#000000" d="M 4.21463 0 L .64343 1.34572 L 1.8178 0 L .64343 -1.34572 Z "/>
<path transform="matrix(1,0,0,-1,138.458,126.20901)" stroke-width=".79701" stroke-linecap="butt" stroke-miterlimit="10" stroke-linejoin="miter" fill="none" stroke="#000000" d="M 85.04042 -56.69362 L 123.66139 -69.56729 "/>
<path transform="matrix(.94864,.31621,.31621,-.94864,259.7809,194.99683)" d="M 5.44046 0 L 1.28699 1.5706 L 2.66432 0 L 1.28699 -1.5706 Z "/>
<path transform="matrix(.94864,.31621,.31621,-.94864,259.7809,194.99683)" stroke-width=".79701" stroke-linecap="butt" stroke-miterlimit="10" stroke-linejoin="miter" fill="none" stroke="#000000" d="M 5.44046 0 L 1.28699 1.5706 L 2.66432 0 L 1.28699 -1.5706 Z "/>
<use xlink:href="#font_0_1" transform="matrix(9.9626,0,0,-9.9626,261.0045,205.1936)"/>
<use xlink:href="#font_1_2" transform="matrix(6.9738,0,0,-6.9738,267.40837,206.578)"/>
<path transform="matrix(1,0,0,-1,138.458,126.20901)" stroke-width=".79701" stroke-linecap="butt" stroke-miterlimit="10" stroke-linejoin="miter" fill="none" stroke="#000000" d="M 85.04042 -56.69362 L 110.48077 -31.25325 "/>
<path transform="matrix(.7071,-.7071,-.7071,-.7071,247.1957,159.20532)" d="M 5.44046 0 L 1.28699 1.5706 L 2.66432 0 L 1.28699 -1.5706 Z "/>
<path transform="matrix(.7071,-.7071,-.7071,-.7071,247.1957,159.20532)" stroke-width=".79701" stroke-linecap="butt" stroke-miterlimit="10" stroke-linejoin="miter" fill="none" stroke="#000000" d="M 5.44046 0 L 1.28699 1.5706 L 2.66432 0 L 1.28699 -1.5706 Z "/>
<use xlink:href="#font_0_1" transform="matrix(9.9626,0,0,-9.9626,246.83145,149.4516)"/>
<use xlink:href="#font_1_1" transform="matrix(6.9738,0,0,-6.9738,253.55614,150.836)"/>
<path transform="matrix(1,0,0,-1,138.458,126.20901)" d="M 85.04042 -56.69362 L 127.56062 -70.867 L 155.90744 -42.52022 L 113.38724 -28.3468 " fill="#0000ff" fill-opacity=".3"/>
<use xlink:href="#font_0_4" transform="matrix(9.9626,0,0,-9.9626,256.10707,179.43817)"/>
<path transform="matrix(1,0,0,-1,138.458,126.20901)" stroke-width=".79701" stroke-linecap="butt" stroke-miterlimit="10" stroke-linejoin="miter" fill="none" stroke="#ff0000" d="M 116.22208 -53.85876 L 124.72578 -45.35507 "/>
<path transform="matrix(1,0,0,-1,138.458,126.20901)" stroke-width=".79701" stroke-linecap="butt" stroke-miterlimit="10" stroke-linejoin="miter" fill="none" stroke="#ff0000" d="M 124.72578 -53.85876 L 116.22208 -45.35507 "/>
<path transform="matrix(1,0,0,-1,138.458,126.20901)" stroke-width=".3985" stroke-linecap="butt" stroke-miterlimit="10" stroke-linejoin="miter" fill="none" stroke="#000000" d="M 5.66927 22.67752 L -17.67615 46.02296 "/>
<path transform="matrix(-.7071,-.7071,-.7071,.7071,121.99678,81.401)" d="M 4.21463 0 L .64343 1.34572 L 1.8178 0 L .64343 -1.34572 Z "/>
<path transform="matrix(-.7071,-.7071,-.7071,.7071,121.99678,81.401)" stroke-width=".3985" stroke-linecap="butt" stroke-miterlimit="10" stroke-linejoin="miter" fill="none" stroke="#000000" d="M 4.21463 0 L .64343 1.34572 L 1.8178 0 L .64343 -1.34572 Z "/>
<symbol id="font_0_3">
<path d="M .592 .268 C .60300007 .273 .611 .278 .611 .29 C .611 .30200003 .60300007 .307 .592 .312 L .038000004 .5730001 C .024999999 .58000007 .023000002 .58000007 .020000004 .58000007 C .009000003 .58000007 0 .57100006 0 .56000009 C 0 .55100008 .0050000029 .545 .019000002 .53800007 L .544 .29 L .019000002 .042000005 C .0050000029 .035000005 0 .029000003 0 .020000002 C 0 .0090000019 .009000003 0 .020000004 0 C .023000002 0 .024999999 0 .038000004 .007000003 L .592 .268 Z "/>
</symbol>
<use xlink:href="#font_0_5" transform="matrix(9.9626,0,0,-9.9626,104.63493,101.32359)" fill="#ff0000"/>
<use xlink:href="#font_0_3" transform="matrix(9.9626,0,0,-9.9626,113.182849,101.61251)" fill="#ff0000"/>
<symbol id="font_9_2">
<path d="M .421 .34200005 C .421 .42200003 .416 .50200006 .381 .57600006 C .335 .67200008 .25300003 .688 .211 .688 C .15100001 .688 .07800001 .66200008 .037000006 .56900009 C .0050000029 .5 0 .42200003 0 .34200005 C 0 .26700003 .0040000008 .177 .045000007 .101 C .088 .020000002 .161 0 .21000001 0 C .264 0 .34 .021000002 .384 .116000007 C .416 .185 .421 .263 .421 .34200005 M .21000001 .022000002 C .171 .022000002 .112 .047000003 .094 .143 C .083000008 .20300001 .083000008 .29500003 .083000008 .35400004 C .083000008 .41800005 .083000008 .48400004 .091000009 .53800007 C .11 .65700009 .185 .66600009 .21000001 .66600009 C .243 .66600009 .30900003 .64800009 .328 .549 C .338 .49300004 .338 .41700004 .338 .35400004 C .338 .279 .338 .21100001 .32700003 .147 C .312 .052 .255 .022000002 .21000001 .022000002 Z "/>
</symbol>
<use xlink:href="#font_9_2" transform="matrix(9.9626,0,0,-9.9626,123.25853,101.43318)" fill="#ff0000"/>
<path transform="matrix(1,0,0,-1,138.458,126.20901)" stroke-width=".3985" stroke-linecap="butt" stroke-miterlimit="10" stroke-linejoin="miter" fill="none" stroke="#000000" d="M 15.59082 -18.42523 L -.04723 -49.70146 "/>
<path transform="matrix(-.4472,.89438,.89438,.4472,139.17914,174.37375)" d="M 4.21463 0 L .64343 1.34572 L 1.8178 0 L .64343 -1.34572 Z "/>
<path transform="matrix(-.4472,.89438,.89438,.4472,139.17914,174.37375)" stroke-width=".3985" stroke-linecap="butt" stroke-miterlimit="10" stroke-linejoin="miter" fill="none" stroke="#000000" d="M 4.21463 0 L .64343 1.34572 L 1.8178 0 L .64343 -1.34572 Z "/>
<symbol id="font_0_2">
<path d="M .592 .53800007 C .60400006 .544 .611 .549 .611 .56000009 C .611 .57100006 .60200008 .58000007 .591 .58000007 C .588 .58000007 .586 .58000007 .573 .5730001 L .019000002 .312 C .008000001 .307 0 .30200003 0 .29 C 0 .278 .008000001 .273 .019000002 .268 L .573 .007000003 C .586 0 .588 0 .591 0 C .60200008 0 .611 .0090000019 .611 .020000002 C .611 .031000004 .60400006 .036000004 .592 .042000005 L .067 .29 L .592 .53800007 Z "/>
</symbol>
<use xlink:href="#font_0_5" transform="matrix(9.9626,0,0,-9.9626,118.80794,157.84259)" fill="#0000ff"/>
<use xlink:href="#font_0_2" transform="matrix(9.9626,0,0,-9.9626,127.35585,158.1315)" fill="#0000ff"/>
<use xlink:href="#font_9_2" transform="matrix(9.9626,0,0,-9.9626,137.43254,157.95218)" fill="#0000ff"/>
<path transform="matrix(1,0,0,-1,138.458,126.20901)" stroke-width=".3985" stroke-linecap="butt" stroke-miterlimit="10" stroke-linejoin="miter" fill="none" stroke="#000000" d="M 52.44176 26.92937 L 73.74876 69.54414 "/>
<path transform="matrix(.44717,-.89438,-.89438,-.44717,211.43843,58.20156)" d="M 4.21463 0 L .64343 1.34572 L 1.8178 0 L .64343 -1.34572 Z "/>
<path transform="matrix(.44717,-.89438,-.89438,-.44717,211.43843,58.20156)" stroke-width=".3985" stroke-linecap="butt" stroke-miterlimit="10" stroke-linejoin="miter" fill="none" stroke="#000000" d="M 4.21463 0 L .64343 1.34572 L 1.8178 0 L .64343 -1.34572 Z "/>
<path transform="matrix(1,0,0,-1,138.458,126.20901)" stroke-width=".3985" stroke-linecap="butt" stroke-dasharray="2.98883,2.98883" stroke-miterlimit="10" stroke-linejoin="miter" fill="none" stroke="#000000" d="M 65.19774 -8.50412 L 88.54318 -31.84956 "/>
<path transform="matrix(.7071,.7071,.7071,-.7071,225.78624,156.84365)" d="M 4.21463 0 L .64343 1.34572 L 1.8178 0 L .64343 -1.34572 Z "/>
<path transform="matrix(.7071,.7071,.7071,-.7071,225.78624,156.84365)" stroke-width=".3985" stroke-linecap="butt" stroke-miterlimit="10" stroke-linejoin="miter" fill="none" stroke="#000000" d="M 4.21463 0 L .64343 1.34572 L 1.8178 0 L .64343 -1.34572 Z "/>
<symbol id="font_9_c">
<path d="M .07800001 .076000008 C .07800001 .031000002 .067 .031000002 0 .031000002 L 0 0 C .033000005 .001 .08 .003 .10900001 .003 C .13900002 .003 .17900002 .002 .21900001 0 L .21900001 .031000002 C .15200001 .031000002 .14100002 .031000002 .14100002 .076000008 L .14100002 .179 L .20500002 .23400001 C .282 .128 .32400004 .072000008 .32400004 .054 C .32400004 .035 .307 .031000002 .28800003 .031000002 L .28800003 0 C .316 .001 .37500004 .003 .39600004 .003 C .425 .003 .45400004 .002 .48300005 0 L .48300005 .031000002 C .44600005 .031000002 .42400003 .031000002 .38600005 .08400001 L .259 .263 C .25800003 .26500003 .25300003 .27100004 .25300003 .27400003 C .25300003 .27800004 .32400004 .33800004 .33400003 .34600003 C .397 .397 .439 .39900003 .46000005 .4 L .46000005 .43100003 C .43100003 .42800004 .418 .42800004 .39000003 .42800004 C .35400004 .42800004 .29200004 .43 .27800004 .43100003 L .27800004 .4 C .29700003 .39900003 .307 .388 .307 .37500004 C .307 .35500003 .293 .34300003 .28500004 .33600004 L .14400001 .21400002 L .14400001 .694 L 0 .683 L 0 .652 C .07000001 .652 .07800001 .64500007 .07800001 .596 L .07800001 .076000008 Z "/>
</symbol>
<symbol id="font_9_7">
<path d="M .08400001 .263 C .09 .41200004 .17400001 .43700005 .20800002 .43700005 C .31100003 .43700005 .321 .30200003 .321 .263 L .08400001 .263 M .083000008 .24200002 L .36200003 .24200002 C .38400004 .24200002 .38700003 .24200002 .38700003 .263 C .38700003 .36200003 .33300004 .45900003 .20800002 .45900003 C .09200001 .45900003 0 .35600005 0 .23100002 C 0 .097 .105000007 0 .22000002 0 C .342 0 .38700003 .111 .38700003 .13000001 C .38700003 .14000002 .379 .14200002 .374 .14200002 C .365 .14200002 .36300005 .136 .36100004 .128 C .326 .025000003 .236 .025000003 .22600001 .025000003 C .17600002 .025000003 .136 .055000005 .113000009 .092 C .083000008 .14000002 .083000008 .20600002 .083000008 .24200002 Z "/>
</symbol>
<symbol id="font_9_11">
<path d="M .14400001 .57000008 L .14400001 .63600006 L 0 .625 L 0 .594 C .07100001 .594 .07800001 .58800008 .07800001 .544 L .07800001 .076 C .07800001 .031000004 .067 .031000004 0 .031000004 L 0 0 C .034 .001000002 .08600001 .0029999912 .112 .0029999912 C .13900002 .0029999912 .19000001 .001000002 .22500003 0 L .22500003 .031000004 C .158 .031000004 .14700002 .031000004 .14700002 .076 L .14700002 .244 L .14700002 .25300003 C .15200001 .237 .19400002 .183 .27 .183 C .38900004 .183 .49300004 .28100003 .49300004 .41000004 C .49300004 .53700008 .39600004 .63600006 .284 .63600006 C .20600002 .63600006 .164 .592 .14400001 .57000008 M .14700002 .30800004 L .14700002 .531 C .17600002 .582 .22500003 .61100009 .27600003 .61100009 C .349 .61100009 .41000004 .523 .41000004 .41000004 C .41000004 .289 .34000004 .20500002 .266 .20500002 C .22600001 .20500002 .18800001 .22500001 .16100002 .266 C .14700002 .287 .14700002 .28800003 .14700002 .30800004 Z "/>
</symbol>
<symbol id="font_9_13">
<path d="M .17500001 .20500002 C .197 .20100002 .279 .18500002 .279 .113000009 C .279 .062000004 .24400002 .022000002 .16600001 .022000002 C .082 .022000002 .046000005 .079 .027000003 .16400002 C .024000004 .17700002 .023000002 .18100001 .013000004 .18100001 C 0 .18100001 0 .17400001 0 .15600002 L 0 .024 C 0 .0070000009 0 0 .011000004 0 C .016000003 0 .017 .0010000002 .036000007 .020000002 C .038000004 .022000002 .038000004 .024 .056 .043 C .1 .0010000002 .14500001 0 .16600001 0 C .28100003 0 .32700003 .067 .32700003 .13900002 C .32700003 .19200002 .29700003 .22200002 .28500004 .23400001 C .25200004 .26600004 .213 .27400003 .171 .28200004 C .115 .293 .048 .30600003 .048 .36400003 C .048 .39900003 .07400001 .44000004 .16 .44000004 C .27 .44000004 .27500005 .35000003 .277 .31900005 C .27800004 .31000004 .28700004 .31000004 .28900004 .31000004 C .30200003 .31000004 .30200003 .31500004 .30200003 .33400003 L .30200003 .43500004 C .30200003 .45200003 .30200003 .45900003 .291 .45900003 C .286 .45900003 .284 .45900003 .27100004 .44700004 C .26800005 .44300003 .25800003 .43400003 .254 .43100003 C .21600002 .45900003 .17500001 .45900003 .16 .45900003 C .038000004 .45900003 0 .39200003 0 .33600004 C 0 .30100004 .016000003 .27300004 .043000007 .25100003 C .075 .22500003 .10300001 .21900001 .17500001 .20500002 Z "/>
</symbol>
<use xlink:href="#font_9_c" transform="matrix(9.9626,0,0,-9.9626,13.700948,65.93001)"/>
<use xlink:href="#font_9_7" transform="matrix(9.9626,0,0,-9.9626,18.682248,66.0396)"/>
<use xlink:href="#font_9_7" transform="matrix(9.9626,0,0,-9.9626,23.105643,66.0396)"/>
<use xlink:href="#font_9_11" transform="matrix(9.9626,0,0,-9.9626,27.529038,67.862758)"/>
<use xlink:href="#font_9_13" transform="matrix(9.9626,0,0,-9.9626,33.118059,66.0396)"/>
<symbol id="font_9_15">
<path d="M .39600004 .541 C .42200003 .60400006 .47300003 .605 .48900003 .605 L .48900003 .63600006 C .46600003 .63400009 .43700005 .633 .41400004 .633 C .39600004 .633 .34900005 .635 .32700003 .63600006 L .32700003 .605 C .358 .60400006 .374 .587 .374 .56200006 C .374 .55200007 .37300004 .5500001 .36800004 .538 L .26700003 .29200004 L .15600002 .561 C .15200001 .57100006 .15 .57500007 .15 .579 C .15 .605 .187 .605 .206 .605 L .206 .63600006 C .18 .635 .114 .633 .097 .633 C .07 .633 .030000002 .63400009 0 .63600006 L 0 .605 C .048 .605 .067 .605 .081 .57000008 L .231 .20500002 C .22600001 .19200002 .21200001 .15900001 .206 .14600002 C .18400002 .091000009 .15600002 .022 .09200001 .022 C .087000008 .022 .064 .022 .045 .040000008 C .076000008 .044 .08400001 .066 .08400001 .08200001 C .08400001 .10800001 .065000008 .12400001 .042000005 .12400001 C .022 .12400001 0 .11100001 0 .08100001 C 0 .036 .042000005 0 .09200001 0 C .155 0 .19600001 .05700001 .22 .11400001 L .39600004 .541 Z "/>
</symbol>
<symbol id="font_9_e">
<path d="M .07800001 .344 L .07800001 .076000008 C .07800001 .031000002 .067 .031000002 0 .031000002 L 0 0 C .035 .001 .08600001 .003 .113000009 .003 C .139 .003 .191 .001 .225 0 L .225 .031000002 C .158 .031000002 .147 .031000002 .147 .076000008 L .147 .26000003 C .147 .36400003 .218 .42000003 .282 .42000003 C .345 .42000003 .356 .36600004 .356 .30900003 L .356 .076000008 C .356 .031000002 .345 .031000002 .278 .031000002 L .278 0 C .31300003 .001 .36400003 .003 .391 .003 C .41700004 .003 .46900005 .001 .503 0 L .503 .031000002 C .43600003 .031000002 .425 .031000002 .425 .076000008 L .425 .26000003 C .425 .36400003 .496 .42000003 .56 .42000003 C .623 .42000003 .634 .36600004 .634 .30900003 L .634 .076000008 C .634 .031000002 .623 .031000002 .556 .031000002 L .556 0 C .591 .001 .642 .003 .669 .003 C .69500008 .003 .74700006 .001 .781 0 L .781 .031000002 C .72900006 .031000002 .70400008 .031000002 .703 .061000006 L .703 .252 C .703 .33800004 .703 .36900003 .67200008 .40500004 C .65800008 .42200003 .625 .44200004 .56700006 .44200004 C .48300005 .44200004 .439 .38200004 .42200003 .344 C .40800003 .43100003 .33400003 .44200004 .289 .44200004 C .216 .44200004 .169 .39900003 .141 .337 L .141 .44200004 L 0 .43100003 L 0 .4 C .07000001 .4 .07800001 .393 .07800001 .344 Z "/>
</symbol>
<symbol id="font_9_4">
<path d="M .14400001 .388 L .14400001 .705 L 0 .694 L 0 .663 C .07000001 .663 .07800001 .656 .07800001 .607 L .07800001 .011000001 L .103000018 .011000001 C .104 .012000001 .112 .026 .13900002 .07300001 C .15400002 .05 .19600001 0 .27 0 C .38900004 0 .49300004 .098000008 .49300004 .22700002 C .49300004 .35400004 .395 .45300005 .28100003 .45300005 C .20300001 .45300005 .16000001 .40600003 .14400001 .388 M .14700002 .12500002 L .14700002 .33100004 C .14700002 .35000003 .14700002 .351 .158 .367 C .19700001 .42300005 .252 .43100003 .27600003 .43100003 C .321 .43100003 .35700003 .40500004 .381 .367 C .40700004 .32600004 .41000004 .26900003 .41000004 .22800002 C .41000004 .19100002 .40800003 .13100001 .379 .086 C .358 .055000005 .32000003 .022000002 .266 .022000002 C .22100002 .022000002 .18500002 .046 .16100002 .083000008 C .14700002 .104 .14700002 .107 .14700002 .12500002 Z "/>
</symbol>
<symbol id="font_9_10">
<path d="M .44300003 .22500003 C .44300003 .35300002 .34300003 .45900003 .222 .45900003 C .097 .45900003 0 .35000003 0 .22500003 C 0 .096 .104 0 .22100002 0 C .342 0 .44300003 .098000008 .44300003 .22500003 M .222 .025000003 C .17900002 .025000003 .135 .046 .10800001 .092 C .083000008 .136 .083000008 .19700001 .083000008 .23300003 C .083000008 .272 .083000008 .32600004 .10700001 .37000004 C .134 .41600005 .18100001 .43700005 .22100002 .43700005 C .26500003 .43700005 .30800004 .41500003 .33400003 .37200005 C .36 .32900004 .36 .27100004 .36 .23300003 C .36 .19700001 .36 .143 .33800004 .09900001 C .316 .054 .272 .025000003 .222 .025000003 Z "/>
</symbol>
<symbol id="font_9_d">
<path d="M .144 .694 L 0 .683 L 0 .652 C .07000001 .652 .07800001 .64500007 .07800001 .596 L .07800001 .076000008 C .07800001 .031000002 .067 .031000002 0 .031000002 L 0 0 C .033 .001 .086 .003 .11100001 .003 C .136 .003 .185 .001 .22200004 0 L .22200004 .031000002 C .155 .031000002 .144 .031000002 .144 .076000008 L .144 .694 Z "/>
</symbol>
<use xlink:href="#font_9_13" transform="matrix(9.9626,0,0,-9.9626,10.014761,77.9946)" fill="#ff0000"/>
<use xlink:href="#font_9_15" transform="matrix(9.9626,0,0,-9.9626,13.800549,79.927349)" fill="#ff0000"/>
<use xlink:href="#font_9_e" transform="matrix(9.9626,0,0,-9.9626,19.190316,77.88501)" fill="#ff0000"/>
<use xlink:href="#font_9_4" transform="matrix(9.9626,0,0,-9.9626,27.170359,77.9946)" fill="#ff0000"/>
<use xlink:href="#font_9_10" transform="matrix(9.9626,0,0,-9.9626,32.98852,77.9946)" fill="#ff0000"/>
<use xlink:href="#font_9_d" transform="matrix(9.9626,0,0,-9.9626,38.019636,77.88501)" fill="#ff0000"/>
<symbol id="font_9_5">
<path d="M .083000008 .22900002 C .083000008 .39200003 .16500002 .43400003 .218 .43400003 C .227 .43400003 .29 .43300004 .32500003 .397 C .284 .39400003 .278 .36400003 .278 .351 C .278 .32500003 .296 .305 .324 .305 C .35 .305 .37 .32200004 .37 .35200004 C .37 .42000003 .294 .45900003 .21700001 .45900003 C .092 .45900003 0 .351 0 .22700002 C 0 .09900001 .099 0 .215 0 C .349 0 .381 .120000008 .381 .13000001 C .381 .14000002 .37100003 .14000002 .368 .14000002 C .359 .14000002 .35700003 .136 .35500003 .13000001 C .326 .037 .261 .025000003 .224 .025000003 C .171 .025000003 .083000008 .068 .083000008 .22900002 Z "/>
</symbol>
<symbol id="font_9_a">
<path d="M .07800001 .076000008 C .07800001 .031000002 .067 .031000002 0 .031000002 L 0 0 C .035 .001 .08600001 .003 .113000009 .003 C .139 .003 .191 .001 .225 0 L .225 .031000002 C .158 .031000002 .147 .031000002 .147 .076000008 L .147 .26000003 C .147 .36400003 .218 .42000003 .282 .42000003 C .345 .42000003 .356 .36600004 .356 .30900003 L .356 .076000008 C .356 .031000002 .345 .031000002 .278 .031000002 L .278 0 C .31300003 .001 .36400003 .003 .391 .003 C .41700004 .003 .46900005 .001 .503 0 L .503 .031000002 C .451 .031000002 .42600004 .031000002 .425 .061000006 L .425 .252 C .425 .33800004 .425 .36900003 .39400003 .40500004 C .38000003 .42200003 .347 .44200004 .289 .44200004 C .20500002 .44200004 .161 .38200004 .14400001 .344 L .14400001 .694 L 0 .683 L 0 .652 C .07000001 .652 .07800001 .64500007 .07800001 .596 L .07800001 .076000008 Z "/>
</symbol>
<symbol id="font_9_3">
<path d="M .291 .087000008 C .29500003 .047000003 .32200004 .005000001 .36900003 .005000001 C .39000003 .005000001 .45100004 .019000002 .45100004 .1 L .45100004 .15600002 L .42600004 .15600002 L .42600004 .1 C .42600004 .042000005 .40100003 .036000004 .39000003 .036000004 C .35700003 .036000004 .35300002 .081 .35300002 .086 L .35300002 .286 C .35300002 .328 .35300002 .367 .31700004 .404 C .27800004 .44300003 .22800002 .45900003 .18 .45900003 C .098 .45900003 .029 .41200004 .029 .34600003 C .029 .316 .049000004 .29900003 .075 .29900003 C .10300001 .29900003 .121 .31900005 .121 .34500004 C .121 .35700003 .116000007 .39000003 .07 .39100004 C .09700001 .42600004 .146 .43700005 .178 .43700005 C .22700003 .43700005 .284 .39800004 .284 .30900003 L .284 .272 C .23300001 .26900003 .16300002 .26600004 .1 .23600002 C .024999999 .20200002 0 .15000002 0 .106000009 C 0 .025000003 .09700001 0 .16 0 C .22600001 0 .272 .040000004 .291 .087000008 M .284 .25100003 L .284 .15100001 C .284 .056 .21200001 .022000002 .167 .022000002 C .11800001 .022000002 .077 .057000005 .077 .107 C .077 .16200002 .11900001 .24500002 .284 .25100003 Z "/>
</symbol>
<symbol id="font_9_f">
<path d="M .07800001 .344 L .07800001 .076000008 C .07800001 .031000002 .067 .031000002 0 .031000002 L 0 0 C .035 .001 .08600001 .003 .113000009 .003 C .139 .003 .191 .001 .225 0 L .225 .031000002 C .158 .031000002 .147 .031000002 .147 .076000008 L .147 .26000003 C .147 .36400003 .218 .42000003 .282 .42000003 C .345 .42000003 .356 .36600004 .356 .30900003 L .356 .076000008 C .356 .031000002 .345 .031000002 .278 .031000002 L .278 0 C .31300003 .001 .36400003 .003 .391 .003 C .41700004 .003 .46900005 .001 .503 0 L .503 .031000002 C .451 .031000002 .42600004 .031000002 .425 .061000006 L .425 .252 C .425 .33800004 .425 .36900003 .39400003 .40500004 C .38000003 .42200003 .347 .44200004 .289 .44200004 C .216 .44200004 .169 .39900003 .141 .337 L .141 .44200004 L 0 .43100003 L 0 .4 C .07000001 .4 .07800001 .393 .07800001 .344 Z "/>
</symbol>
<symbol id="font_9_9">
<path d="M .19400002 .37800003 C .10700001 .37800003 .10700001 .47800005 .10700001 .50100007 C .10700001 .52800008 .10800001 .56 .12300001 .58500006 C .13100001 .59700009 .15400002 .62500008 .19400002 .62500008 C .28100003 .62500008 .28100003 .52500006 .28100003 .50200006 C .28100003 .47500003 .28000004 .44300003 .26500003 .41800005 C .25700004 .40600003 .23400003 .37800003 .19400002 .37800003 M .07800001 .33900003 C .07800001 .34300003 .07800001 .36600004 .095 .38600005 C .134 .35800005 .17500001 .35500003 .19400002 .35500003 C .28700004 .35500003 .356 .42400003 .356 .50100007 C .356 .53800007 .34000004 .57500007 .31500004 .59800007 C .351 .632 .38700003 .637 .40500004 .637 C .40700004 .637 .41200004 .637 .41500003 .63600006 C .404 .632 .39900003 .62100008 .39900003 .609 C .39900003 .592 .41200004 .58000007 .42800004 .58000007 C .43800003 .58000007 .45700003 .587 .45700003 .61 C .45700003 .62700006 .44500003 .65900006 .40600003 .65900006 C .38600005 .65900006 .342 .65300008 .3 .61200007 C .25800003 .64500007 .21600002 .64800009 .19400002 .64800009 C .10100001 .64800009 .032 .57900008 .032 .50200006 C .032 .458 .054 .42000003 .07900001 .39900003 C .066 .384 .048000006 .351 .048000006 .316 C .048000006 .28500004 .061 .24700001 .09200001 .22700002 C .032 .21000001 0 .16700001 0 .127 C 0 .055000009 .09900001 0 .22100002 0 C .33900003 0 .44300003 .051000015 .44300003 .12900001 C .44300003 .164 .42900003 .21500002 .37800003 .24300002 C .32500003 .27100004 .26700003 .27100004 .20600002 .27100004 C .18100001 .27100004 .13800001 .27100004 .13100001 .272 C .09900001 .27600003 .07800001 .307 .07800001 .33900003 M .222 .023000002 C .12100001 .023000002 .052000006 .074000019 .052000006 .127 C .052000006 .17300001 .09 .21000001 .134 .21300002 L .19300002 .21300002 C .279 .21300002 .39100004 .21300002 .39100004 .127 C .39100004 .073000017 .32000003 .023000002 .222 .023000002 Z "/>
</symbol>
<use xlink:href="#font_9_5" transform="matrix(9.9626,0,0,-9.9626,8.64072,193.5986)"/>
<use xlink:href="#font_9_a" transform="matrix(9.9626,0,0,-9.9626,12.765238,193.48902)"/>
<use xlink:href="#font_9_3" transform="matrix(9.9626,0,0,-9.9626,18.40407,193.5986)"/>
<use xlink:href="#font_9_f" transform="matrix(9.9626,0,0,-9.9626,23.285746,193.48902)"/>
<use xlink:href="#font_9_9" transform="matrix(9.9626,0,0,-9.9626,28.7851,195.5413)"/>
<use xlink:href="#font_9_7" transform="matrix(9.9626,0,0,-9.9626,33.7664,193.5986)"/>
<use xlink:href="#font_9_13" transform="matrix(9.9626,0,0,-9.9626,38.239606,193.5986)"/>
<use xlink:href="#font_9_13" transform="matrix(9.9626,0,0,-9.9626,10.013759,205.55359)" fill="#0000ff"/>
<use xlink:href="#font_9_15" transform="matrix(9.9626,0,0,-9.9626,13.799546,207.48633)" fill="#0000ff"/>
<use xlink:href="#font_9_e" transform="matrix(9.9626,0,0,-9.9626,19.189314,205.444)" fill="#0000ff"/>
<use xlink:href="#font_9_4" transform="matrix(9.9626,0,0,-9.9626,27.169358,205.55359)" fill="#0000ff"/>
<use xlink:href="#font_9_10" transform="matrix(9.9626,0,0,-9.9626,32.98752,205.55359)" fill="#0000ff"/>
<use xlink:href="#font_9_d" transform="matrix(9.9626,0,0,-9.9626,38.01863,205.444)" fill="#0000ff"/>
<symbol id="font_9_14">
<path d="M .15400002 .411 L .29700003 .411 L .29700003 .44200004 L .15400002 .44200004 L .15400002 .626 L .12900001 .626 C .12799999 .544 .098000008 .43700005 0 .43300004 L 0 .411 L .085 .411 L .085 .135 C .085 .012000001 .178 0 .21400002 0 C .28500004 0 .31300003 .071 .31300003 .135 L .31300003 .19200002 L .28800003 .19200002 L .28800003 .13700001 C .28800003 .063 .25800003 .025000003 .22100002 .025000003 C .15400002 .025000003 .15400002 .116000007 .15400002 .13300002 L .15400002 .411 Z "/>
</symbol>
<symbol id="font_9_12">
<path d="M .13900002 .33200003 L .13900002 .44200004 L 0 .43100003 L 0 .4 C .07000001 .4 .07800001 .393 .07800001 .344 L .07800001 .076000008 C .07800001 .031000002 .067 .031000002 0 .031000002 L 0 0 C .039 .001 .08600001 .003 .11400001 .003 C .15400002 .003 .20100002 .003 .24100003 0 L .24100003 .031000002 L .22000002 .031000002 C .14600002 .031000002 .14400001 .042000005 .14400001 .078 L .14400001 .23200001 C .14400001 .33100004 .18600002 .42000003 .26200003 .42000003 C .26900003 .42000003 .27100004 .42000003 .27300004 .41900004 C .27 .418 .25000004 .40600003 .25000004 .38000003 C .25000004 .35200004 .27100004 .337 .293 .337 C .31100003 .337 .33600004 .349 .33600004 .381 C .33600004 .41300003 .305 .44200004 .26200003 .44200004 C .18900001 .44200004 .15300001 .37500004 .13900002 .33200003 Z "/>
</symbol>
<symbol id="font_9_b">
<path d="M .144 .44200004 L .0040000008 .43100003 L .0040000008 .4 C .069000009 .4 .07800001 .39400003 .07800001 .34500004 L .07800001 .076000008 C .07800001 .031000002 .067 .031000002 0 .031000002 L 0 0 C .032000007 .001 .086 .003 .11000001 .003 C .14500001 .003 .18 .001 .21400002 0 L .21400002 .031000002 C .148 .031000002 .144 .036000004 .144 .075 L .144 .44200004 M .148 .61600008 C .148 .648 .123 .669 .095000009 .669 C .064 .669 .042000005 .642 .042000005 .61600008 C .042000005 .58900007 .064 .563 .095000009 .563 C .123 .563 .148 .58400008 .148 .61600008 Z "/>
</symbol>
<symbol id="font_9_6">
<path d="M .34600003 .06600001 L .34600003 0 L .493 .011000001 L .493 .042000005 C .423 .042000005 .41500003 .049000004 .41500003 .098000008 L .41500003 .705 L .271 .694 L .271 .663 C .34100003 .663 .349 .656 .349 .607 L .349 .39100004 C .32 .42700003 .277 .45300005 .22299999 .45300005 C .10500001 .45300005 0 .35500003 0 .22600001 C 0 .09900001 .098 0 .21200001 0 C .276 0 .321 .034 .34600003 .06600001 M .34600003 .33400003 L .34600003 .12900001 C .34600003 .111 .34600003 .109000008 .335 .092 C .305 .044 .26 .022000002 .21700001 .022000002 C .17200002 .022000002 .136 .048 .11200001 .086 C .086 .127 .083000008 .18400002 .083000008 .22500003 C .083000008 .26200003 .085 .32200004 .114 .367 C .13500002 .39800004 .17300001 .43100003 .227 .43100003 C .262 .43100003 .30400003 .41600005 .335 .37100003 C .34600003 .35400004 .34600003 .35200004 .34600003 .33400003 Z "/>
</symbol>
<use xlink:href="#font_9_14" transform="matrix(9.9626,0,0,-9.9626,213.55829,88.7166)"/>
<use xlink:href="#font_9_12" transform="matrix(9.9626,0,0,-9.9626,217.5234,88.60701)"/>
<use xlink:href="#font_9_b" transform="matrix(9.9626,0,0,-9.9626,221.47856,88.60701)"/>
<use xlink:href="#font_9_e" transform="matrix(9.9626,0,0,-9.9626,224.2382,88.60701)"/>
<use xlink:href="#font_9_e" transform="matrix(9.9626,0,0,-9.9626,232.53705,88.60701)"/>
<use xlink:href="#font_9_b" transform="matrix(9.9626,0,0,-9.9626,240.84586,88.60701)"/>
<use xlink:href="#font_9_f" transform="matrix(9.9626,0,0,-9.9626,243.6055,88.60701)"/>
<use xlink:href="#font_9_9" transform="matrix(9.9626,0,0,-9.9626,249.10485,90.6593)"/>
<use xlink:href="#font_9_3" transform="matrix(9.9626,0,0,-9.9626,257.68266,88.7166)"/>
<use xlink:href="#font_9_f" transform="matrix(9.9626,0,0,-9.9626,262.56434,88.60701)"/>
<use xlink:href="#font_9_6" transform="matrix(9.9626,0,0,-9.9626,268.12345,88.7166)"/>
<use xlink:href="#font_9_14" transform="matrix(9.9626,0,0,-9.9626,219.9643,100.6716)"/>
<use xlink:href="#font_9_12" transform="matrix(9.9626,0,0,-9.9626,223.92942,100.56201)"/>
<use xlink:href="#font_9_3" transform="matrix(9.9626,0,0,-9.9626,227.97423,100.6716)"/>
<use xlink:href="#font_9_f" transform="matrix(9.9626,0,0,-9.9626,232.8559,100.56201)"/>
<use xlink:href="#font_9_13" transform="matrix(9.9626,0,0,-9.9626,238.40506,100.6716)"/>
<use xlink:href="#font_9_d" transform="matrix(9.9626,0,0,-9.9626,242.33032,100.56201)"/>
<use xlink:href="#font_9_3" transform="matrix(9.9626,0,0,-9.9626,245.18959,100.6716)"/>
<use xlink:href="#font_9_14" transform="matrix(9.9626,0,0,-9.9626,249.94174,100.6716)"/>
<use xlink:href="#font_9_b" transform="matrix(9.9626,0,0,-9.9626,253.95668,100.56201)"/>
<use xlink:href="#font_9_10" transform="matrix(9.9626,0,0,-9.9626,256.67649,100.6716)"/>
<use xlink:href="#font_9_f" transform="matrix(9.9626,0,0,-9.9626,261.69764,100.56201)"/>
<symbol id="font_9_1">
<path d="M .421 .4 L .536 .4 L .536 .43100003 L .418 .43100003 L .418 .54700008 C .418 .63600006 .46600003 .683 .51100006 .683 C .514 .683 .52900007 .683 .544 .67600008 C .532 .67200008 .514 .65900006 .514 .634 C .514 .611 .53000006 .591 .55700007 .591 C .586 .591 .601 .611 .601 .63500007 C .601 .671 .56600007 .70500007 .51 .70500007 C .451 .70500007 .407 .66700008 .402 .66300007 C .373 .70000007 .317 .70500007 .29 .70500007 C .19500003 .70500007 .079 .65300008 .079 .545 L .079 .43100003 L 0 .43100003 L 0 .4 L .079 .4 L .079 .076000008 C .079 .031000002 .068 .031000002 .0010000002 .031000002 L .0010000002 0 C .034 .001 .087000008 .003 .11200001 .003 C .13700001 .003 .18600002 .001 .223 0 L .223 .031000002 C .15600002 .031000002 .14500001 .031000002 .14500001 .076000008 L .14500001 .4 L .35500003 .4 L .35500003 .076000008 C .35500003 .031000002 .344 .031000002 .277 .031000002 L .277 0 C .316 .001 .363 .003 .391 .003 C .43100003 .003 .478 .003 .518 0 L .518 .031000002 L .49700005 .031000002 C .423 .031000002 .421 .042000005 .421 .078 L .421 .4 M .14200002 .43100003 L .14200002 .544 C .14200002 .64100006 .22400002 .683 .289 .683 C .338 .683 .366 .66400006 .367 .66400006 L .367 .66300007 C .35 .661 .33 .648 .33 .62 C .33 .614 .331 .58900007 .358 .58000007 C .35500003 .56700006 .35500003 .558 .35500003 .546 L .35500003 .43100003 L .14200002 .43100003 Z "/>
</symbol>
<symbol id="font_9_8">
<path d="M .14200002 .43100003 L .14200002 .54700008 C .14200002 .63500007 .19 .683 .23400003 .683 C .23700002 .683 .25200004 .683 .26700003 .67600008 C .25500003 .67200008 .23700002 .65900006 .23700002 .634 C .23700002 .611 .25300003 .591 .28000004 .591 C .30900003 .591 .32400004 .611 .32400004 .63500007 C .32400004 .67200008 .28700004 .70500007 .23400003 .70500007 C .164 .70500007 .079 .652 .079 .546 L .079 .43100003 L 0 .43100003 L 0 .4 L .079 .4 L .079 .076000008 C .079 .031000002 .068 .031000002 .001000002 .031000002 L .001000002 0 C .040000008 .001 .087000008 .003 .115 .003 C .155 .003 .20200002 .003 .24200002 0 L .24200002 .031000002 L .22100002 .031000002 C .14700002 .031000002 .14500001 .042000005 .14500001 .078 L .14500001 .4 L .25900004 .4 L .25900004 .43100003 L .14200002 .43100003 Z "/>
</symbol>
<use xlink:href="#font_9_6" transform="matrix(9.9626,0,0,-9.9626,234.18073,221.6366)"/>
<use xlink:href="#font_9_b" transform="matrix(9.9626,0,0,-9.9626,239.70996,221.52701)"/>
<use xlink:href="#font_9_1" transform="matrix(9.9626,0,0,-9.9626,242.4198,221.52701)"/>
<use xlink:href="#font_9_7" transform="matrix(9.9626,0,0,-9.9626,248.23795,221.6366)"/>
<use xlink:href="#font_9_12" transform="matrix(9.9626,0,0,-9.9626,252.66135,221.52701)"/>
<use xlink:href="#font_9_7" transform="matrix(9.9626,0,0,-9.9626,256.5667,221.6366)"/>
<use xlink:href="#font_9_f" transform="matrix(9.9626,0,0,-9.9626,261.02998,221.52701)"/>
<use xlink:href="#font_9_14" transform="matrix(9.9626,0,0,-9.9626,266.1607,221.6366)"/>
<use xlink:href="#font_9_8" transform="matrix(9.9626,0,0,-9.9626,224.05576,233.48201)"/>
<use xlink:href="#font_9_12" transform="matrix(9.9626,0,0,-9.9626,227.05449,233.48201)"/>
<use xlink:href="#font_9_10" transform="matrix(9.9626,0,0,-9.9626,230.95983,233.5916)"/>
<use xlink:href="#font_9_e" transform="matrix(9.9626,0,0,-9.9626,235.98097,233.48201)"/>
<use xlink:href="#font_9_10" transform="matrix(9.9626,0,0,-9.9626,247.55751,233.5916)"/>
<use xlink:href="#font_9_12" transform="matrix(9.9626,0,0,-9.9626,252.5388,233.48201)"/>
<use xlink:href="#font_9_b" transform="matrix(9.9626,0,0,-9.9626,256.49397,233.48201)"/>
<use xlink:href="#font_9_9" transform="matrix(9.9626,0,0,-9.9626,259.21376,235.5343)"/>
<use xlink:href="#font_9_b" transform="matrix(9.9626,0,0,-9.9626,264.24485,233.48201)"/>
<use xlink:href="#font_9_f" transform="matrix(9.9626,0,0,-9.9626,267.0045,233.48201)"/>
<use xlink:href="#font_9_3" transform="matrix(9.9626,0,0,-9.9626,272.6433,233.5916)"/>
<use xlink:href="#font_9_d" transform="matrix(9.9626,0,0,-9.9626,277.53495,233.48201)"/>
<use xlink:href="#font_9_11" transform="matrix(9.9626,0,0,-9.9626,222.48394,247.36975)"/>
<use xlink:href="#font_9_3" transform="matrix(9.9626,0,0,-9.9626,228.16262,245.5466)"/>
<use xlink:href="#font_9_12" transform="matrix(9.9626,0,0,-9.9626,233.00443,245.43701)"/>
<use xlink:href="#font_9_3" transform="matrix(9.9626,0,0,-9.9626,237.04924,245.5466)"/>
<use xlink:href="#font_9_d" transform="matrix(9.9626,0,0,-9.9626,241.94087,245.43701)"/>
<use xlink:href="#font_9_d" transform="matrix(9.9626,0,0,-9.9626,244.71048,245.43701)"/>
<use xlink:href="#font_9_7" transform="matrix(9.9626,0,0,-9.9626,247.43027,245.5466)"/>
<use xlink:href="#font_9_d" transform="matrix(9.9626,0,0,-9.9626,251.90349,245.43701)"/>
<use xlink:href="#font_9_10" transform="matrix(9.9626,0,0,-9.9626,254.62328,245.5466)"/>
<use xlink:href="#font_9_9" transform="matrix(9.9626,0,0,-9.9626,259.60459,247.4893)"/>
<use xlink:href="#font_9_12" transform="matrix(9.9626,0,0,-9.9626,264.58589,245.43701)"/>
<use xlink:href="#font_9_3" transform="matrix(9.9626,0,0,-9.9626,268.63069,245.5466)"/>
<use xlink:href="#font_9_e" transform="matrix(9.9626,0,0,-9.9626,273.51237,245.43701)"/>
</g>
</svg>
